<svg xmlns="http://www.w3.org/2000/svg" xmlns:xlink="http://www.w3.org/1999/xlink" width="50.656" height="50.656" viewBox="0 0 50.656 50.656">
  <defs>
    <clipPath id="clip-path">
      <rect id="Rectángulo_54407" data-name="Rectángulo 54407" width="50.656" height="50.656" fill="#7f0f98"/>
    </clipPath>
  </defs>
  <g id="Grupo_178073" data-name="Grupo 178073" transform="translate(-610 -853)">
    <g id="Grupo_171471" data-name="Grupo 171471" transform="translate(1558 942.872)" opacity="0.67">
      <g id="Grupo_166183" data-name="Grupo 166183" transform="translate(-948 -89.872)" clip-path="url(#clip-path)">
        <path id="Trazado_205912" data-name="Trazado 205912" d="M136.944,125.078q0,4.88,0,9.759c0,.9-.264,1.161-1.161,1.161H121.225c-.9,0-1.16-.263-1.16-1.161q0-9.812,0-19.624c0-.9.261-1.16,1.16-1.16h14.558c.9,0,1.161.263,1.161,1.16q0,4.932,0,9.865m-15.154-4.314h13.437v-5H121.79Zm13.427,1.773H121.782v5h13.435ZM121.79,134.269h13.437v-5H121.79Z" transform="translate(-103.178 -98.011)" fill="#7f0f98"/>
        <path id="Trazado_205913" data-name="Trazado 205913" d="M251.043,11.821V13.5h1.624v1.669H244.29V13.527h1.631V11.852c-.13-.009-.28-.029-.429-.029-.967,0-1.933.01-2.9,0a2.518,2.518,0,0,1-2.543-2.547q-.022-3.348,0-6.7A2.51,2.51,0,0,1,242.624.007q5.852-.015,11.7,0a2.516,2.516,0,0,1,2.593,2.6q.016,3.3,0,6.591a2.53,2.53,0,0,1-2.635,2.617c-1.069.008-2.138,0-3.244,0m-9.308-5.1h13.5c0-1.331,0-2.628,0-3.926,0-.824-.282-1.1-1.109-1.1q-3.214,0-6.428,0c-1.651,0-3.3,0-4.953,0-.651,0-1,.294-1.006.883-.015,1.368,0,2.737,0,4.146m13.5,1.758H241.764c-.117,1.444.071,1.653,1.456,1.653h7.428c1.212,0,2.423.007,3.635,0a.856.856,0,0,0,.953-.941c.007-.226,0-.451,0-.708m-7.573,4.991h1.623V11.85h-1.623Z" transform="translate(-206.278 0)" fill="#7f0f98"/>
        <path id="Trazado_205914" data-name="Trazado 205914" d="M240.9,272.463c0-1.851,0-3.713,0-5.574a2.558,2.558,0,0,1,2.82-2.8q4.8,0,9.594,0a2.553,2.553,0,0,1,2.777,2.793c0,1.862,0,3.724,0,5.613.7.134.887.6.849,1.242-.027.455,0,.914-.009,1.37a2.5,2.5,0,0,1-2.45,2.476q-5.983.033-11.966,0a2.5,2.5,0,0,1-2.456-2.469c-.014-.474,0-.949,0-1.423,0-.77.1-.915.844-1.227m13.5.044c0-1.936,0-3.814,0-5.692,0-.747-.3-1.038-1.068-1.039q-4.848,0-9.7,0c-.755,0-1.048.3-1.05,1.055q-.005,2.635,0,5.27c0,.134.023.267.036.405Zm-12.658,1.727c0,.3-.01.543,0,.786a.833.833,0,0,0,.906.878q5.847.011,11.695,0a.81.81,0,0,0,.881-.735,6.324,6.324,0,0,0,.008-.932Z" transform="translate(-206.293 -226.943)" fill="#7f0f98"/>
        <path id="Trazado_205915" data-name="Trazado 205915" d="M11.82,255.4c.346,0,.64-.01.933,0a2.5,2.5,0,0,1,2.435,2.436q.043,3.479,0,6.959a2.456,2.456,0,0,1-2.4,2.405q-5.192.041-10.385,0a2.452,2.452,0,0,1-2.381-2.427q-.034-5.166,0-10.333a2.459,2.459,0,0,1,2.4-2.406q3.478-.047,6.958,0a2.5,2.5,0,0,1,2.438,2.433c.012.294,0,.588,0,.936m-1.685-.047c0-.141,0-.261,0-.382.008-1.023-.231-1.261-1.269-1.261-2.055,0-4.11,0-6.164,0-.693,0-1,.307-1,.993q-.007,4.9,0,9.8c0,.718.306,1.016,1.033,1.02,1.054.005,2.107,0,3.161,0h.971a7.384,7.384,0,0,1-.1-.811c-.006-2.283-.017-4.567,0-6.85a2.45,2.45,0,0,1,1.943-2.381,11.378,11.378,0,0,1,1.425-.132m-1.688,5.953c0,1.073-.005,2.145,0,3.218,0,.689.311,1,1,1q1.529.011,3.059,0c.688,0,1-.313,1-1q.008-3.218,0-6.435c0-.689-.312-1-1-1q-1.53-.011-3.059,0c-.69,0-1,.31-1,1-.007,1.073,0,2.145,0,3.218" transform="translate(0 -216.567)" fill="#7f0f98"/>
        <path id="Trazado_205916" data-name="Trazado 205916" d="M11.644,13.531c-2.145,0-4.29.024-6.434-.007A5.035,5.035,0,0,1,.349,9.336,4.965,4.965,0,0,1,3.714,3.7,2.371,2.371,0,0,0,5.228,2.492,4.986,4.986,0,0,1,13.1,1.526a.765.765,0,0,0,.771.276A4.133,4.133,0,0,1,18.6,4.653a.83.83,0,0,0,.628.644,4.205,4.205,0,0,1-1.155,8.229c-2.144.025-4.289.005-6.434.005m-.06-1.686q3.11,0,6.221,0a2.535,2.535,0,1,0,.225-5.063.856.856,0,0,1-.9-.893A2.5,2.5,0,0,0,13.56,3.642a.892.892,0,0,1-1.186-.352A3.223,3.223,0,0,0,9.027,1.766a3.237,3.237,0,0,0-2.784,2.6.926.926,0,0,1-.95.744,4.1,4.1,0,0,0-1.322.286A3.326,3.326,0,0,0,2.045,9.2,3.368,3.368,0,0,0,5.311,11.84c2.091.018,4.182,0,6.273.006" transform="translate(-0.243 -0.025)" fill="#7f0f98"/>
        <path id="Trazado_205917" data-name="Trazado 205917" d="M55.72,115.075h5.9v1.634a2.3,2.3,0,0,1-.328.045q-3.108,0-6.216,0c-.679,0-1.016-.3-1.018-.926-.009-2.476,0-4.951,0-7.47H55.72Z" transform="translate(-46.448 -93.118)" fill="#7f0f98"/>
        <path id="Trazado_205918" data-name="Trazado 205918" d="M252.257,193.77v-1.706h2.484c1.37,0,2.739,0,4.109,0,.635,0,.972.309.974.916.009,2.441,0,4.882,0,7.323a.9.9,0,0,1-.039.172h-1.62V193.77Z" transform="translate(-216.778 -165.049)" fill="#7f0f98"/>
        <path id="Trazado_205919" data-name="Trazado 205919" d="M259.834,120.273c0,1.246,0,2.47,0,3.694,0,.7.01,1.4,0,2.107a.827.827,0,0,1-.868.914c-2.194.01-4.388,0-6.583,0-.03,0-.061-.026-.115-.05v-1.606h5.869v-5.055Z" transform="translate(-216.783 -103.357)" fill="#7f0f98"/>
        <path id="Trazado_205920" data-name="Trazado 205920" d="M61.628,192.068v1.679H55.759v5.03H54.087c-.011-.116-.034-.249-.034-.383q0-2.634,0-5.267c0-.76.293-1.057,1.046-1.058,2.158,0,4.315,0,6.529,0" transform="translate(-46.449 -165.054)" fill="#7f0f98"/>
        <rect id="Rectángulo_54398" data-name="Rectángulo 54398" width="1.619" height="1.641" transform="translate(20.293 19.443)" fill="#7f0f98"/>
        <rect id="Rectángulo_54399" data-name="Rectángulo 54399" width="1.623" height="1.633" transform="translate(24.52 19.45)" fill="#7f0f98"/>
        <rect id="Rectángulo_54400" data-name="Rectángulo 54400" width="1.616" height="1.641" transform="translate(28.734 19.444)" fill="#7f0f98"/>
        <rect id="Rectángulo_54401" data-name="Rectángulo 54401" width="1.641" height="1.614" transform="translate(20.3 26.203)" fill="#7f0f98"/>
        <rect id="Rectángulo_54402" data-name="Rectángulo 54402" width="1.624" height="1.623" transform="translate(24.519 26.194)" fill="#7f0f98"/>
        <rect id="Rectángulo_54403" data-name="Rectángulo 54403" width="1.62" height="1.629" transform="translate(28.741 26.204)" fill="#7f0f98"/>
        <rect id="Rectángulo_54404" data-name="Rectángulo 54404" width="1.62" height="1.629" transform="translate(20.292 32.948)" fill="#7f0f98"/>
        <rect id="Rectángulo_54405" data-name="Rectángulo 54405" width="1.641" height="1.619" transform="translate(24.508 32.962)" fill="#7f0f98"/>
        <rect id="Rectángulo_54406" data-name="Rectángulo 54406" width="1.641" height="1.613" transform="translate(28.731 32.965)" fill="#7f0f98"/>
      </g>
    </g>
  </g>
</svg>
