<svg xmlns="http://www.w3.org/2000/svg" xmlns:xlink="http://www.w3.org/1999/xlink" width="49.173" height="54.252" viewBox="0 0 49.173 54.252">
  <defs>
    <clipPath id="clip-path">
      <rect id="Rectángulo_55810" data-name="Rectángulo 55810" width="49.173" height="54.252" fill="#7f0f98"/>
    </clipPath>
  </defs>
  <g id="Grupo_178074" data-name="Grupo 178074" transform="translate(-920 -854)">
    <g id="Grupo_171473" data-name="Grupo 171473" transform="translate(920 854)" opacity="0.67">
      <g id="Grupo_169601" data-name="Grupo 169601" clip-path="url(#clip-path)">
        <path id="Trazado_209028" data-name="Trazado 209028" d="M24.591,232.746H1.667c-1.335,0-1.675-.327-1.657-1.664A49.575,49.575,0,0,1,.16,225.29a16.752,16.752,0,0,1,10.424-13.826,16.3,16.3,0,0,1,6.74-1.337q7.238,0,14.475,0a17.069,17.069,0,0,1,17.166,14.714,51.312,51.312,0,0,1,.187,6.857,1,1,0,0,1-.91,1,4.069,4.069,0,0,1-.784.049q-11.434,0-22.868,0M2.574,224.48H46.549a1.648,1.648,0,0,0,0-.259c-1.152-6.237-7.087-11.527-13.433-11.705q-8.3-.234-16.611-.022A14.647,14.647,0,0,0,2.909,223.145c-.125.425-.217.861-.335,1.334m44.278,2.368H2.328v3.535H46.852Z" transform="translate(0 -178.494)" fill="#7f0f98"/>
        <path id="Trazado_209029" data-name="Trazado 209029" d="M86.818,0A13.618,13.618,0,1,1,72.866,13.1,13.635,13.635,0,0,1,86.818,0m-.357,24.912A11.3,11.3,0,1,0,75.183,13.686,11.28,11.28,0,0,0,86.461,24.914" transform="translate(-61.885 0)" fill="#7f0f98"/>
        <path id="Trazado_209030" data-name="Trazado 209030" d="M157.223,46.667a6.618,6.618,0,0,1,6.3,6.376,1.169,1.169,0,0,1-1.111,1.35c-.705.021-1.158-.452-1.207-1.263a4.3,4.3,0,0,0-4.085-4.167c-.9-.05-1.383-.5-1.34-1.238.041-.7.578-1.1,1.442-1.058" transform="translate(-132.327 -39.639)" fill="#7f0f98"/>
      </g>
    </g>
  </g>
</svg>
