<svg xmlns="http://www.w3.org/2000/svg" xmlns:xlink="http://www.w3.org/1999/xlink" width="186" height="186" viewBox="0 0 186 186">
  <defs>
    <clipPath id="clip-path">
      <rect id="Rectángulo_59397" data-name="Rectángulo 59397" width="79.357" height="101.024" fill="none"/>
    </clipPath>
  </defs>
  <g id="Grupo_178080" data-name="Grupo 178080" transform="translate(80 -4187.5)">
    <circle id="Elipse_5422" data-name="Elipse 5422" cx="93" cy="93" r="93" transform="translate(-80 4187.5)" fill="#e8e8e8"/>
    <g id="Grupo_178079" data-name="Grupo 178079" transform="translate(-26.978 4230.141)" clip-path="url(#clip-path)">
      <path id="Trazado_215734" data-name="Trazado 215734" d="M41.232,0c.438.119.874.246,1.314.356a10.471,10.471,0,0,1,7.3,6.079,1.211,1.211,0,0,0,1.31.867c2.006-.044,4.013-.02,6.019-.012,1.72.007,3.092.46,2.889,2.875-.082.975-.014,1.963-.014,3.1.47,0,.848-.005,1.226,0,3.122.051,6.263-.1,9.36.2A9.9,9.9,0,0,1,79.3,23.194c.035,4.506.008,9.012.008,13.519,0,18.091-.094,36.182.053,54.271A9.817,9.817,0,0,1,69.743,101c-.328.018-.658.018-.986.018q-29.11,0-58.219,0A10.807,10.807,0,0,1,2.5,97.894,8.188,8.188,0,0,1,.01,91.96Q0,57.572.014,23.183a10.139,10.139,0,0,1,10.225-9.91c2.6-.047,5.2-.009,7.8-.01h1.219c0-1.251-.007-2.425,0-3.6.012-1.568.674-2.3,2.263-2.344,2.17-.057,4.342,0,6.512-.056a1.3,1.3,0,0,0,.994-.509A10.95,10.95,0,0,1,37.63.151c.088-.014.165-.1.247-.15ZM60.083,18.074c0,1.887.012,3.69,0,5.492a2.6,2.6,0,0,1-2.875,2.873q-17.612.01-35.223,0a2.5,2.5,0,0,1-2.756-2.754c-.023-1.578-.04-3.158.008-4.735.023-.749-.246-.959-.967-.949-2.532.034-5.065,0-7.6.015-3.73.018-5.941,2.247-5.942,5.974q0,26.442,0,52.884c0,4.9.009,9.8,0,14.7a3.913,3.913,0,0,0,2.359,3.889,9.347,9.347,0,0,0,3.6.787q28.958.071,57.916.033c.23,0,.461.005.691,0,3.479-.14,5.287-2.012,5.287-5.474q0-33.448,0-66.895c0-3.6-2.231-5.864-5.825-5.893-2.532-.021-5.065-.006-7.6,0-.32,0-.639.035-1.072.06m-4.911-6c-2.187,0-4.255.007-6.322,0a2.7,2.7,0,0,1-2.881-2.181c-.082-.284-.144-.575-.242-.853A6.542,6.542,0,0,0,36.3,5.426a6.859,6.859,0,0,0-3.331,4.452,2.554,2.554,0,0,1-2.825,2.2c-1.645.008-3.289,0-4.934,0-.348,0-.7.034-1.126.056,0,2.83.038,5.556-.021,8.28-.02.932.227,1.233,1.2,1.23,9.6-.034,19.209-.02,28.814-.024.352,0,.7-.044,1.1-.071Z" transform="translate(0 -0.001)"/>
      <path id="Trazado_215735" data-name="Trazado 215735" d="M129.762,254.23q6.508,0,13.016.006a5.358,5.358,0,0,1,1.363.145,2.34,2.34,0,0,1-.237,4.551,6.907,6.907,0,0,1-1.177.084q-13.066.007-26.131,0a7.487,7.487,0,0,1-1.178-.077,2.343,2.343,0,0,1-.233-4.573,5.656,5.656,0,0,1,1.365-.131q6.607-.014,13.213-.006" transform="translate(-78.556 -176.025)"/>
      <path id="Trazado_215736" data-name="Trazado 215736" d="M129.617,133.876c-4.5,0-9.005.008-13.508-.006a2.347,2.347,0,0,1-2.641-2.085,2.307,2.307,0,0,1,1.9-2.591,6.042,6.042,0,0,1,1.177-.072q13.114-.005,26.227,0a5.252,5.252,0,0,1,1.457.165,2.337,2.337,0,0,1-.414,4.536,9.207,9.207,0,0,1-1.18.048q-6.508,0-13.015,0" transform="translate(-78.555 -89.4)"/>
      <path id="Trazado_215737" data-name="Trazado 215737" d="M129.71,191.756c4.437,0,8.875-.033,13.311.034a3.865,3.865,0,0,1,2.131.749,1.986,1.986,0,0,1,.531,2.344,2.317,2.317,0,0,1-1.855,1.58,2.984,2.984,0,0,1-.589.035q-13.607,0-27.214,0a2.383,2.383,0,0,1-2.561-1.971,2.307,2.307,0,0,1,2.344-2.752c2.267-.04,4.535-.015,6.8-.017q3.549,0,7.1,0" transform="translate(-78.539 -132.763)"/>
      <path id="Trazado_215738" data-name="Trazado 215738" d="M46.573,243.016c2.385-2.27,4.777-4.615,7.259-6.858a3.757,3.757,0,0,1,2.16-.9,2.331,2.331,0,0,1,1.463,4.006c-3.135,2.995-6.271,5.987-9.441,8.943a2.208,2.208,0,0,1-3.33-.133Q42.321,245.7,40,243.282a2.485,2.485,0,0,1-.168-3.609c.955-.935,2.41-.771,3.577.365,1.007.981,2.047,1.931,3.161,2.978" transform="translate(-27.097 -162.887)"/>
      <path id="Trazado_215739" data-name="Trazado 215739" d="M46.62,180.277c2.36-2.251,4.8-4.592,7.259-6.915A2.422,2.422,0,0,1,57.173,173a2.291,2.291,0,0,1,.121,3.728c-2.583,2.479-5.189,4.934-7.787,7.4-.5.475-.985.969-1.512,1.413a2.235,2.235,0,0,1-3.27-.1Q42.281,183,39.906,180.5a2.45,2.45,0,0,1-.056-3.535,2.389,2.389,0,0,1,3.435.26c1.072,1.01,2.171,1.991,3.334,3.055" transform="translate(-27.089 -119.441)"/>
      <path id="Trazado_215740" data-name="Trazado 215740" d="M46.579,117.7l6.09-5.791c.476-.453.931-.93,1.43-1.355a2.355,2.355,0,0,1,3.431.209,2.2,2.2,0,0,1-.141,3.253q-4.654,4.47-9.366,8.879a2.19,2.19,0,0,1-3.259,0q-2.513-2.5-4.953-5.077a2.358,2.358,0,0,1-.385-2.908,2.014,2.014,0,0,1,2.326-1.073,3.957,3.957,0,0,1,1.578.9c1.076.912,2.091,1.9,3.249,2.96" transform="translate(-27.066 -76.102)"/>
    </g>
  </g>
</svg>
