<svg xmlns="http://www.w3.org/2000/svg" xmlns:xlink="http://www.w3.org/1999/xlink" width="95" height="95" viewBox="0 0 95 95">
  <defs>
    <clipPath id="clip-path">
      <rect id="Rectángulo_56682" data-name="Rectángulo 56682" width="59.142" height="59.263" fill="none"/>
    </clipPath>
  </defs>
  <g id="Grupo_178058" data-name="Grupo 178058" transform="translate(-753 -5049)">
    <circle id="Elipse_5408" data-name="Elipse 5408" cx="47.5" cy="47.5" r="47.5" transform="translate(753 5049)" fill="#e8e8e8"/>
    <g id="Grupo_171383" data-name="Grupo 171383" transform="translate(771 5067)">
      <g id="Grupo_171383-2" data-name="Grupo 171383" clip-path="url(#clip-path)">
        <path id="Trazado_210765" data-name="Trazado 210765" d="M24.953,0a7.062,7.062,0,0,1,3.46,2.26C31.33,5.227,34.3,8.147,37.22,11.109a4.59,4.59,0,0,1-1.391,7.57A6.671,6.671,0,0,1,33.412,19a1.24,1.24,0,0,0-1.053.376,10.839,10.839,0,0,1-.984.855,3.624,3.624,0,0,1,1.116,5.648q3.781,3.308,7.565,6.618,5.177,4.525,10.357,9.049c2.131,1.863,4.273,3.713,6.386,5.6a6.717,6.717,0,0,1,2.344,5.212,7,7,0,0,1-5.679,6.789c-.148.027-.292.078-.438.118H51.292c-.029-.024-.055-.065-.087-.07A7.423,7.423,0,0,1,46.6,56.47q-7.2-8.334-14.432-16.632Q29,36.2,25.835,32.558a3.621,3.621,0,0,1-5.648-1.127,8.524,8.524,0,0,1-.807.951,1.141,1.141,0,0,0-.392,1.157,4.348,4.348,0,0,1-1.322,3.84,4.6,4.6,0,0,1-6.62-.128C8.122,34.342,5.231,31.4,2.3,28.506A7.174,7.174,0,0,1,0,25V23.613a.885.885,0,0,0,.076-.155c.769-2.8,2.654-4.076,5.486-3.726a.747.747,0,0,0,.53-.216Q12.8,12.821,19.475,6.1a.85.85,0,0,0,.191-.639,4.63,4.63,0,0,1,2.4-4.905A12.207,12.207,0,0,1,23.567,0ZM8.028,20.96,17.69,30.64,30.581,17.728,20.913,8.05,8.028,20.96M27.5,30.952,39.824,45.13l5.226-5.2L30.881,27.551l-3.376,3.4m17,19.57c1.426,1.637,2.823,3.3,4.289,4.909a4.616,4.616,0,1,0,6.438-6.6c-1.262-1.129-2.547-2.231-3.822-3.346-.346-.3-.693-.6-1.008-.877l-5.9,5.909M24.325,2.174l-.076.143a2.275,2.275,0,0,0-2.14,1.4,2.235,2.235,0,0,0,.5,2.559q4.866,4.894,9.75,9.769a2.305,2.305,0,1,0,3.285-3.234q-4.879-4.922-9.8-9.8a6.377,6.377,0,0,0-1.514-.837M4.615,21.968a2.2,2.2,0,0,0-2.091,1.365,2.159,2.159,0,0,0,.46,2.557Q7.86,30.814,12.772,35.7a2.306,2.306,0,1,0,3.249-3.272q-4.861-4.9-9.747-9.772a2.214,2.214,0,0,0-1.659-.69m17.654,7.817a1.184,1.184,0,0,0,.658,1.254,1.135,1.135,0,0,0,1.368-.289q3.187-3.19,6.368-6.384a1.16,1.16,0,1,0-1.626-1.637q-3.193,3.183-6.363,6.389a2.738,2.738,0,0,0-.4.668M46.949,41.6,41.5,47.056l1.325,1.516,5.653-5.646L46.949,41.6"/>
        <path id="Trazado_210766" data-name="Trazado 210766" d="M0,304.725c.205-.6.365-1.213.626-1.784a5.939,5.939,0,0,1,2.387-2.523A10.993,10.993,0,0,1,2.444,299a4.014,4.014,0,0,1,3.89-5.031q9.817-.027,19.633,0a4.036,4.036,0,0,1,3.523,6.061c-.064.116-.124.233-.192.361.337.246.678.464.984.723A6.146,6.146,0,0,1,32.3,306.85c-.038.357-.5.668-.762,1H0v-3.125m2.335.772H30.011a3.421,3.421,0,0,0-3.443-3.43c-3.619-.015-7.239,0-10.859,0-3.312,0-6.623-.011-9.935,0a3.421,3.421,0,0,0-3.44,3.43m13.788-5.749q4.846,0,9.693,0a1.756,1.756,0,0,0,1.762-1.062,1.729,1.729,0,0,0-1.691-2.41c-3.519-.008-7.039,0-10.558,0q-4.414,0-8.827,0a1.74,1.74,0,1,0-.013,3.471c3.212.01,6.423,0,9.635,0" transform="translate(0 -248.587)"/>
        <path id="Trazado_210767" data-name="Trazado 210767" d="M102.772,74.913c.286.219.71.393.857.7a2.228,2.228,0,0,1,.008,1.142c-.018.144-.2.276-.32.4q-2.284,2.294-4.57,4.586a1.242,1.242,0,0,1-1.345.428,1.155,1.155,0,0,1-.346-2.008c1.556-1.578,3.128-3.14,4.693-4.708a.909.909,0,0,1,.218-.188c.219-.107.446-.2.8-.35" transform="translate(-81.711 -63.352)"/>
        <path id="Trazado_210768" data-name="Trazado 210768" d="M75.483,129.743a1.143,1.143,0,0,1,1.131-1.147,1.172,1.172,0,0,1,1.164,1.127,1.153,1.153,0,0,1-1.174,1.166,1.121,1.121,0,0,1-1.122-1.146" transform="translate(-63.834 -108.75)"/>
      </g>
    </g>
  </g>
</svg>
