<svg xmlns="http://www.w3.org/2000/svg" width="107.629" height="29.33" viewBox="0 0 107.629 29.33">
  <g id="Grupo_165814" data-name="Grupo 165814" transform="translate(-1303 -1599)">
    <path id="Trazado_185201" data-name="Trazado 185201" d="M92.851,14.039c-4.233,0-6.323-3.381-8-6.1-1.7-2.75-2.852-4.435-5.02-4.435s-3.317,1.685-5.014,4.433c-1.679,2.716-3.768,6.1-8,6.1s-6.323-3.381-8-6.1c-1.7-2.748-2.85-4.433-5.016-4.433s-3.315,1.685-5.014,4.433c-1.679,2.716-3.768,6.1-8,6.1s-6.321-3.383-8-6.1c-1.7-2.748-2.848-4.433-5.012-4.433s-3.313,1.685-5.012,4.433c-1.679,2.716-3.766,6.1-8,6.1s-6.319-3.381-8-6.1C5.07,5.193,3.92,3.509,1.756,3.509A1.754,1.754,0,1,1,1.756,0c4.229,0,6.319,3.381,8,6.1,1.7,2.746,2.848,4.431,5.012,4.431S18.079,8.844,19.778,6.1c1.679-2.716,3.768-6.1,8-6.1s6.319,3.381,8,6.1c1.7,2.746,2.848,4.431,5.014,4.431S44.1,8.844,45.8,6.1c1.679-2.716,3.768-6.1,8-6.1s6.321,3.381,8,6.1c1.7,2.746,2.848,4.431,5.016,4.431S70.131,8.844,71.83,6.1c1.677-2.716,3.768-6.1,8-6.1s6.325,3.381,8,6.1c1.7,2.746,2.852,4.431,5.018,4.431S96.17,8.844,97.871,6.1c1.679-2.716,3.77-6.1,8-6.1a1.754,1.754,0,1,1,0,3.509c-2.168,0-3.319,1.685-5.02,4.433C99.176,10.658,97.086,14.039,92.851,14.039Z" transform="translate(1410.629 1628.33) rotate(180)" fill="#7f0f98"/>
    <path id="Trazado_185202" data-name="Trazado 185202" d="M92.851,14.037c-4.233,0-6.323-3.379-8-6.1-1.7-2.748-2.852-4.433-5.02-4.433s-3.317,1.685-5.014,4.433c-1.679,2.716-3.768,6.1-8,6.1s-6.323-3.379-8-6.1c-1.7-2.748-2.85-4.433-5.016-4.433s-3.315,1.685-5.014,4.433c-1.679,2.716-3.768,6.1-8,6.1s-6.321-3.379-8-6.1c-1.7-2.748-2.848-4.433-5.012-4.433s-3.313,1.685-5.012,4.433c-1.679,2.716-3.766,6.1-8,6.1s-6.319-3.379-8-6.1C5.07,5.193,3.92,3.509,1.756,3.509A1.754,1.754,0,1,1,1.756,0c4.229,0,6.319,3.381,8,6.1,1.7,2.746,2.848,4.431,5.012,4.431S18.079,8.844,19.778,6.1c1.679-2.716,3.768-6.1,8-6.1s6.319,3.381,8,6.1c1.7,2.748,2.848,4.433,5.014,4.433S44.1,8.844,45.8,6.1c1.679-2.714,3.768-6.1,8-6.1s6.321,3.381,8,6.1c1.7,2.748,2.848,4.433,5.016,4.433S70.131,8.844,71.83,6.1c1.677-2.714,3.768-6.1,8-6.1s6.325,3.381,8,6.1c1.7,2.748,2.852,4.433,5.018,4.433S96.17,8.844,97.871,6.1c1.679-2.714,3.77-6.1,8-6.1a1.754,1.754,0,1,1,0,3.509c-2.168,0-3.319,1.685-5.02,4.433C99.176,10.658,97.086,14.037,92.851,14.037Z" transform="translate(1410.629 1613.037) rotate(180)" fill="#7f0f98"/>
  </g>
</svg>
