<svg xmlns="http://www.w3.org/2000/svg" xmlns:xlink="http://www.w3.org/1999/xlink" width="95" height="95" viewBox="0 0 95 95">
  <defs>
    <clipPath id="clip-path">
      <rect id="Rectángulo_54124" data-name="Rectángulo 54124" width="67.857" height="57.438" fill="none"/>
    </clipPath>
  </defs>
  <g id="Grupo_178059" data-name="Grupo 178059" transform="translate(-14 -438)">
    <circle id="Elipse_5422" data-name="Elipse 5422" cx="47.5" cy="47.5" r="47.5" transform="translate(14 438)" fill="#e8e8e8"/>
    <g id="Grupo_178046" data-name="Grupo 178046" transform="translate(-276)">
      <g id="Grupo_165746" data-name="Grupo 165746" transform="translate(304 457)" clip-path="url(#clip-path)">
        <path id="Trazado_205580" data-name="Trazado 205580" d="M20.893,54.821V49.6H1.9C.385,49.6,0,49.226,0,47.748q0-9.911,0-19.822c0-1.433.394-1.819,1.85-1.819q9.746,0,19.491-.013a6.041,6.041,0,0,0,1.256-.269L22,23.5H1.882C.38,23.495,0,23.118,0,21.624Q0,11.713,0,1.8C0,.408.4,0,1.788,0Q16.3,0,30.821,0c1.393,0,1.8.405,1.8,1.787q0,4.65,0,9.3v.922l2.61-.331v-.86q0-4.568,0-9.136c0-1.232.442-1.68,1.66-1.681Q51.533,0,66.173,0c1.23,0,1.681.444,1.682,1.66q.005,10.074,0,20.149c0,1.256-.446,1.683-1.743,1.683q-9.623,0-19.247,0h-.916l-.885,1.948a2.248,2.248,0,0,0,1.769.677c6.361-.025,12.723-.015,19.084-.014,1.572,0,1.939.358,1.939,1.9q0,9.87,0,19.741c0,1.481-.385,1.858-1.9,1.858H47.019v5.221H59.453a4.084,4.084,0,0,1,.732.02,1.3,1.3,0,0,1,0,2.568,4.528,4.528,0,0,1-.814.021H8.239c-1.1-.007-1.707-.469-1.708-1.3s.6-1.3,1.7-1.3q5.872,0,11.744,0Zm13.1-8.459c.9-1.434,1.814-2.718,2.548-4.1a2.972,2.972,0,0,1,3.51-1.816,9.132,9.132,0,0,1,6.863,5.887.741.741,0,0,0,.812.594q8.359-.024,16.719,0c.571,0,.753-.183.751-.751q-.028-8.28-.009-16.56c0-.542-.2-.706-.717-.705q-8.278.017-16.556,0a.733.733,0,0,0-.842.656,3.626,3.626,0,0,1-2.455,2.707,1.316,1.316,0,0,0-.684.681c-1.493,3.782-4.015,6.321-8.183,6.952a11.153,11.153,0,0,1-5.232-.307,9.792,9.792,0,0,1-6.373-6.392,1.319,1.319,0,0,0-.91-1,3.291,3.291,0,0,1-2.32-2.515c-.153-.683-.44-.782-1.038-.779q-8.115.028-16.229,0c-.718,0-.988.153-.983.943q.054,8.076,0,16.152c0,.762.223.97.966.967q8.237-.039,16.474,0a1.035,1.035,0,0,0,1.126-.777,9.21,9.21,0,0,1,6.988-5.747,2.971,2.971,0,0,1,3.095,1.59c.8,1.44,1.735,2.811,2.679,4.321M21.944,20.788c.028-.231.048-.364.06-.5.305-3.386,2.041-5.02,5.373-5.549.941-.149,1.751-1.16,2.6-1.809.1-.074.031-.364.031-.554q0-2.691,0-5.382V2.675H2.684V20.788ZM65.238,2.677H37.851c0,3.1-.008,6.138.018,9.178a.84.84,0,0,0,.409.583,6.679,6.679,0,0,1,2.54,2.354c.111.175.406.234.615.347.105-.213.292-.423.3-.64.036-.841.007-1.684.017-2.526.012-.956.516-1.534,1.314-1.531s1.3.581,1.306,1.54c.011,1.2,0,2.391.009,3.587a1.221,1.221,0,0,0,.13.695,7.84,7.84,0,0,1,1.7,4.551H65.238V2.677Zm-34.826,18.4a14.919,14.919,0,0,1-4.4,6.21,2.716,2.716,0,0,1-1.39.525c-.624.061-1.1.205-1.109.9-.011.719.459.963,1.127.983,1.16.033,1.525.359,1.767,1.5A7.725,7.725,0,0,0,41.49,31.5c.289-1.21.754-1.9,2.1-1.874.285.005.756-.541.813-.888.043-.257-.455-.874-.692-.865a3.766,3.766,0,0,1-3.024-1.663,5.4,5.4,0,0,0-3.835-1.857,12.564,12.564,0,0,1-6.438-3.284M34,54.76c3.1,0,6.2-.028,9.3.019.8.012,1.094-.16,1.059-1.02-.071-1.737-.081-3.482,0-5.219a3.891,3.891,0,0,0-1.6-3.47,23.47,23.47,0,0,0-2.634-1.6c-.591-.336-1.015-.2-1.4.428-1.059,1.741-2.185,3.44-3.292,5.151-.91,1.408-1.964,1.4-2.88-.026q-1.675-2.605-3.334-5.221c-.235-.372-.476-.726-.959-.4-1.233.825-2.5,1.613-3.656,2.535a2.775,2.775,0,0,0-.931,2.341c.04,1.9.033,3.807,0,5.71-.011.609.182.79.791.784,3.18-.028,6.361-.013,9.542-.013" transform="translate(0 0)"/>
        <path id="Trazado_205581" data-name="Trazado 205581" d="M30.215,156.931a6.584,6.584,0,0,1-6.589-5.691,6.682,6.682,0,0,1,5.433-7.451,5.633,5.633,0,0,1,1.3-.038,1.276,1.276,0,0,1,1.219,1.281,1.328,1.328,0,0,1-1.055,1.437c-.4.081-.807.1-1.206.185a3.863,3.863,0,0,0-2.924,3.835,3.789,3.789,0,0,0,3.633,3.607,3.724,3.724,0,0,0,3.869-2.934c.06-.32.106-.642.157-.964a1.378,1.378,0,0,1,2.748.207,6.5,6.5,0,0,1-6.584,6.526" transform="translate(-18.461 -112.483)"/>
        <path id="Trazado_205582" data-name="Trazado 205582" d="M222.871,165.4a4.618,4.618,0,0,1-1.121-.923,1.3,1.3,0,0,1,.273-1.641c.834-.857,1.685-1.7,2.53-2.544.807-.808,1.608-1.621,2.423-2.42.75-.735,1.237-.9,2.1-.322a2.319,2.319,0,0,0,3.238-.262,9.856,9.856,0,0,1,1.622-1.087,1.373,1.373,0,1,1,1.51,2.293c-1.246.871-2.523,1.7-3.793,2.535a1.8,1.8,0,0,1-1.923-.078c-1.391-.685-1.053-.792-2.237.381-1.1,1.09-2.177,2.206-3.3,3.27a7.721,7.721,0,0,1-1.317.8" transform="translate(-173.396 -122.052)"/>
        <path id="Trazado_205583" data-name="Trazado 205583" d="M69,152.486c-.651,0-1.3.018-1.953,0a1.291,1.291,0,0,1-1.334-1.412,1.277,1.277,0,0,1,1.338-1.325q1.993-.032,3.987,0a1.279,1.279,0,0,1,1.335,1.329,1.3,1.3,0,0,1-1.339,1.408c-.677.023-1.356,0-2.034,0" transform="translate(-51.424 -117.176)"/>
        <path id="Trazado_205584" data-name="Trazado 205584" d="M33.486,47.981q3.708,0,7.417,0c1.106,0,1.706.456,1.72,1.291s-.6,1.333-1.678,1.333q-7.5,0-15,.006c-.687,0-1.328-.167-1.474-.869a1.883,1.883,0,0,1,.338-1.378A1.68,1.68,0,0,1,25.988,48c2.5-.032,5-.016,7.5-.016" transform="translate(-19.133 -37.546)"/>
        <path id="Trazado_205585" data-name="Trazado 205585" d="M31.2,23.974c1.847,0,3.694,0,5.541,0,1.026,0,1.618.49,1.62,1.307S37.767,26.6,36.744,26.6q-5.582.007-11.164,0c-1,0-1.6-.529-1.578-1.349.023-.791.6-1.268,1.572-1.273,1.874-.008,3.749,0,5.623,0" transform="translate(-18.783 -18.76)"/>
        <path id="Trazado_205586" data-name="Trazado 205586" d="M28.584,71.995c1.032,0,2.064-.013,3.1,0a1.316,1.316,0,1,1,.01,2.617q-3.136.022-6.272,0A1.311,1.311,0,1,1,25.407,72c1.059-.02,2.118,0,3.177-.005" transform="translate(-18.782 -56.338)"/>
        <path id="Trazado_205587" data-name="Trazado 205587" d="M218.659,25.183c0,1.848,0,3.7,0,5.543,0,1.033-.478,1.625-1.292,1.638s-1.329-.585-1.33-1.6q-.008-5.584,0-11.167c0-1.013.51-1.609,1.331-1.6s1.288.6,1.291,1.638c.005,1.848,0,3.7,0,5.543" transform="translate(-169.064 -14.089)"/>
        <path id="Trazado_205588" data-name="Trazado 205588" d="M266.675,30.534c0,1.63,0,3.26,0,4.89,0,1.034-.477,1.625-1.291,1.639s-1.329-.585-1.331-1.6q-.008-4.931,0-9.862c0-1.014.509-1.61,1.329-1.6s1.289.6,1.292,1.636c.006,1.63,0,3.26,0,4.89" transform="translate(-206.64 -18.788)"/>
        <path id="Trazado_205589" data-name="Trazado 205589" d="M242.66,41.237c0,1.223.007,2.445,0,3.667-.008.961-.5,1.543-1.291,1.555s-1.324-.572-1.328-1.516q-.015-3.708,0-7.416c0-.947.531-1.527,1.33-1.513s1.282.593,1.289,1.556c.01,1.222,0,2.445,0,3.667" transform="translate(-187.845 -28.184)"/>
      </g>
    </g>
  </g>
</svg>
