<svg xmlns="http://www.w3.org/2000/svg" width="95" height="95" viewBox="0 0 95 95">
  <g id="Grupo_178048" data-name="Grupo 178048" transform="translate(-811 -438)">
    <circle id="Elipse_5383" data-name="Elipse 5383" cx="47.5" cy="47.5" r="47.5" transform="translate(811 438)" fill="#e8e8e8"/>
    <g id="Grupo_165749" data-name="Grupo 165749" transform="translate(828.505 455.403)">
      <g id="Grupo_178044" data-name="Grupo 178044">
        <path id="Trazado_205590" data-name="Trazado 205590" d="M47.063,60.868H13.788V58.9c1.174,0,2.281.011,3.387-.012.168,0,.474-.16.477-.252.032-1.2.022-2.4.022-3.664H5.308a5.335,5.335,0,0,1-2.533-.505A4.938,4.938,0,0,1,0,49.726q0-12.36,0-24.72c0-2.02-.006-4.041,0-6.061a4.914,4.914,0,0,1,5.128-5.179c1.406-.017,2.813.015,4.218-.017a1.667,1.667,0,0,0,.911-.3,16.4,16.4,0,0,1,15.916-2.617.638.638,0,0,0,.9-.309c2.134-3.357,4.3-6.7,6.434-10.051A.878.878,0,0,1,34.36,0q8.526.022,17.051.011c.19,0,.38.02.58.031V1.978h-.731c-5.248,0-10.5.006-15.744-.01a1.024,1.024,0,0,0-.993.549c-1.855,2.925-3.738,5.832-5.611,8.745-.115.179-.217.367-.322.545.745.517,1.479.984,2.164,1.517a2.049,2.049,0,0,0,1.356.448c7.8-.015,15.606,0,23.408-.015a5.3,5.3,0,0,1,3.672,1.249,5.5,5.5,0,0,1,1.658,3.072V50.645a10.493,10.493,0,0,1-.5,1.511,4.895,4.895,0,0,1-4.761,2.817c-3.9-.011-7.8,0-11.7,0-.228,0-.457.02-.72.032,0,1.1.041,2.133-.015,3.158-.034.618.164.778.759.75,1.041-.048,2.085-.013,3.147-.013ZM33.391,37.3h5.9v5.822h1.924V33.412h5.931v9.7h1.934V27.506h5.933V43.2H56.9v1.963c-.18.01-.316.024-.452.024q-12.536,0-25.072-.016a1.1,1.1,0,0,1-.757-.4c-.833-1.1-1.62-2.238-2.393-3.321-7.169,3.064-13.633,2.193-19.388-3.1C2.414,31.115,2.383,23.566,7.7,15.726c-.8,0-1.61,0-2.421,0A2.964,2.964,0,0,0,2,19Q2,31.746,2,44.493c0,.208.026.416.041.658h.713c2.773,0,5.551.113,8.316-.037a7.183,7.183,0,0,1,5.467,1.666,1.59,1.59,0,0,0,.978.3q20.319.022,40.638.012h.664c.013-.274.03-.468.03-.662,0-9.131-.022-18.263.018-27.394a3.114,3.114,0,0,0-3.322-3.319c-7.189.031-14.378.012-21.566.014-.168,0-.335.017-.582.03l.39.538c4.083,5.616,4.669,11.573,1.656,17.832a30.912,30.912,0,0,1-2.034,3.2L30,40.48a17.353,17.353,0,0,1,1.311,1.877c.47.884,1.162.915,2.079.727ZM58.768,49.133h-.793c-12.874,0-25.749-.04-38.623.04a7.61,7.61,0,0,1-5.466-1.67,1.635,1.635,0,0,0-.981-.3c-1.425-.032-2.852-.014-4.278-.014-2,0-4-.007-6,.011-.194,0-.554.152-.555.235a18.354,18.354,0,0,0,.094,3.369c.254,1.41,1.455,2.168,3.065,2.17q6.833.009,13.667,0h.732c.014.261.031.453.033.646.019,1.525.045,3.049.044,4.574,0,.444.12.624.606.623q10.1-.022,20.2,0c.517,0,.645-.192.63-.661-.026-.772-.005-1.545-.007-2.318s0-.777-.8-.777H22.457a1.436,1.436,0,0,1-.529-.018c-.164-.07-.39-.236-.4-.377-.047-.544-.019-1.094-.019-1.693H55.494a3.4,3.4,0,0,0,2.232-.649,3.221,3.221,0,0,0,1.043-3.2m-39.2-37.2a14.6,14.6,0,0,0,0,29.132Zm14.221,8.134-11.15,6.442,11.155,6.439a14.66,14.66,0,0,0,0-12.881M21.676,11.794V24.728L32.77,18.319a14.716,14.716,0,0,0-5.278-4.754l-1.156,1.728-1.662-1.07.96-1.6-3.958-.825M21.7,28.351V41.095a13.44,13.44,0,0,0,5.2-1.4l-1.271-1.836L27.3,36.671l1.454,1.963a11.616,11.616,0,0,0,3.886-3.966L21.7,28.351m29.361,14.8h1.885V29.517H51.063ZM45.1,35.381H43.217v7.763H45.1Zm-7.844,3.94H35.377v3.836h1.883Z" transform="translate(0 0)"/>
        <rect id="Rectángulo_54125" data-name="Rectángulo 54125" width="15.619" height="1.885" transform="translate(36.36 3.979)"/>
        <rect id="Rectángulo_54126" data-name="Rectángulo 54126" width="11.708" height="1.914" transform="translate(36.352 7.881)"/>
        <rect id="Rectángulo_54127" data-name="Rectángulo 54127" width="1.92" height="1.894" transform="translate(50.075 7.892)"/>
        <path id="Trazado_205591" data-name="Trazado 205591" d="M31.6,399.114c.624,0,1.175-.022,1.721.017.123.009.237.222.341.354.029.037.006.115.007.175.042,1.6-.115,1.742-1.71,1.5a.558.558,0,0,1-.343-.4c-.043-.509-.016-1.024-.016-1.639" transform="translate(-27.705 -350.056)"/>
        <path id="Trazado_205592" data-name="Trazado 205592" d="M63.819,401.122v-1.974c.6,0,1.163-.014,1.728.013.105.005.211.168.3.273.03.036.008.115.012.174.092,1.678-.158,1.872-2.039,1.515" transform="translate(-55.975 -350.088)"/>
        <path id="Trazado_205593" data-name="Trazado 205593" d="M95.222,399.16c.205-.01.38-.024.556-.025,1.6-.015,1.681.077,1.44,1.689-.021.137-.224.249-.349.366-.022.02-.077,0-.116.007-1.658.109-1.8-.066-1.53-2.037" transform="translate(-83.426 -350.078)"/>
        <path id="Trazado_205594" data-name="Trazado 205594" d="M87.8,177.535H79.916v-1.908c.183-.019.351-.05.519-.05,2.258,0,4.516.01,6.774-.012.469,0,.639.136.6.605-.035.43-.007.864-.007,1.365" transform="translate(-70.094 -153.987)"/>
        <rect id="Rectángulo_54128" data-name="Rectángulo 54128" width="7.859" height="1.903" transform="translate(9.825 25.549)"/>
        <rect id="Rectángulo_54129" data-name="Rectángulo 54129" width="7.841" height="1.925" transform="translate(9.827 29.475)"/>
        <g id="Grupo_178045" data-name="Grupo 178045">
          <rect id="Rectángulo_54130" data-name="Rectángulo 54130" width="60.848" height="60.868" fill="none"/>
        </g>
      </g>
    </g>
  </g>
</svg>
