<svg xmlns="http://www.w3.org/2000/svg" xmlns:xlink="http://www.w3.org/1999/xlink" width="95" height="95" viewBox="0 0 95 95">
  <defs>
    <clipPath id="clip-path">
      <rect id="Rectángulo_54132" data-name="Rectángulo 54132" width="46.361" height="58.896" fill="none"/>
    </clipPath>
  </defs>
  <g id="Grupo_178059" data-name="Grupo 178059" transform="translate(-1480 -643)">
    <circle id="Elipse_5422" data-name="Elipse 5422" cx="47.5" cy="47.5" r="47.5" transform="translate(1480 643)" fill="#e8e8e8"/>
    <g id="Grupo_178058" data-name="Grupo 178058">
      <g id="Grupo_178057" data-name="Grupo 178057" transform="translate(669)">
        <g id="Grupo_165753" data-name="Grupo 165753" transform="translate(835 661)">
          <g id="Grupo_165752" data-name="Grupo 165752" clip-path="url(#clip-path)">
            <path id="Trazado_205605" data-name="Trazado 205605" d="M205.669,14.527a7.853,7.853,0,0,1-3.586-7.095,7.514,7.514,0,0,1,2.43-5.263,7.872,7.872,0,0,1,11.186.34,8,8,0,0,1-1.584,12.115c.71,0,1.315,0,1.92,0a5.822,5.822,0,0,1,5.97,5.953q.009,6.649,0,13.3a5.761,5.761,0,0,1-3.882,5.66c-.394.15-.373.395-.373.692q0,5.218,0,10.436,0,3.086,0,6.172c0,1.4-.625,2.05-2,2.053q-5.835.009-11.67,0a1.742,1.742,0,0,1-1.965-1.973q0-8.276.01-16.552a.781.781,0,0,0-.577-.894,5.773,5.773,0,0,1-3.69-5.573c-.018-4.04-.005-8.079,0-12.119a18.7,18.7,0,0,1,.067-2.016,5.775,5.775,0,0,1,5.661-5.135c.673-.011,1.345-.013,2.018-.021.011,0,.021-.024.063-.077m-4.385,12.72c0,2.225-.007,4.451,0,6.676a2.4,2.4,0,0,0,2.474,2.553q6.171.041,12.342,0a2.407,2.407,0,0,0,2.474-2.552q.007-6.676,0-13.353a2.434,2.434,0,0,0-2.49-2.541.844.844,0,0,0-.825.426c-1.239,1.848-2.5,3.679-3.758,5.515a1.747,1.747,0,0,1-3.139,0c-1.26-1.834-2.521-3.666-3.758-5.515a.845.845,0,0,0-.823-.425,2.438,2.438,0,0,0-2.5,2.538c-.011,2.225,0,4.451,0,6.676m4.295,28.18h8.7V39.934h-8.7Zm4.351-43.113a4.448,4.448,0,1,0-4.445-4.46,4.464,4.464,0,0,0,4.445,4.46m1.434,5.777H208.5l1.433,2.094,1.429-2.094" transform="translate(-175.647 0)"/>
            <path id="Trazado_205606" data-name="Trazado 205606" d="M3.45,3.473v3.48H5.29c.561,0,1.122-.01,1.683,0a1.716,1.716,0,1,1-.037,3.427c-1.139.011-2.279,0-3.464,0v3.451c.2.01.414.029.628.03,1.758.006,3.516-.013,5.273.022a1.628,1.628,0,0,1,1.6,1.843,1.657,1.657,0,0,1-1.747,1.541c-1.7.013-3.4,0-5.105,0H3.47v3.456c.188.01.384.03.58.03.972,0,1.945-.007,2.917,0A1.713,1.713,0,1,1,7,24.192c-1.158.023-2.316.005-3.522.005v3.448c.2.01.412.03.627.03,1.739,0,3.478-.01,5.217.012a1.7,1.7,0,0,1,.562,3.284,2.616,2.616,0,0,1-.825.108c-1.646.009-3.291,0-4.937,0H3.469v3.487H4.835c.692,0,1.384-.006,2.076,0A1.718,1.718,0,1,1,6.941,38c-1.139.013-2.279,0-3.469,0v3.459c.22.01.42.027.621.028,1.664,0,3.329,0,4.993,0a1.71,1.71,0,1,1-.023,3.4q-2.469,0-4.937,0H3.472v3.452c.182.011.378.031.574.032.972,0,1.945-.012,2.917.005a1.715,1.715,0,1,1-.018,3.426c-1.14.009-2.279,0-3.469,0V55.5c.2.009.4.026.6.026,1.683,0,3.366,0,5.049,0a1.711,1.711,0,1,1,.015,3.41q-3.619.024-7.237,0A1.717,1.717,0,0,1,.007,57.009q0-15.96,0-31.921Q.008,15.214,0,5.34c0-1.1,0-2.206,0-3.309A1.734,1.734,0,0,1,1.968.063C4.38.062,6.792.055,9.2.068a1.672,1.672,0,0,1,1.753,1.969A1.658,1.658,0,0,1,9.224,3.468c-1.7.013-3.4,0-5.105,0H3.45" transform="translate(0 -0.054)"/>
          </g>
        </g>
      </g>
    </g>
  </g>
</svg>
