<svg xmlns="http://www.w3.org/2000/svg" width="832.687" height="153.665" viewBox="0 0 832.687 153.665">
  <g id="Grupo_178046" data-name="Grupo 178046" transform="translate(-580 -1840.335)">
    <g id="Grupo_165968" data-name="Grupo 165968" transform="translate(-696 241.335)">
      <path id="Trazado_185201" data-name="Trazado 185201" d="M92.851,14.039c-4.233,0-6.323-3.381-8-6.1-1.7-2.75-2.852-4.435-5.02-4.435s-3.317,1.685-5.014,4.433c-1.679,2.716-3.768,6.1-8,6.1s-6.323-3.381-8-6.1c-1.7-2.748-2.85-4.433-5.016-4.433s-3.315,1.685-5.014,4.433c-1.679,2.716-3.768,6.1-8,6.1s-6.321-3.383-8-6.1c-1.7-2.748-2.848-4.433-5.012-4.433s-3.313,1.685-5.012,4.433c-1.679,2.716-3.766,6.1-8,6.1s-6.319-3.381-8-6.1C5.07,5.193,3.92,3.509,1.756,3.509A1.754,1.754,0,1,1,1.756,0c4.229,0,6.319,3.381,8,6.1,1.7,2.746,2.848,4.431,5.012,4.431S18.079,8.844,19.778,6.1c1.679-2.716,3.768-6.1,8-6.1s6.319,3.381,8,6.1c1.7,2.746,2.848,4.431,5.014,4.431S44.1,8.844,45.8,6.1c1.679-2.716,3.768-6.1,8-6.1s6.321,3.381,8,6.1c1.7,2.746,2.848,4.431,5.016,4.431S70.131,8.844,71.83,6.1c1.677-2.716,3.768-6.1,8-6.1s6.325,3.381,8,6.1c1.7,2.746,2.852,4.431,5.018,4.431S96.17,8.844,97.871,6.1c1.679-2.716,3.77-6.1,8-6.1a1.754,1.754,0,1,1,0,3.509c-2.168,0-3.319,1.685-5.02,4.433C99.176,10.658,97.086,14.039,92.851,14.039Z" transform="translate(1410.629 1628.33) rotate(180)" fill="#7f0f98"/>
      <path id="Trazado_185202" data-name="Trazado 185202" d="M92.851,14.037c-4.233,0-6.323-3.379-8-6.1-1.7-2.748-2.852-4.433-5.02-4.433s-3.317,1.685-5.014,4.433c-1.679,2.716-3.768,6.1-8,6.1s-6.323-3.379-8-6.1c-1.7-2.748-2.85-4.433-5.016-4.433s-3.315,1.685-5.014,4.433c-1.679,2.716-3.768,6.1-8,6.1s-6.321-3.379-8-6.1c-1.7-2.748-2.848-4.433-5.012-4.433s-3.313,1.685-5.012,4.433c-1.679,2.716-3.766,6.1-8,6.1s-6.319-3.379-8-6.1C5.07,5.193,3.92,3.509,1.756,3.509A1.754,1.754,0,1,1,1.756,0c4.229,0,6.319,3.381,8,6.1,1.7,2.746,2.848,4.431,5.012,4.431S18.079,8.844,19.778,6.1c1.679-2.716,3.768-6.1,8-6.1s6.319,3.381,8,6.1c1.7,2.748,2.848,4.433,5.014,4.433S44.1,8.844,45.8,6.1c1.679-2.714,3.768-6.1,8-6.1s6.321,3.381,8,6.1c1.7,2.748,2.848,4.433,5.016,4.433S70.131,8.844,71.83,6.1c1.677-2.714,3.768-6.1,8-6.1s6.325,3.381,8,6.1c1.7,2.748,2.852,4.433,5.018,4.433S96.17,8.844,97.871,6.1c1.679-2.714,3.77-6.1,8-6.1a1.754,1.754,0,1,1,0,3.509c-2.168,0-3.319,1.685-5.02,4.433C99.176,10.658,97.086,14.037,92.851,14.037Z" transform="translate(1410.629 1613.037) rotate(180)" fill="#7f0f98"/>
    </g>
    <rect id="BG" width="580" height="89" transform="translate(607 1886)" fill="#fff" opacity="0.949"/>
    <g id="Right" transform="translate(580 1886)" opacity="0.25">
      <rect id="BG-2" data-name="BG" width="776" height="108" fill="#7f0f98" opacity="0.949"/>
    </g>
    <g id="Grupo_165967" data-name="Grupo 165967" transform="translate(-41 120)">
      <text id="Cuanto_mayor_sea_el_tamaño_de_la_muestra_más_probable_será_que_una_estadística_indique_que_existen_diferencias_entre_los_grupos_de_tratamiento._Así_cuanto_mayor_sea_la_muestra_de_sujetos_más_potente_se_dice_que_es_la_estadística." data-name="Cuanto mayor sea el tamaño de la muestra, más probable será que una estadística indique que existen diferencias entre los grupos de tratamiento. Así, cuanto mayor sea la muestra de sujetos, más potente se dice que es la estadística." transform="translate(664 1785)" fill="#12263f" font-size="16" font-family="Roboto-Regular, Roboto"><tspan x="0" y="17">Cuanto mayor sea el tamaño de la muestra, más probable será que una estadística indique que </tspan><tspan x="0" y="41">existen diferencias entre los grupos de tratamiento. Así, cuanto mayor sea la muestra de sujetos, </tspan><tspan x="0" y="65">más potente se dice que es la estadística.</tspan></text>
    </g>
    <path id="Trazado_205891" data-name="Trazado 205891" d="M-7528-9860h381.687l-36.191,52.912,36.191,47.206h-57.879V-9826.2H-7528Z" transform="translate(8559 11711)" fill="#7f0f98"/>
  </g>
</svg>
