<svg xmlns="http://www.w3.org/2000/svg" xmlns:xlink="http://www.w3.org/1999/xlink" width="94" height="105.25" viewBox="0 0 94 105.25">
  <defs>
    <linearGradient id="linear-gradient" x1="0.5" x2="0.5" y2="1.658" gradientUnits="objectBoundingBox">
      <stop offset="0" stop-color="#ecf262"/>
      <stop offset="1" stop-color="#dee09f"/>
    </linearGradient>
    <clipPath id="clip-path">
      <rect id="Rectángulo_54418" data-name="Rectángulo 54418" width="90.748" height="91.598" fill="none"/>
    </clipPath>
  </defs>
  <g id="Grupo_178045" data-name="Grupo 178045" transform="translate(-961 -1639)">
    <circle id="Elipse_5398" data-name="Elipse 5398" cx="47" cy="47" r="47" transform="translate(961 1639)" fill="url(#linear-gradient)"/>
    <g id="Grupo_166194" data-name="Grupo 166194" transform="translate(963 1652.652)">
      <g id="Grupo_166193" data-name="Grupo 166193" clip-path="url(#clip-path)">
        <path id="Trazado_205948" data-name="Trazado 205948" d="M51.1,91.6H39.651a3.21,3.21,0,0,1-2.1-3.113c-.035-.772-.147-1.542-.234-2.311-.138-1.224-.284-2.448-.444-3.823-1.714,1.374-3.291,2.637-4.865,3.9-1.765,1.42-2.939,1.367-4.52-.208-1.9-1.893-3.791-3.8-5.71-5.672-1.075-1.05-2.23-2.035-1.706-3.826H3.374C.968,76.547.018,75.6.018,73.194Q.016,38.274,0,3.353A3.137,3.137,0,0,1,2.082,0H88.671a3.041,3.041,0,0,1,2.077,3.175q-.027,35.1-.015,70.2c0,2.16-1.023,3.168-3.182,3.168q-7.87,0-15.74,0H70.768a3.269,3.269,0,0,1-1.227,3.246c-2.13,2.085-4.206,4.225-6.317,6.33-1.384,1.379-2.657,1.432-4.2.208C57.512,85.126,56,83.913,54.483,82.71a6.107,6.107,0,0,0-.622-.375c-.236,2.157-.5,4.194-.667,6.24A3.239,3.239,0,0,1,51.1,91.6M5.389,26.634V71.217H6.34c5.664,0,11.328-.011,16.993.014a1.265,1.265,0,0,0,1.433-.95c-.377-.053-.725-.11-1.075-.15-1.924-.219-3.853-.4-5.77-.665a2.525,2.525,0,0,1-2.364-2.587q-.073-5.1,0-10.2a2.626,2.626,0,0,1,2.515-2.652c.622-.068,1.244-.129,1.866-.2,1.576-.181,3.151-.365,4.867-.565-1.467-1.828-2.836-3.512-4.181-5.216a2.681,2.681,0,0,1,.227-3.917q3.364-3.4,6.753-6.78a2.688,2.688,0,0,1,4.047-.2c1.335,1.05,2.661,2.113,3.991,3.169l1.2.948c.061-.378.107-.6.132-.824.234-2.042.447-4.087.7-6.126a2.48,2.48,0,0,1,2.5-2.338q5.23-.071,10.462.007a2.473,2.473,0,0,1,2.443,2.3c.14,1,.236,2.012.352,3.018l.448,3.9c1.787-1.437,3.433-2.762,5.081-4.084a2.722,2.722,0,0,1,4.122.19q3.337,3.3,6.654,6.627a2.715,2.715,0,0,1,.255,4.117c-1.215,1.547-2.451,3.077-3.672,4.619a6.941,6.941,0,0,0-.381.6c2.3.259,4.49.5,6.679.752A2.634,2.634,0,0,1,75.2,56.707q.07,5.052,0,10.106a2.581,2.581,0,0,1-2.391,2.664c-.851.141-1.715.2-2.573.3-1.373.159-2.745.32-4.167.486a1.35,1.35,0,0,0,1.438.968c5.664-.027,11.328-.015,16.993-.017.287,0,.574-.03.878-.047V26.634ZM5.375,21.2h80V5.382h-80Zm55.3,21.364c-1.215.975-2.509,1.856-3.611,2.934-1.763,1.725-3.513,2.19-5.847.987-1.488-.767-2.467-1.569-2.479-3.3a13.9,13.9,0,0,0-.162-1.51q-.258-2.2-.519-4.388H42.725c-.059.319-.131.605-.164.9-.2,1.776-.417,3.551-.573,5.331a2.9,2.9,0,0,1-2.041,2.749,11.975,11.975,0,0,0-1.567.645,2.957,2.957,0,0,1-3.552-.416c-1.6-1.331-3.254-2.6-4.757-3.8l-3.86,3.839c1.255,1.561,2.593,3.161,3.848,4.825.393.521.905,1.307.768,1.809a23.848,23.848,0,0,1-1.762,4.4c-.2.4-.934.583-1.461.734a10.422,10.422,0,0,1-1.682.21l-5,.575v5.391c2.056.226,4.063.476,6.076.659a3.018,3.018,0,0,1,2.925,2.2,10.169,10.169,0,0,0,.615,1.482,2.948,2.948,0,0,1-.419,3.479c-1.326,1.608-2.6,3.255-3.82,4.783l3.772,3.867a.425.425,0,0,0,.121-.056c1.582-1.267,3.181-2.513,4.736-3.812a3.016,3.016,0,0,1,3.474-.446c3.184,1.411,3.4.887,3.785,5.28.126,1.441.332,2.875.5,4.3h5.4c.234-2.091.495-4.13.682-6.175a2.906,2.906,0,0,1,2.121-2.78,8.207,8.207,0,0,0,1.4-.581,3.063,3.063,0,0,1,3.777.478c1.545,1.3,3.157,2.529,4.659,3.725l3.825-3.729A.364.364,0,0,0,64.5,77c-.924-1.168-1.857-2.33-2.778-3.5-1.846-2.343-2.54-2.463-1.006-5.961A3.547,3.547,0,0,1,64.056,65.1c1.925-.128,3.84-.408,5.771-.623V59.064c-2.187-.249-4.316-.506-6.449-.727a2.727,2.727,0,0,1-2.423-1.823c-.222-.552-.407-1.123-.681-1.648a3.11,3.11,0,0,1,.484-3.784c1.306-1.541,2.53-3.152,3.744-4.676L60.678,42.56" transform="translate(0)"/>
        <path id="Trazado_205949" data-name="Trazado 205949" d="M56.067,41.857c2.8,0,5.6-.007,8.4,0a2.657,2.657,0,1,1,.067,5.287q-8.493.028-16.986,0a2.651,2.651,0,1,1,.022-5.285c2.831-.012,5.662,0,8.493,0" transform="translate(-34.035 -31.87)"/>
        <path id="Trazado_205950" data-name="Trazado 205950" d="M271.647,41.891a2.638,2.638,0,1,1-2.664,2.644,2.658,2.658,0,0,1,2.664-2.644" transform="translate(-204.821 -31.898)"/>
        <path id="Trazado_205951" data-name="Trazado 205951" d="M316.2,41.886a2.638,2.638,0,0,1,0,5.276,2.639,2.639,0,1,1,0-5.276" transform="translate(-238.729 -31.894)"/>
        <path id="Trazado_205952" data-name="Trazado 205952" d="M229.748,44.511a2.638,2.638,0,1,1-2.6-2.628,2.623,2.623,0,0,1,2.6,2.628" transform="translate(-170.926 -31.892)"/>
        <path id="Trazado_205953" data-name="Trazado 205953" d="M154.841,234.7a11.054,11.054,0,1,1,11.124-10.971A11.106,11.106,0,0,1,154.841,234.7m.05-5.33a5.734,5.734,0,1,0-5.724-5.728,5.7,5.7,0,0,0,5.724,5.728" transform="translate(-109.522 -161.879)"/>
      </g>
    </g>
  </g>
</svg>
