<svg xmlns="http://www.w3.org/2000/svg" xmlns:xlink="http://www.w3.org/1999/xlink" width="121" height="154.037" viewBox="0 0 121 154.037">
  <defs>
    <clipPath id="clip-path">
      <rect id="Rectángulo_54408" data-name="Rectángulo 54408" width="121" height="154.037" fill="#12263f"/>
    </clipPath>
  </defs>
  <g id="Grupo_168943" data-name="Grupo 168943" transform="translate(-3 -4.999)">
    <g id="Grupo_166185" data-name="Grupo 166185" transform="translate(3 4.999)" clip-path="url(#clip-path)">
      <path id="Trazado_205921" data-name="Trazado 205921" d="M62.869,0c.668.182,1.333.375,2,.543A15.966,15.966,0,0,1,76.01,9.814a1.846,1.846,0,0,0,2,1.321c3.058-.067,6.118-.03,9.178-.018,2.622.011,4.715.7,4.406,4.384-.125,1.487-.021,2.993-.021,4.721.717,0,1.294-.008,1.87,0,4.76.078,9.55-.155,14.271.311,7.385.729,13.138,7.4,13.2,14.829.053,6.87.012,13.742.012,20.613,0,27.584-.143,55.169.081,82.75.075,9.152-6.918,14.86-14.657,15.278-.5.027-1,.028-1.5.028q-44.385,0-88.769,0a16.477,16.477,0,0,1-12.255-4.774,12.485,12.485,0,0,1-3.8-9.048Q0,87.782.022,35.348c.009-8.309,6.936-14.954,15.591-15.11,3.961-.071,7.924-.014,11.886-.015h1.858c0-1.908-.011-3.7,0-5.488.019-2.39,1.027-3.51,3.45-3.574,3.308-.086,6.62-.005,9.929-.085a1.985,1.985,0,0,0,1.515-.776A16.7,16.7,0,0,1,57.376.23c.135-.022.251-.151.377-.229ZM91.613,27.557c0,2.877.018,5.626-.005,8.373-.024,2.838-1.553,4.378-4.384,4.38q-26.853.015-53.707,0c-2.7,0-4.163-1.477-4.2-4.2-.035-2.407-.061-4.816.013-7.22.035-1.142-.375-1.463-1.475-1.447-3.861.053-7.723.005-11.584.023-5.687.027-9.059,3.427-9.059,9.109q0,40.317,0,80.635c0,7.472.013,14.943-.006,22.415a5.967,5.967,0,0,0,3.6,5.93,14.251,14.251,0,0,0,5.491,1.2q44.154.108,88.308.051c.351,0,.7.008,1.053-.006,5.3-.214,8.061-3.068,8.061-8.347q0-51,0-102c0-5.484-3.4-8.941-8.882-8.986-3.861-.032-7.723-.009-11.584,0-.487,0-.975.053-1.635.091m-7.489-9.142c-3.334,0-6.487.011-9.64,0a4.109,4.109,0,0,1-4.392-3.326c-.125-.433-.22-.876-.369-1.3A9.976,9.976,0,0,0,55.346,8.272a10.458,10.458,0,0,0-5.08,6.789c-.613,2.373-1.88,3.341-4.308,3.352-2.508.012-5.015,0-7.523.007-.53,0-1.061.052-1.718.086,0,4.315.058,8.471-.031,12.625-.03,1.422.346,1.88,1.822,1.875,14.645-.052,29.289-.03,43.935-.036.537,0,1.073-.068,1.681-.108Z" transform="translate(0 -0.001)" fill="#12263f"/>
      <path id="Trazado_205922" data-name="Trazado 205922" d="M138.319,254.231q9.923,0,19.846.009a8.17,8.17,0,0,1,2.078.221,3.567,3.567,0,0,1-.362,6.939,10.53,10.53,0,0,1-1.8.128q-19.922.011-39.843,0a11.424,11.424,0,0,1-1.8-.117,3.573,3.573,0,0,1-.356-6.973,8.619,8.619,0,0,1,2.081-.2q10.074-.021,20.147-.008" transform="translate(-60.242 -134.987)" fill="#12263f"/>
      <path id="Trazado_205923" data-name="Trazado 205923" d="M138.1,136.372c-6.865,0-13.731.013-20.6-.009-2.358-.007-3.842-1.223-4.027-3.179a3.518,3.518,0,0,1,2.893-3.951,9.214,9.214,0,0,1,1.794-.11q20-.008,39.99.006a8.006,8.006,0,0,1,2.222.252,3.564,3.564,0,0,1-.631,6.915,14.03,14.03,0,0,1-1.8.074q-9.923.007-19.845,0" transform="translate(-60.24 -68.557)" fill="#12263f"/>
      <path id="Trazado_205924" data-name="Trazado 205924" d="M138.252,191.76c6.765,0,13.532-.05,20.3.051a5.893,5.893,0,0,1,3.249,1.142,3.028,3.028,0,0,1,.81,3.574,3.533,3.533,0,0,1-2.828,2.408,4.548,4.548,0,0,1-.9.054q-20.748,0-41.495,0a3.634,3.634,0,0,1-3.906-3,3.518,3.518,0,0,1,3.574-4.2c3.457-.061,6.915-.023,10.374-.025q5.412,0,10.824,0" transform="translate(-60.229 -101.811)" fill="#12263f"/>
      <path id="Trazado_205925" data-name="Trazado 205925" d="M50.475,247.089c3.636-3.461,7.283-7.036,11.069-10.457a5.728,5.728,0,0,1,3.294-1.374,3.554,3.554,0,0,1,2.231,6.109c-4.779,4.566-9.562,9.128-14.4,13.636a3.367,3.367,0,0,1-5.077-.2q-3.6-3.619-7.139-7.307c-1.678-1.756-1.75-4.04-.256-5.5,1.457-1.425,3.675-1.176,5.453.557,1.536,1.5,3.121,2.944,4.82,4.54" transform="translate(-20.78 -124.912)" fill="#12263f"/>
      <path id="Trazado_205926" data-name="Trazado 205926" d="M50.553,184.354c3.6-3.431,7.32-7,11.068-10.543,1.623-1.534,3.474-1.708,5.022-.559,1.983,1.473,2.093,3.851.184,5.684-3.938,3.78-7.913,7.523-11.873,11.28-.763.724-1.5,1.478-2.305,2.154a3.408,3.408,0,0,1-4.985-.155q-3.727-3.71-7.347-7.525a3.735,3.735,0,0,1-.085-5.39c1.47-1.39,3.53-1.212,5.238.4,1.634,1.54,3.31,3.036,5.084,4.658" transform="translate(-20.774 -91.595)" fill="#12263f"/>
      <path id="Trazado_205927" data-name="Trazado 205927" d="M50.508,121.788l9.286-8.83c.726-.69,1.42-1.418,2.181-2.066a3.591,3.591,0,0,1,5.231.319,3.348,3.348,0,0,1-.214,4.96q-7.1,6.816-14.28,13.539a3.34,3.34,0,0,1-4.969,0q-3.832-3.813-7.552-7.741a3.6,3.6,0,0,1-.587-4.435,3.071,3.071,0,0,1,3.546-1.636,6.034,6.034,0,0,1,2.406,1.372c1.64,1.391,3.188,2.891,4.954,4.513" transform="translate(-20.756 -58.359)" fill="#12263f"/>
    </g>
  </g>
</svg>
