<svg xmlns="http://www.w3.org/2000/svg" xmlns:xlink="http://www.w3.org/1999/xlink" width="124.638" height="103.186" viewBox="0 0 124.638 103.186">
  <defs>
    <linearGradient id="linear-gradient" x1="0.5" x2="0.5" y2="1.658" gradientUnits="objectBoundingBox">
      <stop offset="0" stop-color="#ecf262"/>
      <stop offset="1" stop-color="#dee09f"/>
    </linearGradient>
    <clipPath id="clip-path">
      <rect id="Rectángulo_54417" data-name="Rectángulo 54417" width="124.638" height="93.534" fill="none"/>
    </clipPath>
  </defs>
  <g id="Grupo_178044" data-name="Grupo 178044" transform="translate(-533.681 -1639)">
    <circle id="Elipse_5397" data-name="Elipse 5397" cx="47" cy="47" r="47" transform="translate(549 1639)" fill="url(#linear-gradient)"/>
    <g id="Grupo_166192" data-name="Grupo 166192" transform="translate(533.681 1648.652)">
      <g id="Grupo_166191" data-name="Grupo 166191" clip-path="url(#clip-path)">
        <path id="Trazado_205940" data-name="Trazado 205940" d="M21.175,170.779c3.6.316,7.148.631,10.692.937a4.975,4.975,0,0,1,4.432,2.979q4.874,10.893,9.658,21.825a5.136,5.136,0,0,1-2.645,6.688,5.207,5.207,0,0,1-6.845-2.462c-2.932-5.929-5.883-11.849-8.792-17.789a1.111,1.111,0,0,0-1.358-.737c-3.926.547-7.847,1.156-11.791,1.531a32.7,32.7,0,0,1-6.815-.034,7.224,7.224,0,0,1-6.292-7.17q-.057-16.444,0-32.889a4.579,4.579,0,0,1,4.609-4.585c3.529-.038,7.059-.018,10.588-.006a5.737,5.737,0,0,1,4.469,1.967c2.495,2.754,5.094,5.413,7.625,8.134a1.869,1.869,0,0,0,1.532.676c2.5-.037,5,.008,7.5-.022a4.706,4.706,0,0,1,4.782,2.785,4.573,4.573,0,0,1-1.039,5.417.59.59,0,0,0-.1.15c-.01.021.008.055.013.084s.037.063.058.065c1.971.189,1.959.187,2.192-1.744.6-4.926,1.219-9.85,1.795-14.778a2.679,2.679,0,0,1,1.126-1.951,21.416,21.416,0,0,1,10.918-4.013l3.037,14.046.175-.005c.183-1.185.33-2.376.56-3.552.316-1.623.665-3.24,1.059-4.845a2.591,2.591,0,0,0-.228-2.143c-.23-.367-.347-.8-.559-1.183-.553-.989.019-1.66.771-2.335a2.577,2.577,0,0,1,2.471.106c.887.775,1.127,1.432.5,2.459a5.2,5.2,0,0,0-.387,4.274c.584,2.386.959,4.822,1.469,7.478l3.09-14.288c.687.09,1.388.15,2.078.277a20.759,20.759,0,0,1,8.66,3.578,3.018,3.018,0,0,1,1.335,2.235c.578,5.117,1.216,10.228,1.836,15.341.04.334.1.666.154,1.031h2.128c-.2-.248-.319-.4-.446-.554a4.749,4.749,0,0,1,3.631-7.918c2.561-.022,5.123-.041,7.683.016a2.227,2.227,0,0,0,1.849-.819c2.547-2.749,5.154-5.443,7.694-8.2a4.905,4.905,0,0,1,3.616-1.714c3.871-.059,7.746-.1,11.616-.011a4.532,4.532,0,0,1,4.226,4.368c.041.9.02,1.811.02,2.717q0,14.851,0,29.7c0,4.793-3.181,7.866-7.988,8.014-4.532.139-8.95-.7-13.409-1.214-1.24-.143-2.48-.293-3.712-.493a.883.883,0,0,0-1.079.6c-2.91,5.905-5.856,11.793-8.759,17.7a5.24,5.24,0,0,1-5.635,3.1,5.028,5.028,0,0,1-4.292-4.446,5.56,5.56,0,0,1,.381-2.727q4.71-10.861,9.558-21.663a5.06,5.06,0,0,1,4.57-3.062c3.516-.281,7.027-.616,10.616-.935V155.385c-.889.8-1.722,1.479-2.481,2.237a5.569,5.569,0,0,1-4.394,1.7c-1.212-.054-2.429-.01-3.75-.01v2.044H30.344v-1.794c-1.785-.265-3.6-.191-5.087-.852-1.511-.672-2.7-2.07-4.082-3.194Z" transform="translate(-1.132 -110.146)"/>
        <path id="Trazado_205941" data-name="Trazado 205941" d="M564.989,24.267a11.54,11.54,0,1,1-11.583-11.513,11.506,11.506,0,0,1,11.583,11.513" transform="translate(-440.351 -10.364)"/>
        <path id="Trazado_205942" data-name="Trazado 205942" d="M11.5,35.812a11.53,11.53,0,1,1,11.584-11.5A11.523,11.523,0,0,1,11.5,35.812" transform="translate(0 -10.363)"/>
        <path id="Trazado_205943" data-name="Trazado 205943" d="M294.019,11.538A11.539,11.539,0,1,1,282.457,0a11.549,11.549,0,0,1,11.563,11.537" transform="translate(-220.166 0)"/>
        <path id="Trazado_205944" data-name="Trazado 205944" d="M242.315,318.957a1.29,1.29,0,0,1,1.041-.844c1.08-.254,2.153-.539,3.232-.8a.5.5,0,0,0,.413-.354c.184-.5.392-1,.614-1.491a.449.449,0,0,0-.022-.481c-.591-.966-1.17-1.939-1.752-2.91a1.088,1.088,0,0,1,.192-1.636q1.225-1.226,2.451-2.451a1.073,1.073,0,0,1,1.585-.188c.981.588,1.963,1.173,2.939,1.769a.448.448,0,0,0,.481.024c.479-.22.966-.423,1.46-.6a.525.525,0,0,0,.385-.424c.269-1.167.558-2.329.844-3.491a1.034,1.034,0,0,1,1.145-.912q1.832-.005,3.665,0a1.033,1.033,0,0,1,1.146.911c.286,1.163.575,2.325.845,3.491a.525.525,0,0,0,.383.424c.494.182.981.385,1.46.6a.448.448,0,0,0,.481-.022c.966-.591,1.939-1.17,2.91-1.752a1.089,1.089,0,0,1,1.636.192q1.226,1.225,2.451,2.451a1.072,1.072,0,0,1,.187,1.585c-.588.981-1.173,1.963-1.769,2.938a.447.447,0,0,0-.023.481c.219.478.423.966.6,1.46a.524.524,0,0,0,.424.384c1.167.269,2.329.558,3.492.844a1.034,1.034,0,0,1,.912,1.145q.005,1.832,0,3.664a1.034,1.034,0,0,1-.912,1.145c-1.163.286-2.325.576-3.491.846a.526.526,0,0,0-.425.384c-.182.494-.385.981-.605,1.459a.447.447,0,0,0,.024.481c.6.975,1.182,1.957,1.769,2.938a1.073,1.073,0,0,1-.188,1.584q-1.236,1.238-2.475,2.474a1.072,1.072,0,0,1-1.585.186c-.981-.588-1.963-1.172-2.939-1.769a.449.449,0,0,0-.481-.022c-.49.222-.987.43-1.492.614a.5.5,0,0,0-.354.414c-.26,1.09-.549,2.173-.806,3.263a1.276,1.276,0,0,1-.834,1.009h-4.359a1.291,1.291,0,0,1-.844-1.041c-.254-1.08-.539-2.153-.8-3.232a.5.5,0,0,0-.354-.413c-.5-.184-1-.392-1.492-.614a.449.449,0,0,0-.481.022c-.975.6-1.958,1.182-2.939,1.769a1.073,1.073,0,0,1-1.585-.186q-1.238-1.236-2.475-2.474a1.072,1.072,0,0,1-.186-1.585c.588-.981,1.173-1.963,1.769-2.938a.449.449,0,0,0,.022-.481c-.222-.489-.43-.987-.614-1.492a.5.5,0,0,0-.413-.354c-1.079-.257-2.152-.542-3.232-.8a1.291,1.291,0,0,1-1.041-.844Zm7.22,13.519c1-.6,2-1.19,3-1.8a1.27,1.27,0,0,1,1.334-.04,21.726,21.726,0,0,0,2.278.941,1.329,1.329,0,0,1,.969,1.043c.24,1.049.523,2.088.774,3.135.045.188.119.248.308.244.627-.01,1.255-.017,1.882,0,.242.008.314-.083.366-.3.244-1.026.525-2.043.757-3.071a1.336,1.336,0,0,1,.994-1.059,14.418,14.418,0,0,0,2.127-.873,1.428,1.428,0,0,1,1.6.055c.942.6,1.916,1.159,2.831,1.707l1.736-1.727c-.57-.95-1.145-1.938-1.752-2.906a1.344,1.344,0,0,1-.051-1.451,18.208,18.208,0,0,0,.913-2.217,1.323,1.323,0,0,1,1.04-.973c1.082-.243,2.156-.525,3.237-.774.213-.049.288-.124.282-.344-.014-.616-.013-1.232,0-1.848,0-.21-.05-.3-.272-.353-1.071-.245-2.132-.533-3.206-.765a1.357,1.357,0,0,1-1.1-1.037,12.817,12.817,0,0,0-.85-2.065,1.447,1.447,0,0,1,.047-1.627c.607-.94,1.159-1.915,1.7-2.816l-1.729-1.738c-.969.581-1.973,1.172-2.964,1.784a1.27,1.27,0,0,1-1.334.04,21.737,21.737,0,0,0-2.278-.94,1.324,1.324,0,0,1-.967-1.045c-.245-1.093-.528-2.178-.781-3.269a.259.259,0,0,0-.31-.242c-.627.01-1.255.013-1.882,0-.218,0-.3.064-.346.28-.248,1.081-.529,2.155-.774,3.237a1.3,1.3,0,0,1-.94,1.029,22.543,22.543,0,0,0-2.308.953,1.269,1.269,0,0,1-1.334-.046c-.906-.562-1.826-1.1-2.741-1.649-.093-.055-.189-.105-.208-.116l-1.739,1.726c.573.957,1.154,1.955,1.766,2.934a1.306,1.306,0,0,1,.036,1.393,19.4,19.4,0,0,0-.916,2.216,1.344,1.344,0,0,1-1.059.995c-1.039.235-2.067.52-3.1.765-.222.052-.274.147-.269.356q.018.924,0,1.848c0,.214.057.3.275.352,1.037.245,2.065.529,3.1.765a1.337,1.337,0,0,1,1.055,1,14.668,14.668,0,0,0,.873,2.127,1.412,1.412,0,0,1-.044,1.568c-.608.953-1.17,1.934-1.739,2.882l1.72,1.72" transform="translate(-196.903 -247.162)"/>
        <path id="Trazado_205945" data-name="Trazado 205945" d="M242.315,318.957a1.29,1.29,0,0,1,1.041-.844c1.08-.254,2.153-.539,3.232-.8a.5.5,0,0,0,.413-.354c.184-.5.392-1,.614-1.491a.449.449,0,0,0-.022-.481c-.591-.966-1.17-1.939-1.752-2.91a1.088,1.088,0,0,1,.192-1.636q1.225-1.226,2.451-2.451a1.073,1.073,0,0,1,1.585-.188c.981.588,1.963,1.173,2.939,1.769a.448.448,0,0,0,.481.024c.479-.22.966-.423,1.46-.6a.525.525,0,0,0,.385-.424c.269-1.167.558-2.329.844-3.491a1.034,1.034,0,0,1,1.145-.912q1.832-.005,3.665,0a1.033,1.033,0,0,1,1.146.911c.286,1.163.575,2.325.845,3.491a.525.525,0,0,0,.383.424c.494.182.981.385,1.46.6a.448.448,0,0,0,.481-.022c.966-.591,1.939-1.17,2.91-1.752a1.089,1.089,0,0,1,1.636.192q1.226,1.225,2.451,2.451a1.072,1.072,0,0,1,.187,1.585c-.588.981-1.173,1.963-1.769,2.938a.447.447,0,0,0-.023.481c.219.478.423.966.6,1.46a.524.524,0,0,0,.424.384c1.167.269,2.329.558,3.492.844a1.034,1.034,0,0,1,.912,1.145q.005,1.832,0,3.664a1.034,1.034,0,0,1-.912,1.145c-1.163.286-2.325.576-3.491.846a.526.526,0,0,0-.425.384c-.182.494-.385.981-.605,1.459a.447.447,0,0,0,.024.481c.6.975,1.182,1.957,1.769,2.938a1.073,1.073,0,0,1-.188,1.584q-1.236,1.238-2.475,2.474a1.072,1.072,0,0,1-1.585.186c-.981-.588-1.963-1.172-2.939-1.769a.449.449,0,0,0-.481-.022c-.49.222-.987.43-1.492.614a.5.5,0,0,0-.354.414c-.26,1.09-.549,2.173-.806,3.263a1.276,1.276,0,0,1-.834,1.009h-4.359a1.291,1.291,0,0,1-.844-1.041c-.254-1.08-.539-2.153-.8-3.232a.5.5,0,0,0-.354-.413c-.5-.184-1-.392-1.492-.614a.449.449,0,0,0-.481.022c-.975.6-1.958,1.182-2.939,1.769a1.073,1.073,0,0,1-1.585-.186q-1.238-1.236-2.475-2.474a1.072,1.072,0,0,1-.186-1.585c.588-.981,1.173-1.963,1.769-2.938a.449.449,0,0,0,.022-.481c-.222-.489-.43-.987-.614-1.492a.5.5,0,0,0-.413-.354c-1.079-.257-2.152-.542-3.232-.8a1.291,1.291,0,0,1-1.041-.844Zm7.22,13.519c1-.6,2-1.19,3-1.8a1.27,1.27,0,0,1,1.334-.04,21.726,21.726,0,0,0,2.278.941,1.329,1.329,0,0,1,.969,1.043c.24,1.049.523,2.088.774,3.135.045.188.119.248.308.244.627-.01,1.255-.017,1.882,0,.242.008.314-.083.366-.3.244-1.026.525-2.043.757-3.071a1.336,1.336,0,0,1,.994-1.059,14.418,14.418,0,0,0,2.127-.873,1.428,1.428,0,0,1,1.6.055c.942.6,1.916,1.159,2.831,1.707l1.736-1.727c-.57-.95-1.145-1.938-1.752-2.906a1.344,1.344,0,0,1-.051-1.451,18.208,18.208,0,0,0,.913-2.217,1.323,1.323,0,0,1,1.04-.973c1.082-.243,2.156-.525,3.237-.774.213-.049.288-.124.282-.344-.014-.616-.013-1.232,0-1.848,0-.21-.05-.3-.272-.353-1.071-.245-2.132-.533-3.206-.765a1.357,1.357,0,0,1-1.1-1.037,12.817,12.817,0,0,0-.85-2.065,1.447,1.447,0,0,1,.047-1.627c.607-.94,1.159-1.915,1.7-2.816l-1.729-1.738c-.969.581-1.973,1.172-2.964,1.784a1.27,1.27,0,0,1-1.334.04,21.737,21.737,0,0,0-2.278-.94,1.324,1.324,0,0,1-.967-1.045c-.245-1.093-.528-2.178-.781-3.269a.259.259,0,0,0-.31-.242c-.627.01-1.255.013-1.882,0-.218,0-.3.064-.346.28-.248,1.081-.529,2.155-.774,3.237a1.3,1.3,0,0,1-.94,1.029,22.543,22.543,0,0,0-2.308.953,1.269,1.269,0,0,1-1.334-.046c-.906-.562-1.826-1.1-2.741-1.649-.093-.055-.189-.105-.208-.116l-1.739,1.726c.573.957,1.154,1.955,1.766,2.934a1.306,1.306,0,0,1,.036,1.393,19.4,19.4,0,0,0-.916,2.216,1.344,1.344,0,0,1-1.059.995c-1.039.235-2.067.52-3.1.765-.222.052-.274.147-.269.356q.018.924,0,1.848c0,.214.057.3.275.352,1.037.245,2.065.529,3.1.765a1.337,1.337,0,0,1,1.055,1,14.668,14.668,0,0,0,.873,2.127,1.412,1.412,0,0,1-.044,1.568c-.608.953-1.17,1.934-1.739,2.882Z" transform="translate(-196.903 -247.162)" fill="none" stroke="#000" stroke-miterlimit="10" stroke-width="3"/>
        <path id="Trazado_205946" data-name="Trazado 205946" d="M302.1,371.6a6.932,6.932,0,1,1,6.943-6.923A6.955,6.955,0,0,1,302.1,371.6m-.022-1.981a4.951,4.951,0,1,0-4.921-4.991,4.968,4.968,0,0,0,4.921,4.991" transform="translate(-239.859 -290.691)"/>
        <path id="Trazado_205947" data-name="Trazado 205947" d="M302.1,371.6a6.932,6.932,0,1,1,6.943-6.923A6.955,6.955,0,0,1,302.1,371.6Zm-.022-1.981a4.951,4.951,0,1,0-4.921-4.991A4.968,4.968,0,0,0,302.08,369.616Z" transform="translate(-239.859 -290.691)" fill="none" stroke="#000" stroke-miterlimit="10" stroke-width="3"/>
      </g>
    </g>
  </g>
</svg>
