<svg id="Grupo_168956" data-name="Grupo 168956" xmlns="http://www.w3.org/2000/svg" xmlns:xlink="http://www.w3.org/1999/xlink" width="154.252" height="129.142" viewBox="0 0 154.252 129.142">
  <defs>
    <clipPath id="clip-path">
      <rect id="Rectángulo_55541" data-name="Rectángulo 55541" width="154.252" height="129.142" fill="#12263f"/>
    </clipPath>
  </defs>
  <g id="Grupo_168955" data-name="Grupo 168955" clip-path="url(#clip-path)">
    <path id="Trazado_208633" data-name="Trazado 208633" d="M77.117,0q34.36,0,68.719,0c5.485,0,8.415,2.944,8.415,8.456q0,56.1,0,112.207c0,5.57-2.936,8.477-8.554,8.478H8.571c-5.689,0-8.57-2.9-8.57-8.616Q0,64.578,0,8.63C0,2.833,2.86,0,8.709,0H77.117M4.976,34.828v1.819q0,41.9,0,83.8c0,3.063.667,3.732,3.727,3.732H145.5c3.1,0,3.772-.661,3.772-3.688q0-41.975,0-83.951V34.828Zm144.3-5.078c0-7.28,0-14.409,0-21.539,0-2.419-.835-3.242-3.28-3.242q-68.86,0-137.72,0c-2.5,0-3.294.818-3.3,3.382q-.006,9.93,0,19.861c0,.5.045,1,.071,1.539Z" transform="translate(0 0)" fill="#12263f"/>
    <path id="Trazado_208634" data-name="Trazado 208634" d="M113.377,130.609h-3.124c-6.737,0-13.475.014-20.212-.015-.966,0-1.548.1-1.878,1.236a7.176,7.176,0,0,1-4.309,4.6c-2.436,1.063-3.136,2.794-2.212,5.233A7.671,7.671,0,0,1,80,150.133c-2.249,2.463-4.705,4.42-8.339,3.8a10.341,10.341,0,0,1-1.927-.56,3.651,3.651,0,0,0-5.058,2.114,7.63,7.63,0,0,1-7.547,4.928c-.57,0-1.141,0-1.711,0a7.656,7.656,0,0,1-7.528-4.959,3.606,3.606,0,0,0-4.929-2.116c-3.472,1.413-6.414.652-9.1-1.9-2.376-2.257-4.053-4.716-3.4-8.172a11.615,11.615,0,0,1,.609-1.91,3.6,3.6,0,0,0-1.946-4.762c-4.148-1.675-5.34-4.91-5.214-9.079.114-3.769,1.665-6.395,5.192-7.848a3.546,3.546,0,0,0,1.967-4.744c-1.625-3.883-.44-6.946,2.436-9.774,2.81-2.764,5.841-3.742,9.576-2.194a3.558,3.558,0,0,0,4.744-1.985A7.711,7.711,0,0,1,55.7,95.839c.57.008,1.141-.011,1.71,0a7.579,7.579,0,0,1,7.2,4.754c1.1,2.437,2.8,3.164,5.235,2.225a7.678,7.678,0,0,1,8.48,1.631c2.474,2.235,4.434,4.69,3.816,8.318a10.28,10.28,0,0,1-.558,1.924,3.625,3.625,0,0,0,2.1,5.055,8.023,8.023,0,0,1,4.643,4.917c.146.4.7.933,1.064.935,7.973.053,15.946.041,24.044.041.028-.59.072-1.087.073-1.585.007-3.621-.034-7.243.016-10.863a7.367,7.367,0,0,1,7.422-7.4q14.925-.065,29.851,0a7.343,7.343,0,0,1,7.476,7.345q.078,14.976,0,29.953a7.35,7.35,0,0,1-7.446,7.378q-14.925.059-29.851,0a7.393,7.393,0,0,1-7.458-7.528c-.043-3.983-.029-7.965-.042-11.948a2.979,2.979,0,0,0-.1-.378m39.939-2.374q0-7.139,0-14.278c0-2.346-.847-3.211-3.154-3.213q-14.226-.011-28.452,0c-2.351,0-3.217.845-3.219,3.147q-.011,14.2,0,28.4c0,2.345.848,3.213,3.153,3.214q14.226.012,28.452,0c2.4,0,3.218-.846,3.222-3.3q.009-6.984,0-13.968m-69.662.127c0-2.969-.12-3.152-2.664-4.338a8.573,8.573,0,0,1-4.149-10.787c.778-1.863.2-3.1-1.114-4.394s-2.529-2.076-4.5-1.253a8.355,8.355,0,0,1-10.958-4.55c-.777-1.884-2.1-2.266-3.927-2.272-1.88-.006-3.252.356-4.054,2.319a8.347,8.347,0,0,1-10.835,4.537c-2.024-.847-3.276-.111-4.641,1.255-1.317,1.318-1.833,2.554-1.064,4.4a8.355,8.355,0,0,1-4.511,10.835c-1.862.762-2.347,2.013-2.354,3.873-.006,1.937.359,3.339,2.394,4.16a8.3,8.3,0,0,1,4.5,10.705c-.823,1.983-.235,3.269,1.17,4.659,1.371,1.356,2.643,1.876,4.55,1.092a8.363,8.363,0,0,1,10.75,4.456,3.584,3.584,0,0,0,3.831,2.423c1.99,0,3.43-.357,4.276-2.464a8.317,8.317,0,0,1,10.622-4.449c2.056.853,3.364.241,4.8-1.2a3.7,3.7,0,0,0,1-4.56,8.376,8.376,0,0,1,4.279-10.57c2.01-.83,2.894-2.037,2.6-3.882" transform="translate(-13.991 -56.104)" fill="#12263f"/>
    <path id="Trazado_208635" data-name="Trazado 208635" d="M134.949,259.043a7.458,7.458,0,1,1-7.385-7.441,7.488,7.488,0,0,1,7.385,7.441m-4.984.03a2.475,2.475,0,1,0-2.5,2.446,2.5,2.5,0,0,0,2.5-2.446" transform="translate(-70.268 -147.291)" fill="#12263f"/>
    <path id="Trazado_208636" data-name="Trazado 208636" d="M175.458,266.494a7.446,7.446,0,1,1,7.5-7.331,7.486,7.486,0,0,1-7.5,7.331m2.514-7.4a2.475,2.475,0,1,0-2.519,2.428,2.5,2.5,0,0,0,2.519-2.428" transform="translate(-98.372 -147.291)" fill="#12263f"/>
    <path id="Trazado_208637" data-name="Trazado 208637" d="M230.964,259.088a7.459,7.459,0,1,1-7.339-7.486,7.486,7.486,0,0,1,7.339,7.486m-7.475-2.512a2.471,2.471,0,1,0,2.491,2.455,2.5,2.5,0,0,0-2.491-2.455" transform="translate(-126.476 -147.29)" fill="#12263f"/>
    <rect id="Rectángulo_55539" data-name="Rectángulo 55539" width="29.658" height="4.779" transform="translate(114.516 104.387)" fill="#12263f"/>
    <rect id="Rectángulo_55540" data-name="Rectángulo 55540" width="29.673" height="4.767" transform="translate(114.522 114.355)" fill="#12263f"/>
    <path id="Trazado_208638" data-name="Trazado 208638" d="M38.843,31.332c.456,5.7-1.779,7.607-7.529,7.605-5.578,0-7.846-1.993-7.408-7.426.074-.925-.021-1.862.024-2.791a4.932,4.932,0,0,1,4.8-4.769c1.6-.061,3.211-.029,4.817-.013a4.982,4.982,0,0,1,5.3,5.223c.012.724,0,1.448,0,2.172m-9.9,2.413h4.838V29H28.947Z" transform="translate(-13.964 -14)" fill="#12263f"/>
    <path id="Trazado_208639" data-name="Trazado 208639" d="M71.934,31.25c-.462-5.615,1.918-7.814,7.342-7.386.927.073,1.866-.022,2.8.023a4.937,4.937,0,0,1,4.77,4.794c.064,1.756.064,3.517,0,5.273a4.935,4.935,0,0,1-4.916,4.809c-1.6.047-3.211.031-4.817.006a4.974,4.974,0,0,1-5.173-5.193c-.013-.775,0-1.551,0-2.327m9.885-2.3H77.035v4.771h4.784Z" transform="translate(-42.078 -13.94)" fill="#12263f"/>
    <path id="Trazado_208640" data-name="Trazado 208640" d="M127.419,23.881c5.688-.456,7.606,1.769,7.6,7.531-.006,5.555-1.993,7.813-7.456,7.379-.927-.073-1.866.023-2.8-.025a4.954,4.954,0,0,1-4.761-4.806c-.059-1.653-.038-3.309-.01-4.963a4.969,4.969,0,0,1,5.091-5.113c.777-.017,1.554,0,2.331,0m-2.382,9.826h4.784V28.928h-4.784Z" transform="translate(-70.231 -13.947)" fill="#12263f"/>
    <path id="Trazado_208641" data-name="Trazado 208641" d="M285.1,145.313l3.21,3.405-21.283,21.247-6.278-6.32,3.555-3.19,2.57,3.263L285.1,145.313" transform="translate(-152.644 -85.068)" fill="#12263f"/>
    <path id="Trazado_208642" data-name="Trazado 208642" d="M94.842,149.118A17.41,17.41,0,1,1,77.374,131.8a17.444,17.444,0,0,1,17.468,17.32m-4.976.124a12.435,12.435,0,1,0-12.54,12.349,12.452,12.452,0,0,0,12.54-12.349" transform="translate(-35.138 -77.156)" fill="#12263f"/>
    <path id="Trazado_208643" data-name="Trazado 208643" d="M91.512,155.759a7.446,7.446,0,1,1-7.487,7.338,7.481,7.481,0,0,1,7.487-7.338m2.446,7.4a2.475,2.475,0,1,0-2.433,2.514,2.5,2.5,0,0,0,2.433-2.514" transform="translate(-49.189 -91.183)" fill="#12263f"/>
  </g>
</svg>
