<svg id="Grupo_178048" data-name="Grupo 178048" xmlns="http://www.w3.org/2000/svg" xmlns:xlink="http://www.w3.org/1999/xlink" width="154.252" height="154.037" viewBox="0 0 154.252 154.037">
  <defs>
    <clipPath id="clip-path">
      <rect id="Rectángulo_55538" data-name="Rectángulo 55538" width="154.252" height="154.037" fill="#12263f"/>
    </clipPath>
  </defs>
  <g id="Grupo_168952" data-name="Grupo 168952" clip-path="url(#clip-path)">
    <path id="Trazado_208629" data-name="Trazado 208629" d="M67.87,120.706c-.276-2.686-.522-5.072-.767-7.462C46.162,106.4,35.3,91.982,34.841,69.566H33.305q-12.418,0-24.834,0C3.3,69.562.264,66.538.253,61.386c0-1.035,0-2.07,0-3.105,0-5.2,2.184-7.789,7.381-8.7V44.846c-5.3-1-7.38-3.519-7.381-8.854q0-1.4,0-2.8c.006-4.943,2.389-7.7,7.356-8.419V20.5C5.741,19.47,3.817,18.827,2.45,17.575-.835,14.564-.764,5.516,2.348,2.3A7.122,7.122,0,0,1,7.607.014Q35,0,62.4.021a7.375,7.375,0,0,1,7.385,7.435c.031,1.5.015,3,.006,4.5-.024,4.332-2.481,7.193-6.772,7.9-.192.032-.383.069-.62.113v4.441a22.086,22.086,0,0,1,4.478,2.111c1.206.936,1.991,2.416,3.146,3.9a41.148,41.148,0,0,1,33.156,8.4c9.879,7.764,15.134,18.106,16.193,30.7h34.86v1.757q0,29.967.022,59.934a3.272,3.272,0,0,1-1.055,2.569c-6.47,6.41-12.886,12.874-19.359,19.281a3.156,3.156,0,0,1-1.949.93c-10.451.058-20.9.041-31.353.038-.251,0-.5-.029-.929-.055V108.217l-12.25,5.156c-.218,2.165-.464,4.594-.74,7.329,2.52,1.723,3.168,4.6,3.071,7.9-.124,4.189-.015,8.384-.034,12.576-.032,7.329-5.447,12.893-12.491,12.859-6.961-.034-12.31-5.6-12.338-12.857-.016-4.244.09-8.491-.033-12.731-.094-3.253.613-6.055,3.076-7.74m41.625-21.2c-1.405,1.358-2.585,2.6-3.875,3.706a2.809,2.809,0,0,0-1.082,2.373q.051,20.952.026,41.9c0,.5.045.995.067,1.463h24.813V129.166h19.713V74.609H119.37c-.182,1.625-.358,3.188-.552,4.918h25.374v24.7h-34.7ZM77.3,34.786a37.264,37.264,0,1,0,37.192,37.284A37.314,37.314,0,0,0,77.3,34.786M34.988,14.91q13.347,0,26.7,0c2.182,0,3.1-.864,3.136-2.916.02-1.138,0-2.277,0-3.415,0-2.875-.714-3.6-3.541-3.6q-16.219,0-32.438,0-10.321,0-20.642.005c-2.048,0-2.945.9-2.98,2.911-.019,1.138,0,2.277,0,3.416,0,2.873.716,3.6,3.539,3.6q13.115,0,26.23,0M64.66,31.7c-.593-1.659-1.752-1.894-3.141-1.892q-20.786.028-41.573.012c-3.93,0-7.86-.014-11.79.006-2.021.01-2.9.92-2.934,2.953-.017,1.189-.006,2.379,0,3.569.007,2.633.779,3.407,3.421,3.408,13.341,0,26.681.017,40.022-.036a4.413,4.413,0,0,0,2.491-.864,45.319,45.319,0,0,1,11.592-6.476c.611-.231,1.23-.437,1.915-.68m50.086,67.575H139.21V84.565H117.78c-2.338,4.686-4.283,9.327-3.034,14.707M69.791,134.358c0,2.327-.015,4.655,0,6.982a7.449,7.449,0,1,0,14.89.057c.03-4.706.017-9.414,0-14.12-.006-2.139-.889-3.036-3-3.049q-4.421-.029-8.842,0c-2.2.012-3.043.893-3.054,3.148-.011,2.327,0,4.655,0,6.983M38.54,54.762a.45.45,0,0,0-.2-.082q-15.262-.014-30.524,0A2.433,2.433,0,0,0,5.23,57.333c-.041,1.342-.017,2.687-.01,4.03.012,2.41.837,3.23,3.278,3.233q9.994.009,19.988,0h7.026l3.028-9.835M57.3,19.984H12.794v4.785H57.3ZM44.9,44.834H12.745v4.678c.162.073.252.148.341.148,9.2.014,18.4.032,27.6,0a1.817,1.817,0,0,0,1.218-.675c1.012-1.3,1.937-2.669,3-4.153m89.577,89.355v10.459l10.435-10.459ZM82.208,114.146H72.275c0,.743-.011,1.458,0,2.172.038,2.014.925,2.9,2.945,2.933.979.016,1.959,0,2.939,0,3.521,0,4.092-.587,4.048-4.158,0-.3,0-.6,0-.95" transform="translate(0 0)" fill="#12263f"/>
    <rect id="Rectángulo_55530" data-name="Rectángulo 55530" width="34.547" height="4.836" transform="translate(10.283 111.828)" fill="#12263f"/>
    <rect id="Rectángulo_55531" data-name="Rectángulo 55531" width="34.572" height="4.781" transform="translate(10.312 121.846)" fill="#12263f"/>
    <rect id="Rectángulo_55532" data-name="Rectángulo 55532" width="4.794" height="4.768" transform="translate(10.286 131.763)" fill="#12263f"/>
    <rect id="Rectángulo_55533" data-name="Rectángulo 55533" width="4.748" height="4.831" transform="translate(20.216 131.704)" fill="#12263f"/>
    <rect id="Rectángulo_55534" data-name="Rectángulo 55534" width="4.771" height="4.777" transform="translate(30.166 131.743)" fill="#12263f"/>
    <rect id="Rectángulo_55535" data-name="Rectángulo 55535" width="4.774" height="4.803" transform="translate(40.071 131.746)" fill="#12263f"/>
    <path id="Trazado_208630" data-name="Trazado 208630" d="M264.44,311.794h14.717v14.714H264.44Zm4.948,9.764h4.766v-4.8h-4.766Z" transform="translate(-154.807 -182.529)" fill="#12263f"/>
    <rect id="Rectángulo_55536" data-name="Rectángulo 55536" width="34.572" height="4.786" transform="translate(109.65 109.422)" fill="#12263f"/>
    <rect id="Rectángulo_55537" data-name="Rectángulo 55537" width="34.578" height="4.814" transform="translate(109.609 119.318)" fill="#12263f"/>
    <path id="Trazado_208631" data-name="Trazado 208631" d="M173.007,128.137a32.284,32.284,0,1,1-32.334-32.245,32.351,32.351,0,0,1,32.334,32.245m-59.6.007a27.318,27.318,0,1,0,27.4-27.283,27.371,27.371,0,0,0-27.4,27.283" transform="translate(-63.481 -56.137)" fill="#12263f"/>
    <path id="Trazado_208632" data-name="Trazado 208632" d="M175.171,139.39l3.481,3.418L152.309,169.16l-11.361-11.4,3.43-3.078,7.63,7.908,23.163-23.2" transform="translate(-82.513 -81.601)" fill="#12263f"/>
  </g>
</svg>
