<svg id="Grupo_168950" data-name="Grupo 168950" xmlns="http://www.w3.org/2000/svg" xmlns:xlink="http://www.w3.org/1999/xlink" width="141.665" height="151.08" viewBox="0 0 141.665 151.08">
  <defs>
    <clipPath id="clip-path">
      <rect id="Rectángulo_55529" data-name="Rectángulo 55529" width="141.665" height="151.08" fill="#12263f"/>
    </clipPath>
  </defs>
  <g id="Grupo_168949" data-name="Grupo 168949" clip-path="url(#clip-path)">
    <path id="Trazado_208620" data-name="Trazado 208620" d="M128.382,0c4.191,4.142,8.4,8.264,12.544,12.456a3.1,3.1,0,0,1,.7,2q.066,13.94.017,27.881a4.483,4.483,0,0,1-4.685,4.625c-3.877.034-7.754.008-11.85.008,0,2.451.028,4.79-.007,7.129a6.86,6.86,0,0,1-5.079,6.8,11.6,11.6,0,0,1-2.92.272q-18.96.025-37.92-.009a2.384,2.384,0,0,0-2.455,1.291,16.076,16.076,0,0,1-2.783,2.74c-.343.339-.855.765-.856,1.153-.03,7.718,0,15.436.026,23.154,0,.044.042.088.134.267h40.206a4.621,4.621,0,0,0-3.917-4.8,14.064,14.064,0,0,0-2.059-.1q-12.984-.01-25.968-.011a7.194,7.194,0,0,1-1.9-.164,2.159,2.159,0,0,1,.125-4.136,8.024,8.024,0,0,1,1.76-.115c8.558-.006,17.119.147,25.672-.058,5.669-.136,10.247,2.805,10.955,9.452.489.024,1.005.07,1.522.071,3.689.006,7.377-.009,11.066.007,4.137.019,6.127,2.741,4.833,6.632q-7.921,23.819-15.869,47.629c-1.545,4.622-4.77,6.911-9.639,6.911q-38.215.005-76.43,0c-6.03,0-9.954-3.934-9.957-9.99q-.014-30.094,0-60.189c0-5.926,3.806-9.861,9.719-9.93,6.639-.077,13.279-.013,19.919-.02a9.844,9.844,0,0,1,7.487,3.218c1.519,1.608,3.068,3.2,4.711,4.675a19.863,19.863,0,0,0,2.981,1.83c.078-.855.143-1.236.143-1.618.007-4.081-.011-8.163.018-12.244a1.813,1.813,0,0,0-.979-1.736,9.881,9.881,0,0,1-2.791-2.725,2.22,2.22,0,0,0-2.209-1.191q-19.033.05-38.067.011a11.784,11.784,0,0,1-2.922-.264,6.833,6.833,0,0,1-5.094-6.635c-.05-2.357-.01-4.715-.01-7.3H14.911c-3.393,0-6.787.024-10.18-.009A4.52,4.52,0,0,1,.016,42.211C0,29.77.018,17.328,0,4.888,0,2.363,1.395.927,3.544,0H24.2a11.277,11.277,0,0,1,1.03.818c3.831,3.817,7.679,7.617,11.442,11.5a3.507,3.507,0,0,1,.823,2.23c.055,9.192.048,18.383.028,27.575-.006,3.026-1.85,4.827-4.891,4.844-3.245.018-6.489,0-9.734,0H20.982c0,2.459-.023,4.669.007,6.877.026,1.954.94,2.891,2.917,2.893q19.689.027,39.379-.019a2.2,2.2,0,0,0,1.258-.686c1.157-1.087,2.267-2.225,3.382-3.355.251-.255.637-.551.648-.84.064-1.56.03-3.124.03-4.87h-1.59c-3.1,0-6.2-.142-9.29.035-3.943.227-5.763-2.347-5.73-5.765.112-11.747.093-23.5.006-35.243-.021-2.816.843-4.857,3.485-6H76.44c3.964,3.948,7.911,7.912,11.9,11.829a4.037,4.037,0,0,1,1.3,3.137c-.043,4.622-.017,9.245-.017,13.868,0,4.377.025,8.754-.009,13.131-.025,3.152-1.85,4.974-4.929,5-1.771.016-3.542,0-5.312,0H73.049c0,1.549.035,2.915-.013,4.279a1.679,1.679,0,0,0,.931,1.612,10.57,10.57,0,0,1,2.811,2.7,2.242,2.242,0,0,0,2.194,1.21c12.69-.037,25.381-.024,38.071-.026.442,0,.886,0,1.326-.039a2.184,2.184,0,0,0,2.206-2.011c.141-2.527.043-5.068.043-7.73-3.773,0-7.4,0-11.034,0-3.806,0-5.452-1.653-5.452-5.479,0-11.8.067-23.606-.051-35.408-.028-2.822.784-4.849,3.347-6.083Zm3.242,94.326h-1.7q-39.467,0-78.935,0c-3.6,0-4.923.953-6.06,4.368q-7.424,22.282-14.842,44.565c-.706,2.12-.3,2.834,1.931,3.284a9.71,9.71,0,0,0,1.909.1q37.845.007,75.689,0c3.536,0,4.914-1.007,6.046-4.4q5.287-15.857,10.573-31.714c1.767-5.3,3.526-10.609,5.387-16.209M68.615,89.9c0-1.47-.034-2.741.012-4.01.03-.813-.3-1.1-1.091-1.2a8.742,8.742,0,0,1-5.148-2.643c-1.532-1.528-3.111-3.013-4.577-4.6a6.293,6.293,0,0,0-4.981-2.085c-6.3.045-12.592.009-18.888.019-4.024.007-5.866,1.854-5.867,5.857q0,25.892,0,51.784v1.344a4.365,4.365,0,0,0,.847-1.619q6.016-18.017,12.032-36.035c1.509-4.5,4.639-6.761,9.4-6.8,3.492-.029,6.984-.006,10.476-.007h7.785m16.51-73.66c-2.234,0-4.3,0-6.357,0-3.682,0-5.393-1.708-5.408-5.4-.009-2.1,0-4.2,0-6.306H56.581v37.9H85.126ZM32.988,42.483V16.24c-2.228,0-4.336,0-6.444,0-3.452-.008-5.248-1.809-5.259-5.279-.007-2.143,0-4.286,0-6.427H4.539v37.95ZM108.655,4.5V42.439h28.47v-26.2c-2.312,0-4.519.01-6.726,0-3.107-.017-4.963-1.849-4.984-4.929-.016-2.247,0-4.493,0-6.809ZM70.847,61.451a2.443,2.443,0,0,0,2.469-2.526,2.483,2.483,0,0,0-4.966.031,2.438,2.438,0,0,0,2.5,2.5M25.777,11.73H29.54L25.777,8.116Zm107.748.024-3.6-3.686v3.686ZM77.851,11.7h3.358L77.851,8.3Z" transform="translate(0)" fill="#12263f"/>
    <path id="Trazado_208621" data-name="Trazado 208621" d="M244.762,318.121c2.606,0,5.213-.013,7.82,0,1.6.011,2.6.877,2.6,2.186s-1.015,2.219-2.6,2.225q-7.893.033-15.787,0c-1.617-.007-2.56-.872-2.562-2.221,0-1.372.914-2.179,2.559-2.19,2.656-.018,5.311,0,7.967,0" transform="translate(-141.916 -192.736)" fill="#12263f"/>
    <path id="Trazado_208622" data-name="Trazado 208622" d="M232.7,342.109c2.606,0,5.213-.011,7.82,0,1.619.009,2.614.83,2.652,2.139.039,1.348-1.011,2.271-2.688,2.277q-7.82.024-15.64,0c-1.645-.005-2.584-.818-2.615-2.164-.032-1.417.919-2.242,2.651-2.251,2.606-.014,5.213,0,7.82,0" transform="translate(-134.644 -207.27)" fill="#12263f"/>
    <path id="Trazado_208623" data-name="Trazado 208623" d="M164.288,58.369c-1.867,0-3.734.017-5.6-.005-1.6-.019-2.56-.884-2.537-2.228a2.242,2.242,0,0,1,2.468-2.179q5.675-.046,11.35,0a2.211,2.211,0,1,1-.078,4.4c-1.867.026-3.734.006-5.6.006" transform="translate(-94.606 -32.676)" fill="#12263f"/>
    <path id="Trazado_208624" data-name="Trazado 208624" d="M164.258,82.361c-1.867,0-3.734.019-5.6-.006-1.533-.02-2.452-.825-2.492-2.115a2.242,2.242,0,0,1,2.5-2.292q5.6-.049,11.2,0a2.231,2.231,0,0,1,2.487,2.3c-.045,1.3-.953,2.086-2.5,2.105-1.867.023-3.734.006-5.6.006" transform="translate(-94.614 -47.211)" fill="#12263f"/>
    <path id="Trazado_208625" data-name="Trazado 208625" d="M32.143,58.367c-1.868,0-3.737.019-5.6-.006a2.213,2.213,0,1,1-.1-4.4q5.752-.058,11.5,0a2.2,2.2,0,1,1-.05,4.4c-1.917.032-3.835.008-5.752.008" transform="translate(-14.569 -32.674)" fill="#12263f"/>
    <path id="Trazado_208626" data-name="Trazado 208626" d="M32.088,82.359c-1.868,0-3.736.022-5.6-.007a2.213,2.213,0,1,1,.008-4.4q5.678-.057,11.356,0a2.211,2.211,0,1,1-.008,4.4c-1.917.029-3.835.007-5.752.007" transform="translate(-14.567 -47.211)" fill="#12263f"/>
    <path id="Trazado_208627" data-name="Trazado 208627" d="M296.3,58.366c-1.868,0-3.737.02-5.6-.006-1.528-.021-2.438-.841-2.461-2.145a2.168,2.168,0,0,1,2.37-2.258q5.752-.059,11.5,0a2.2,2.2,0,1,1-.057,4.4c-1.917.032-3.835.008-5.752.008" transform="translate(-174.634 -32.673)" fill="#12263f"/>
    <path id="Trazado_208628" data-name="Trazado 208628" d="M296.34,82.361c-1.868,0-3.736.019-5.6-.006-1.56-.02-2.453-.8-2.5-2.1a2.2,2.2,0,0,1,2.48-2.3q5.6-.053,11.208,0a2.282,2.282,0,0,1,2.526,2.286,2.249,2.249,0,0,1-2.51,2.119c-1.868.024-3.736.006-5.6.006" transform="translate(-174.634 -47.212)" fill="#12263f"/>
  </g>
</svg>
