<svg xmlns="http://www.w3.org/2000/svg" width="84" height="34.826" viewBox="0 0 84 34.826">
  <g id="Grupo_178064" data-name="Grupo 178064" transform="translate(-1335 -1736.634)">
    <g id="Grupo_171415" data-name="Grupo 171415" transform="translate(1335 1736.634)">
      <path id="Trazado_101140" data-name="Trazado 101140" d="M570.5,975.225c-3.3,0-4.935-2.637-6.245-4.757-1.327-2.145-2.227-3.46-3.918-3.46s-2.589,1.315-3.913,3.46c-1.31,2.12-2.941,4.757-6.243,4.757s-4.935-2.637-6.245-4.757c-1.326-2.145-2.225-3.46-3.914-3.46s-2.588,1.315-3.913,3.46c-1.311,2.12-2.941,4.757-6.244,4.757s-4.933-2.639-6.242-4.759c-1.326-2.143-2.223-3.458-3.912-3.458s-2.586,1.315-3.911,3.458c-1.31,2.122-2.939,4.759-6.242,4.759s-4.932-2.637-6.242-4.759c-1.325-2.143-2.223-3.458-3.912-3.458a1.369,1.369,0,1,1,0-2.738c3.3,0,4.932,2.637,6.242,4.757,1.324,2.145,2.223,3.46,3.912,3.46s2.586-1.314,3.911-3.46c1.311-2.12,2.941-4.757,6.242-4.757s4.932,2.637,6.241,4.757c1.326,2.145,2.223,3.46,3.913,3.46s2.588-1.314,3.913-3.46c1.31-2.12,2.941-4.757,6.244-4.757s4.933,2.637,6.244,4.757c1.324,2.145,2.223,3.46,3.915,3.46s2.588-1.314,3.913-3.46c1.309-2.12,2.941-4.757,6.243-4.757s4.936,2.637,6.247,4.757c1.327,2.145,2.226,3.46,3.916,3.46s2.591-1.314,3.918-3.46c1.31-2.12,2.942-4.757,6.246-4.757a1.369,1.369,0,1,1,0,2.738c-1.692,0-2.591,1.315-3.917,3.46C575.44,972.587,573.809,975.225,570.5,975.225Z" transform="translate(-498.037 -964.269)" fill="#3d72e8"/>
      <path id="Trazado_101141" data-name="Trazado 101141" d="M570.5,993.676c-3.3,0-4.935-2.639-6.245-4.757-1.327-2.146-2.227-3.462-3.918-3.462s-2.589,1.315-3.913,3.46c-1.31,2.12-2.941,4.758-6.243,4.758s-4.935-2.639-6.245-4.758c-1.326-2.145-2.225-3.46-3.914-3.46s-2.588,1.315-3.913,3.46c-1.311,2.12-2.941,4.758-6.244,4.758s-4.933-2.64-6.242-4.758c-1.326-2.145-2.223-3.46-3.912-3.46s-2.586,1.315-3.911,3.46c-1.31,2.12-2.939,4.758-6.242,4.758s-4.932-2.639-6.242-4.758c-1.325-2.145-2.223-3.46-3.912-3.46a1.369,1.369,0,1,1,0-2.738c3.3,0,4.932,2.639,6.242,4.759,1.324,2.143,2.223,3.458,3.912,3.458s2.586-1.314,3.911-3.458c1.311-2.121,2.941-4.759,6.242-4.759s4.932,2.639,6.241,4.759c1.326,2.143,2.223,3.458,3.913,3.458s2.588-1.314,3.913-3.458c1.31-2.121,2.941-4.759,6.244-4.759s4.933,2.639,6.244,4.759c1.324,2.143,2.223,3.458,3.915,3.458s2.588-1.314,3.913-3.458c1.309-2.121,2.941-4.759,6.243-4.759s4.936,2.639,6.247,4.759c1.327,2.143,2.226,3.458,3.916,3.458s2.591-1.314,3.918-3.458c1.31-2.121,2.942-4.759,6.246-4.759a1.369,1.369,0,1,1,0,2.738c-1.692,0-2.591,1.315-3.917,3.46C575.44,991.037,573.809,993.676,570.5,993.676Z" transform="translate(-498.037 -970.784)" fill="#3d72e8"/>
      <path id="Trazado_101142" data-name="Trazado 101142" d="M570.5,1012.125c-3.3,0-4.935-2.637-6.245-4.758-1.327-2.144-2.227-3.46-3.918-3.46s-2.589,1.315-3.913,3.46c-1.31,2.121-2.941,4.758-6.243,4.758s-4.935-2.637-6.245-4.758c-1.326-2.144-2.225-3.46-3.914-3.46s-2.588,1.315-3.913,3.46c-1.311,2.121-2.941,4.758-6.244,4.758s-4.933-2.637-6.242-4.758c-1.326-2.144-2.223-3.46-3.912-3.46s-2.586,1.315-3.911,3.46c-1.31,2.121-2.939,4.758-6.242,4.758s-4.932-2.637-6.242-4.758c-1.325-2.144-2.223-3.46-3.912-3.46a1.369,1.369,0,1,1,0-2.738c3.3,0,4.932,2.639,6.242,4.759,1.324,2.144,2.223,3.459,3.912,3.459s2.586-1.315,3.911-3.459c1.311-2.12,2.941-4.759,6.242-4.759s4.932,2.639,6.241,4.757c1.326,2.145,2.223,3.46,3.913,3.46s2.588-1.315,3.913-3.46c1.31-2.119,2.941-4.757,6.244-4.757s4.933,2.639,6.244,4.757c1.324,2.145,2.223,3.46,3.915,3.46s2.588-1.315,3.913-3.46c1.309-2.119,2.941-4.757,6.243-4.757s4.936,2.639,6.247,4.757c1.327,2.145,2.226,3.46,3.916,3.46s2.591-1.315,3.918-3.46c1.31-2.119,2.942-4.757,6.246-4.757a1.369,1.369,0,1,1,0,2.738c-1.692,0-2.591,1.315-3.917,3.46C575.44,1009.488,573.809,1012.125,570.5,1012.125Z" transform="translate(-498.037 -977.299)" fill="#3d72e8"/>
    </g>
  </g>
</svg>
