<svg xmlns="http://www.w3.org/2000/svg" xmlns:xlink="http://www.w3.org/1999/xlink" width="49.929" height="49.942" viewBox="0 0 49.929 49.942">
  <defs>
    <clipPath id="clip-path">
      <rect id="Rectángulo_56759" data-name="Rectángulo 56759" width="49.929" height="49.942" fill="#7f0f98"/>
    </clipPath>
  </defs>
  <g id="Grupo_178072" data-name="Grupo 178072" transform="translate(-305.93 -847.55)">
    <g id="Grupo_171470" data-name="Grupo 171470" transform="translate(305.93 847.55)">
      <g id="Grupo_171470-2" data-name="Grupo 171470" clip-path="url(#clip-path)">
        <path id="Trazado_210964" data-name="Trazado 210964" d="M24.018,43.3H8.325v.561q0,2.5,0,4.991c0,.811-.279,1.085-1.1,1.087-1.022,0-2.045.012-3.067,0A4.144,4.144,0,0,1,.009,45.756c-.015-3.657,0-7.314,0-10.97q0-14.3,0-28.6A4.182,4.182,0,0,1,4.5,1.676H43.273c0-.286-.008-.524,0-.761a.821.821,0,0,1,.863-.9c.9-.016,1.8-.037,2.7.008a3.32,3.32,0,0,1,3.082,3.108c.008.138.006.277.006.416q0,18.093,0,36.187a3.337,3.337,0,0,1-2.828,3.5,5.007,5.007,0,0,1-.829.041q-6.4,0-12.79-.007a1.01,1.01,0,0,0-.845.375q-1.653,1.869-3.347,3.7a2.038,2.038,0,0,1-.707.5c-1.588.641-3.188,1.253-4.781,1.88a.869.869,0,0,1-1.248-1.113c.451-1.58.881-3.167,1.318-4.751.05-.181.094-.363.147-.567M1.668,42.47a5.462,5.462,0,0,1,3.745-.857c6.5.008,13,0,19.5.017a1.1,1.1,0,0,0,1.127-.693c-1.2-1.482-2.892-.8-4.362-1.024V38.3c1.986-.008,4.007-.326,5.521,1.437.17-.185.311-.334.449-.487q5.733-6.347,11.464-12.7a3.332,3.332,0,0,1,3.31-1.153,8.6,8.6,0,0,1,.824.248v-.675c-1.6,0-3.176,0-4.751,0-.659,0-1.038-.306-1.043-.825s.376-.836,1.029-.837c1.4,0,2.808,0,4.212,0h.538V17.485c-1.653,0-3.265.006-4.876,0a.832.832,0,1,1,.006-1.656c1.005-.011,2.01,0,3.016,0h1.859V9.165H38.683c-.839,0-1.24-.277-1.231-.846s.4-.818,1.205-.818h4.585V3.34H4.484A2.534,2.534,0,0,0,1.668,6.173q0,17.809,0,35.619ZM44.986,1.68V36.531l3.279.333v-.348q0-16.454,0-32.908c0-.121,0-.243-.006-.364a1.652,1.652,0,0,0-1.59-1.56c-.552-.025-1.105,0-1.683,0m-1.713,30.2L34.5,41.59c.163.015.226.026.29.026,3.932,0,7.864.006,11.8,0a1.66,1.66,0,1,0-.007-3.32c-.71-.014-1.42,0-2.13,0-.928,0-1.18-.248-1.181-1.158,0-1.7,0-3.391,0-5.249M6.621,48.262V43.286c-.9,0-1.767-.032-2.629.007a2.487,2.487,0,0,0-.08,4.957c.891.061,1.79.012,2.709.012m31.8-14.732L27.826,45.261l.619.554,10.592-11.73-.617-.556M26.593,44.142,37.182,32.416l-.619-.556L25.973,43.588l.62.554M42.376,30.371c.607-.621,1.2-1.21.92-2.172a1.578,1.578,0,0,0-1.357-1.189c-.954-.147-1.482.474-2.006,1.156l2.444,2.206m-4.685.252,2.463,2.226,1.112-1.236-2.472-2.229-1.1,1.239M24.555,47.644l2.386-.936-1.7-1.536-.683,2.473" transform="translate(0 0.001)" fill="#7f0f98"/>
        <path id="Trazado_210965" data-name="Trazado 210965" d="M29.73,52.66c0-.538-.007-1.036,0-1.534a.847.847,0,0,1,.968-.952q3.2-.009,6.4,0c.643,0,.94.315.954.967.005.243,0,.485,0,.728v.8h.572c1.768,0,3.536-.017,5.3.006a4.98,4.98,0,0,1,1.167,9.812,6.294,6.294,0,0,1-1.491.16c-4.871.012-9.741,0-14.612.009A3.326,3.326,0,0,0,28.8,69.3c.568.017,1.137,0,1.734,0v1.586c-2.818.441-5.415-.5-6.391-3.427a4.9,4.9,0,0,1,3.135-6.181A6.132,6.132,0,0,1,29.16,61c4.87-.023,9.741-.008,14.611-.015a3.323,3.323,0,0,0,3.43-3.35,3.254,3.254,0,0,0-3.011-3.273c-2.021-.083-4.049-.019-6.14-.019,0,.743,0,1.464,0,2.186,0,.857-.272,1.184-1.1,1.114a1.33,1.33,0,0,0-1.484.8,9.495,9.495,0,0,1-.857,1.3.816.816,0,0,1-1.425,0c-.413-.577-.776-1.191-1.2-1.76a.8.8,0,0,0-.567-.309c-1.735.07-1.719-.359-1.685-1.714.013-.518,0-1.037,0-1.58-.586-.048-1.155-.054-1.709-.145a4.976,4.976,0,0,1,.683-9.875c2.5-.044,4.992-.013,7.488-.015h.655c-.361-.379-.653-.666-.923-.972a4.5,4.5,0,0,1-.157-5.94,4.161,4.161,0,0,1,5.208-.843,4.287,4.287,0,0,1,1.818,5.152,6.419,6.419,0,0,1-1.909,2.6c.582,0,1.037.008,1.491,0a14.421,14.421,0,0,0,2.123-.083,3.234,3.234,0,0,0,2.7-3.224c.019-1.629.011-3.258.016-4.887a.5.5,0,0,1,.024-.087h1.628c0,.389,0,.782,0,1.175a40.4,40.4,0,0,1-.1,4.515A4.841,4.841,0,0,1,43.8,46.008q-7.358.017-14.716,0a3.491,3.491,0,0,0-2.229.713,3.322,3.322,0,0,0,1.8,5.936c.341.022.684,0,1.076,0m4.163,5.128c.692-.843.967-2.187,2.468-1.77V51.868H31.43v4.173c1.525-.428,1.754.924,2.463,1.747m5.022-13.869c.564-.552,1.162-1.083,1.688-1.677a3.319,3.319,0,0,0,.628-1.119,2.556,2.556,0,0,0-.817-2.9,2.467,2.467,0,0,0-2.823-.165,2.7,2.7,0,0,0-.519,4.081,24.234,24.234,0,0,0,1.843,1.781" transform="translate(-20.573 -31.021)" fill="#7f0f98"/>
        <path id="Trazado_210966" data-name="Trazado 210966" d="M221.409,44.871c0,.659.007,1.317,0,1.976a.849.849,0,0,1-.956.965q-1.95.013-3.9,0a.845.845,0,0,1-.964-.956q-.013-1.95,0-3.9a.844.844,0,0,1,.955-.964q1.95-.012,3.9,0a.848.848,0,0,1,.965.955c.009.641,0,1.283,0,1.924m-4.137,1.252h2.442V43.69h-2.442Z" transform="translate(-185.626 -36.152)" fill="#7f0f98"/>
        <path id="Trazado_210967" data-name="Trazado 210967" d="M218.462,101.709c-.624,0-1.248,0-1.872,0-.689-.007-1-.3-1-.97q-.011-1.95,0-3.9a.844.844,0,0,1,.967-.951q1.95-.011,3.9,0a.846.846,0,0,1,.952.968q.011,1.95,0,3.9c0,.642-.318.944-.968.952s-1.317,0-1.976,0m1.259-4.124h-2.432v2.433h2.432Z" transform="translate(-185.625 -82.558)" fill="#7f0f98"/>
        <path id="Trazado_210968" data-name="Trazado 210968" d="M218.494,149.783c.659,0,1.317-.008,1.976,0a.837.837,0,0,1,.933.934q.015,1.976,0,3.952a.836.836,0,0,1-.934.933q-1.976.015-3.952,0a.834.834,0,0,1-.932-.934q-.014-1.976,0-3.952a.835.835,0,0,1,.933-.933c.658-.011,1.317,0,1.976,0m-1.224,4.124H219.7v-2.434H217.27Z" transform="translate(-185.623 -128.968)" fill="#7f0f98"/>
        <rect id="Rectángulo_56756" data-name="Rectángulo 56756" width="1.616" height="1.588" transform="translate(11.691 38.322)" fill="#7f0f98"/>
        <rect id="Rectángulo_56757" data-name="Rectángulo 56757" width="1.609" height="1.6" transform="translate(15.013 38.316)" fill="#7f0f98"/>
        <rect id="Rectángulo_56758" data-name="Rectángulo 56758" width="1.597" height="1.606" transform="translate(18.348 38.322)" fill="#7f0f98"/>
        <path id="Trazado_210969" data-name="Trazado 210969" d="M126.643,61.659a.828.828,0,1,1,.823-.833.836.836,0,0,1-.823.833" transform="translate(-108.329 -51.665)" fill="#7f0f98"/>
      </g>
    </g>
  </g>
</svg>
