<svg xmlns="http://www.w3.org/2000/svg" xmlns:xlink="http://www.w3.org/1999/xlink" width="95" height="95" viewBox="0 0 95 95">
  <defs>
    <clipPath id="clip-path">
      <rect id="Rectángulo_54408" data-name="Rectángulo 54408" width="40.41" height="51.444" fill="none"/>
    </clipPath>
  </defs>
  <g id="Grupo_178103" data-name="Grupo 178103" transform="translate(-174 -1205)">
    <circle id="Elipse_5396" data-name="Elipse 5396" cx="47.5" cy="47.5" r="47.5" transform="translate(174 1205)" fill="#e8e8e8"/>
    <g id="Grupo_166186" data-name="Grupo 166186" transform="translate(198 1222)">
      <g id="Grupo_166185" data-name="Grupo 166185" transform="translate(3 4.999)" clip-path="url(#clip-path)">
        <path id="Trazado_205921" data-name="Trazado 205921" d="M21,0c.223.061.445.125.669.181a5.332,5.332,0,0,1,3.72,3.1.616.616,0,0,0,.667.441c1.021-.022,2.043-.01,3.065-.006.876,0,1.575.234,1.471,1.464-.042.5-.007,1-.007,1.577.24,0,.432,0,.624,0,1.59.026,3.189-.052,4.766.1a5.04,5.04,0,0,1,4.407,4.952c.018,2.295,0,4.589,0,6.884,0,9.212-.048,18.425.027,27.636a5,5,0,0,1-4.895,5.1c-.167.009-.335.009-.5.009q-14.823,0-29.646,0A5.5,5.5,0,0,1,1.273,49.85,4.17,4.17,0,0,1,0,46.828Q0,29.317.007,11.806A5.163,5.163,0,0,1,5.214,6.759c1.323-.024,2.646,0,3.97,0H9.8c0-.637,0-1.235,0-1.833.006-.8.343-1.172,1.152-1.193,1.1-.029,2.211,0,3.316-.029a.663.663,0,0,0,.506-.259A5.576,5.576,0,0,1,19.161.078c.045-.007.084-.05.126-.077Zm9.6,9.2c0,.961.006,1.879,0,2.8a1.321,1.321,0,0,1-1.464,1.463q-8.968,0-17.936,0a1.271,1.271,0,0,1-1.4-1.4c-.012-.8-.02-1.608,0-2.411.012-.381-.125-.489-.493-.483-1.289.018-2.579,0-3.869.008a2.793,2.793,0,0,0-3.026,3.042q0,13.465,0,26.93c0,2.5,0,4.991,0,7.486a1.993,1.993,0,0,0,1.2,1.98,4.76,4.76,0,0,0,1.834.4q14.746.036,29.492.017c.117,0,.234,0,.352,0a2.5,2.5,0,0,0,2.692-2.787q0-17.032,0-34.064a2.785,2.785,0,0,0-2.966-3c-1.289-.011-2.579,0-3.869,0-.163,0-.326.018-.546.031m-2.5-3.053c-1.114,0-2.167,0-3.219,0a1.372,1.372,0,0,1-1.467-1.111c-.042-.145-.073-.293-.123-.434a3.332,3.332,0,0,0-4.8-1.841,3.492,3.492,0,0,0-1.7,2.267,1.3,1.3,0,0,1-1.439,1.12c-.838,0-1.675,0-2.513,0-.177,0-.354.017-.574.029,0,1.441.019,2.829-.01,4.216-.01.475.116.628.609.626,4.891-.017,9.782-.01,14.673-.012.179,0,.358-.023.561-.036Z" transform="translate(0.001 -0.001)"/>
        <path id="Trazado_205922" data-name="Trazado 205922" d="M121.76,254.23q3.314,0,6.628,0a2.729,2.729,0,0,1,.694.074,1.191,1.191,0,0,1-.121,2.317,3.515,3.515,0,0,1-.6.043q-6.653,0-13.306,0a3.815,3.815,0,0,1-.6-.039,1.193,1.193,0,0,1-.119-2.329,2.878,2.878,0,0,1,.7-.067q3.364-.007,6.728,0" transform="translate(-95.685 -214.406)"/>
        <path id="Trazado_205923" data-name="Trazado 205923" d="M121.685,131.541c-2.293,0-4.586,0-6.879,0a1.2,1.2,0,0,1-1.345-1.062,1.175,1.175,0,0,1,.966-1.319,3.078,3.078,0,0,1,.6-.037q6.678,0,13.355,0a2.673,2.673,0,0,1,.742.084,1.19,1.19,0,0,1-.211,2.31,4.685,4.685,0,0,1-.6.025q-3.314,0-6.628,0" transform="translate(-95.683 -108.893)"/>
        <path id="Trazado_205924" data-name="Trazado 205924" d="M121.722,191.752c2.259,0,4.519-.017,6.778.017a1.968,1.968,0,0,1,1.085.381,1.011,1.011,0,0,1,.27,1.193,1.18,1.18,0,0,1-.944.8,1.52,1.52,0,0,1-.3.018q-6.929,0-13.858,0a1.214,1.214,0,0,1-1.3-1,1.175,1.175,0,0,1,1.194-1.4c1.154-.021,2.31-.008,3.464-.008h3.615" transform="translate(-95.664 -161.712)"/>
        <path id="Trazado_205925" data-name="Trazado 205925" d="M42.923,239.207c1.214-1.156,2.432-2.35,3.7-3.492a1.913,1.913,0,0,1,1.1-.459,1.187,1.187,0,0,1,.745,2.04c-1.6,1.525-3.193,3.049-4.808,4.554a1.125,1.125,0,0,1-1.7-.068q-1.2-1.209-2.384-2.44a1.211,1.211,0,1,1,1.736-1.652c.513.5,1.042.983,1.61,1.516" transform="translate(-33.006 -198.403)"/>
        <path id="Trazado_205926" data-name="Trazado 205926" d="M42.942,176.464c1.2-1.146,2.445-2.338,3.7-3.521a1.233,1.233,0,0,1,1.677-.187,1.167,1.167,0,0,1,.062,1.9c-1.315,1.263-2.643,2.513-3.965,3.767-.255.242-.5.494-.77.719a1.138,1.138,0,0,1-1.665-.052q-1.245-1.239-2.454-2.513a1.247,1.247,0,0,1-.029-1.8,1.216,1.216,0,0,1,1.749.132c.546.514,1.105,1.014,1.7,1.556" transform="translate(-32.996 -145.485)"/>
        <path id="Trazado_205927" data-name="Trazado 205927" d="M42.9,113.878l3.1-2.949c.242-.231.474-.474.728-.69a1.2,1.2,0,0,1,1.747.107A1.118,1.118,0,0,1,48.409,112q-2.37,2.276-4.769,4.522a1.115,1.115,0,0,1-1.66,0q-1.28-1.274-2.522-2.585a1.2,1.2,0,0,1-.2-1.481,1.026,1.026,0,0,1,1.184-.547,2.015,2.015,0,0,1,.8.458c.548.464,1.065.965,1.654,1.507" transform="translate(-32.968 -92.695)"/>
      </g>
    </g>
  </g>
</svg>
