<svg xmlns="http://www.w3.org/2000/svg" xmlns:xlink="http://www.w3.org/1999/xlink" width="95" height="95" viewBox="0 0 95 95">
  <defs>
    <clipPath id="clip-path">
      <rect id="Rectángulo_54409" data-name="Rectángulo 54409" width="54.787" height="54.725" fill="none"/>
    </clipPath>
  </defs>
  <g id="Grupo_178105" data-name="Grupo 178105" transform="translate(-818 -1205)">
    <circle id="Elipse_5395" data-name="Elipse 5395" cx="47.5" cy="47.5" r="47.5" transform="translate(818 1205)" fill="#e8e8e8"/>
    <g id="Grupo_166188" data-name="Grupo 166188" transform="translate(838 1225)">
      <g id="Grupo_166187" data-name="Grupo 166187" clip-path="url(#clip-path)">
        <path id="Trazado_205928" data-name="Trazado 205928" d="M134.934,139.645a3.5,3.5,0,0,1-2.737-3.859q0-3.107,0-6.214a3.375,3.375,0,0,1,3.561-3.585q3.734-.008,7.468,0a3.375,3.375,0,0,1,3.564,3.582c0,2.09,0,4.181,0,6.271a3.486,3.486,0,0,1-2.737,3.8v.6q0,4.076,0,8.152a2.93,2.93,0,0,1-3.134,3.135c-.988,0-1.976.007-2.964,0a2.909,2.909,0,0,1-3.02-3.017c-.009-2.736,0-5.473,0-8.209v-.656m5.473,10.021c1.445.124,1.824-.221,1.824-1.587q0-4.53,0-9.061c0-.841.285-1.136,1.106-1.173a1.556,1.556,0,0,0,1.626-1.666q.015-3.362,0-6.724a1.538,1.538,0,0,0-1.646-1.64q-3.818-.015-7.636,0a1.54,1.54,0,0,0-1.656,1.631q-.017,3.39,0,6.781a1.545,1.545,0,0,0,1.558,1.617c.915.05,1.173.316,1.174,1.221q0,4.559,0,9.118c0,1.274.509,1.689,1.824,1.445v-10.3c0-.133,0-.266,0-.4.013-.673.354-1.08.906-1.084s.914.405.916,1.073q.008,3.9,0,7.807v2.936" transform="translate(-112.098 -106.83)"/>
        <path id="Trazado_205929" data-name="Trazado 205929" d="M12.7,12.266a7.377,7.377,0,0,1-10.205.526A7.293,7.293,0,0,1,10.454.731a7.1,7.1,0,0,1,3.778,4.344,7.231,7.231,0,0,1-.514,5.7l6.339,4.508c.108.077.218.152.325.231q.961.7.455,1.429c-.34.49-.852.515-1.49.063-1.068-.758-2.132-1.521-3.2-2.281-1.142-.813-2.285-1.624-3.452-2.454M7.371,1.83A5.472,5.472,0,1,0,12.8,7.343,5.483,5.483,0,0,0,7.371,1.83" transform="translate(0 -0.004)"/>
        <path id="Trazado_205930" data-name="Trazado 205930" d="M229.87,252.917l-2.954-2.1q-1.833-1.3-3.666-2.609c-.582-.415-.732-.934-.415-1.4s.869-.5,1.447-.094q3.275,2.323,6.545,4.653a.919.919,0,0,0,.112.046,7.328,7.328,0,0,1,6.654-2.189,7.12,7.12,0,0,1,4.3,2.476,7.3,7.3,0,1,1-12.026,1.219m.942,3.5a5.472,5.472,0,1,0,5.45-5.494,5.483,5.483,0,0,0-5.45,5.494" transform="translate(-188.818 -208.965)"/>
        <path id="Trazado_205931" data-name="Trazado 205931" d="M230.7,12.271l-6.428,4.584a5.383,5.383,0,0,1-.519.35.8.8,0,0,1-1.111-.238.837.837,0,0,1,.042-1.145,2.43,2.43,0,0,1,.443-.355c2.175-1.559,4.351-3.116,6.556-4.695a7.307,7.307,0,0,1-.247-6.385A7.087,7.087,0,0,1,232.949.729a7.291,7.291,0,0,1,8.118,11.917,7.391,7.391,0,0,1-10.369-.374M230.61,7.31a5.472,5.472,0,1,0,5.46-5.484,5.483,5.483,0,0,0-5.46,5.484" transform="translate(-188.617 0)"/>
        <path id="Trazado_205932" data-name="Trazado 205932" d="M14.392,251.408c2.252-1.607,4.475-3.194,6.7-4.778a.888.888,0,0,1,1.306.125.9.9,0,0,1-.218,1.3c-.1.085-.215.156-.323.234q-2.965,2.118-5.93,4.237c-.168.12-.331.249-.492.37a7.218,7.218,0,0,1-3.06,9.664,7.129,7.129,0,1,1,2.015-11.155M3.537,256.362A5.472,5.472,0,1,0,9.024,250.9a5.483,5.483,0,0,0-5.487,5.457" transform="translate(-1.681 -208.942)"/>
        <path id="Trazado_205933" data-name="Trazado 205933" d="M14.756,140.192a7.344,7.344,0,0,1-8,6.343,7.293,7.293,0,0,1,0-14.515,7.346,7.346,0,0,1,8,6.347c.837,0,1.687,0,2.537,0,.719,0,1.136.341,1.137.91s-.419.908-1.136.912c-.835,0-1.669,0-2.537,0m-7.238-6.385a5.472,5.472,0,1,0,5.44,5.5,5.483,5.483,0,0,0-5.44-5.5" transform="translate(-0.159 -111.913)"/>
        <path id="Trazado_205934" data-name="Trazado 205934" d="M243.926,140.187c-.859,0-1.692,0-2.524,0-.753,0-1.185-.352-1.169-.936.016-.565.428-.884,1.159-.887.833,0,1.666,0,2.534,0a7.3,7.3,0,0,1,3.524-5.349,7.114,7.114,0,0,1,5.153-.9,7.3,7.3,0,1,1-8.677,8.071m7.256,4.56a5.473,5.473,0,1,0-5.479-5.466,5.484,5.484,0,0,0,5.479,5.466" transform="translate(-203.708 -111.908)"/>
        <path id="Trazado_205935" data-name="Trazado 205935" d="M156.214,69.635a3.647,3.647,0,1,1,3.641,3.668,3.654,3.654,0,0,1-3.641-3.668m3.622,1.841a1.822,1.822,0,1,0-1.8-1.832,1.831,1.831,0,0,0,1.8,1.832" transform="translate(-132.464 -55.971)"/>
      </g>
    </g>
  </g>
</svg>
