<svg xmlns="http://www.w3.org/2000/svg" xmlns:xlink="http://www.w3.org/1999/xlink" width="95" height="95" viewBox="0 0 95 95">
  <defs>
    <clipPath id="clip-path">
      <rect id="Rectángulo_54131" data-name="Rectángulo 54131" width="56.532" height="56.64" fill="none"/>
    </clipPath>
  </defs>
  <g id="Grupo_178061" data-name="Grupo 178061" transform="translate(-85 -643)">
    <circle id="Elipse_5382" data-name="Elipse 5382" cx="47.5" cy="47.5" r="47.5" transform="translate(85 643)" fill="#e8e8e8"/>
    <g id="Grupo_178060" data-name="Grupo 178060">
      <g id="Grupo_178054" data-name="Grupo 178054" transform="translate(-205)">
        <g id="Grupo_178051" data-name="Grupo 178051">
          <g id="Grupo_178049" data-name="Grupo 178049">
            <g id="Grupo_165751" data-name="Grupo 165751" transform="translate(309 662)">
              <g id="Grupo_165750" data-name="Grupo 165750" clip-path="url(#clip-path)">
                <path id="Trazado_205595" data-name="Trazado 205595" d="M0,45.467V4.757a1.437,1.437,0,0,0,.1-.244,5.18,5.18,0,0,1,2.213-3.43A16.754,16.754,0,0,1,4.748,0H51.783a12.594,12.594,0,0,1,1.544.542,5.43,5.43,0,0,1,3.2,5.189q.015,19.412,0,38.824c0,.11,0,.221,0,.332A3.83,3.83,0,0,1,52.9,48.7c-.468.04-.94.045-1.423.066v5.665H52.1c1.085,0,2.171-.007,3.257.005a1.083,1.083,0,0,1,1.1.759,1.036,1.036,0,0,1-.349,1.189c-.107.1-.23.173-.346.258H0V55.2a1.542,1.542,0,0,1,1.564-.784c1.153.036,2.308.01,3.478.01v-5.7H4.072A3.638,3.638,0,0,1,1,47.4a12.147,12.147,0,0,1-1-1.929m17.445,8.947v-.706q0-11.062,0-22.124c0-1.2.353-1.559,1.538-1.561q3.064,0,6.128,0c1.267,0,1.608.341,1.608,1.6q0,11.062,0,22.125v.636h3.092v-.7q0-6.416,0-12.832c0-1.086.38-1.466,1.461-1.467q3.147,0,6.293,0c1.161,0,1.519.359,1.519,1.521q0,6.444,0,12.888v.6h3.092v-.639q0-5.365,0-10.73c0-.148-.006-.3,0-.442a1.1,1.1,0,1,1,2.2.027c.007.147,0,.295,0,.442q0,5.393,0,10.786v.561H49.2V30.627H44.386v.581q0,1.742,0,3.485c0,.941-.414,1.483-1.117,1.473s-1.089-.545-1.091-1.5v-.055q0-2.351,0-4.7c0-1.163.359-1.531,1.505-1.534q3.119-.006,6.238,0c1.187,0,1.53.356,1.531,1.564q0,7.937,0,15.874v.7h.767c1.528,0,2.1-.575,2.1-2.1q0-16.787,0-33.574v-.624H2.208v.487q0,16.925,0,33.851c0,.147,0,.3.01.442a1.572,1.572,0,0,0,1.243,1.444,11.906,11.906,0,0,0,1.617.014c0-.238,0-.456,0-.675-.01-3.851-.311-3.534,3.547-3.528q2.043,0,4.085,0c1.323,0,1.642.315,1.642,1.619q0,4.978,0,9.956v.58ZM2.224,7.929h52.1c0-.66,0-1.284,0-1.907,0-2.5-1.313-3.809-3.814-3.809H6.028c-.239,0-.479,0-.717.016A3.274,3.274,0,0,0,2.235,5.3c-.06.86-.011,1.727-.011,2.631M19.691,54.383h4.793V32.266H19.691ZM36.839,41.64h-4.79V54.4h4.79ZM12.135,44.5H7.325v9.879h4.81Z"/>
                <path id="Trazado_205596" data-name="Trazado 205596" d="M46.9,121.406c.131-.124.266-.246.395-.375q2.869-2.873,5.742-5.743a.609.609,0,0,0,.174-.836,3.963,3.963,0,0,1,5.877-4.9,3.97,3.97,0,0,1,1.391,4.714.639.639,0,0,0,.171.838q3.468,3.446,6.908,6.92a.688.688,0,0,0,.854.213,3.545,3.545,0,0,1,2.79.07.536.536,0,0,0,.714-.126q3.344-3.375,6.714-6.723a.477.477,0,0,0,.093-.7A3.958,3.958,0,0,1,84.2,109.4a3.972,3.972,0,0,1-1.99,7.377,2.787,2.787,0,0,1-.979-.128.757.757,0,0,0-.915.235q-3.378,3.418-6.788,6.805a.611.611,0,0,0-.167.8,3.959,3.959,0,1,1-7.249-.2.546.546,0,0,0-.131-.749q-3.468-3.447-6.909-6.92a.571.571,0,0,0-.758-.153,3.6,3.6,0,0,1-2.791.073.626.626,0,0,0-.775.152q-2.97,3.006-5.971,5.982a.537.537,0,0,0-.14.705,3.958,3.958,0,1,1-7.5,2.432,3.778,3.778,0,0,1,1.145-3.779,3.861,3.861,0,0,1,3.993-.882c.209.063.407.162.634.255m35.3-10.367a1.766,1.766,0,1,0,1.716,1.8,1.773,1.773,0,0,0-1.716-1.8M71.45,125.983a1.762,1.762,0,1,0-1.754,1.756,1.771,1.771,0,0,0,1.754-1.756m-12.894-13.2a1.748,1.748,0,0,0-1.753-1.746,1.767,1.767,0,1,0,1.753,1.746M46.739,124.894a1.745,1.745,0,0,0-1.757-1.741,1.758,1.758,0,1,0,.041,3.516,1.731,1.731,0,0,0,1.716-1.775" transform="translate(-35.346 -93.781)"/>
                <path id="Trazado_205597" data-name="Trazado 205597" d="M40.533,102.994c-.828,0-1.656.009-2.484,0a1.113,1.113,0,1,1,.013-2.206q2.484-.016,4.967,0a1.113,1.113,0,1,1-.012,2.206c-.828.011-1.656,0-2.484,0" transform="translate(-31.706 -86.842)"/>
                <path id="Trazado_205598" data-name="Trazado 205598" d="M40.484,141.395c-.809,0-1.619.008-2.428,0a1.113,1.113,0,1,1,0-2.206q2.483-.017,4.967,0a1.113,1.113,0,1,1,0,2.206c-.846.011-1.693,0-2.539,0" transform="translate(-31.706 -119.932)"/>
                <path id="Trazado_205599" data-name="Trazado 205599" d="M107.04,101.958a1.1,1.1,0,0,1-1.064,1.118,1.1,1.1,0,0,1-.038-2.2,1.1,1.1,0,0,1,1.1,1.078" transform="translate(-90.36 -86.93)"/>
                <path id="Trazado_205600" data-name="Trazado 205600" d="M307.257,275.376a1.1,1.1,0,1,1-1.078-1.1,1.113,1.113,0,0,1,1.078,1.1" transform="translate(-262.88 -236.348)"/>
                <path id="Trazado_205601" data-name="Trazado 205601" d="M182.939,28.794h11.976a4.376,4.376,0,0,1,.606.018,1.091,1.091,0,0,1,.013,2.173,3.7,3.7,0,0,1-.55.02H170.922c-1,0-1.541-.387-1.546-1.1s.542-1.112,1.533-1.113h12.031" transform="translate(-145.954 -24.812)"/>
                <path id="Trazado_205602" data-name="Trazado 205602" d="M45.373,29.963a1.095,1.095,0,1,1-1.1-1.1,1.143,1.143,0,0,1,1.1,1.1" transform="translate(-37.212 -24.875)"/>
                <path id="Trazado_205603" data-name="Trazado 205603" d="M77.311,29.978a1.1,1.1,0,1,1-1.08-1.112,1.14,1.14,0,0,1,1.08,1.112" transform="translate(-64.733 -24.874)"/>
                <path id="Trazado_205604" data-name="Trazado 205604" d="M108.179,28.864a1.1,1.1,0,1,1-1.121,1.071,1.138,1.138,0,0,1,1.121-1.071" transform="translate(-92.254 -24.873)"/>
              </g>
            </g>
          </g>
        </g>
      </g>
    </g>
  </g>
</svg>
