<svg xmlns="http://www.w3.org/2000/svg" xmlns:xlink="http://www.w3.org/1999/xlink" width="95" height="95" viewBox="0 0 95 95">
  <defs>
    <clipPath id="clip-path">
      <rect id="Rectángulo_55814" data-name="Rectángulo 55814" width="62.297" height="54.259" fill="none"/>
    </clipPath>
  </defs>
  <g id="Grupo_178048" data-name="Grupo 178048" transform="translate(-753 -1770)">
    <circle id="Elipse_5402" data-name="Elipse 5402" cx="47.5" cy="47.5" r="47.5" transform="translate(753 1770)" fill="#e8e8e8"/>
    <g id="Grupo_169610" data-name="Grupo 169610" transform="translate(769 1790)">
      <g id="Grupo_169608" data-name="Grupo 169608" clip-path="url(#clip-path)">
        <path id="Trazado_209031" data-name="Trazado 209031" d="M31.178,0H56.86A5.051,5.051,0,0,1,62.3,5.449q0,21.695,0,43.39a5.048,5.048,0,0,1-5.4,5.42q-25.745,0-51.49,0A5.048,5.048,0,0,1,0,48.841Q0,27.115,0,5.389A5.042,5.042,0,0,1,5.37,0q12.9,0,25.808,0M2.01,14.092v.692q0,17.045,0,34.089A3.049,3.049,0,0,0,5.39,52.249H56.932a3.042,3.042,0,0,0,3.355-3.337q0-17.076,0-34.152v-.668Zm.009-2.073H60.288c0-2.19,0-4.342,0-6.493,0-2.365-1.142-3.515-3.49-3.515H5.512c-.23,0-.461-.007-.69.008A2.947,2.947,0,0,0,2.035,4.761c-.061,2.4-.016,4.807-.016,7.258" transform="translate(0 -0.001)"/>
        <path id="Trazado_209032" data-name="Trazado 209032" d="M31.922,116.747a1.8,1.8,0,0,0-.712-2.074A5.508,5.508,0,0,1,29.421,112a.5.5,0,0,0-.584-.406,8.378,8.378,0,0,1-1.066,0,2.989,2.989,0,0,1-2.725-2.3,2.875,2.875,0,0,1,1.352-3.23,1.007,1.007,0,0,0,.574-1.077A8.764,8.764,0,0,1,31.409,96.8a8.542,8.542,0,0,1,9.018-.1,8.758,8.758,0,0,1,4.619,7.764,2.346,2.346,0,0,1,0,.376,1.105,1.105,0,0,0,.659,1.282,2.832,2.832,0,0,1,1.248,3.213,2.8,2.8,0,0,1-2.7,2.223,1.8,1.8,0,0,0-2.1,1.335,4.459,4.459,0,0,1-1.393,1.816,1.8,1.8,0,0,0-.674,2.021c1.215.163,2.474.306,3.724.5a4.964,4.964,0,0,1,4.25,4.921c.022,2.113.01,4.226,0,6.339,0,.818-.373,1.188-1.194,1.188q-10.859.006-21.718,0c-.844,0-1.2-.374-1.2-1.246q-.007-2.95,0-5.9a5.085,5.085,0,0,1,4.931-5.412c1.017-.1,2.03-.249,3.043-.374m-.936-11.179c0,1.453-.029,2.831.006,4.207a5.023,5.023,0,0,0,4.59,4.821,4.871,4.871,0,0,0,5.3-4.053,38.55,38.55,0,0,0,.04-4.97A4.256,4.256,0,0,1,38,104.218a4.551,4.551,0,0,1-3.858,1.358c-1.022-.041-2.047-.008-3.156-.008m-1.958-1.694a6.919,6.919,0,0,1,1.337-.3c1.422-.039,2.846-.014,4.269-.015a2.051,2.051,0,0,0,2.381-2.069,1,1,0,0,1,2-.006,2.086,2.086,0,0,0,2.376,2.089,10.627,10.627,0,0,1,1.589.274,7.009,7.009,0,0,0-13.951.028m9.287,18.651a8.672,8.672,0,0,0-.139,1.751c.12.972.4,1.922.555,2.891.069.447.266.516.659.513,2.051-.016,4.1-.007,6.152-.009.159,0,.319-.027.5-.043,0-1.941.047-3.844-.016-5.743a2.866,2.866,0,0,0-2.32-2.631,11.4,11.4,0,0,0-1.8-.233.8.8,0,0,0-.6.343c-.438.783-.817,1.6-1.222,2.4-.424.842-.689.973-1.766.758m-4.787.035c-.911.177-1.173.046-1.6-.792q-.4-.783-.788-1.568c-.6-1.205-.6-1.207-1.968-1.073a7.433,7.433,0,0,0-.745.1,2.973,2.973,0,0,0-2.47,2.969c-.014,1.025,0,2.051,0,3.076,0,.787,0,1.574,0,2.4,2.356,0,4.634.006,6.91-.016.127,0,.33-.218.364-.366.2-.855.315-1.729.537-2.576a2.717,2.717,0,0,0-.242-2.154m.449-6.063c-.008,1.147,1.11,1.366,1.811,1.7.774.372,1.315-.623,1.973-.982.191-.1.213-.519.287-.721Zm-5.038-6.927v-2c-.651.059-1.381-.233-1.774.466a1.287,1.287,0,0,0,0,1.084c.4.688,1.117.431,1.772.446m14.132-1.976v1.976c.656-.014,1.378.241,1.772-.448a1.281,1.281,0,0,0,0-1.083c-.4-.689-1.117-.429-1.771-.445m-6.294,20.047c-.182-.923-.349-1.8-.536-2.675-.024-.111-.158-.2-.24-.3-.08.1-.209.192-.234.305-.187.874-.354,1.752-.535,2.667Zm-.111-6.313c-.164-.111-.419-.421-.629-.393-.249.033-.683.429-.647.543.129.407-.011,1.014.593,1.162.263.065.672-.66.683-1.312m-3.846-2.605-.112.1.681,1.367.791-.561-1.36-.9m6.476.113-.11-.114-1.361.923.81.511.66-1.32" transform="translate(-19.928 -79.443)"/>
        <path id="Trazado_209033" data-name="Trazado 209033" d="M179.65,134.842q0-6.845,0-13.69c0-1.072.31-1.384,1.377-1.384H206.4c1.071,0,1.386.312,1.386,1.377q0,13.69,0,27.38c0,1.07-.314,1.386-1.379,1.386h-25.37c-1.071,0-1.384-.312-1.384-1.379q0-6.845,0-13.69m26.1-13.021H181.709v26.047h24.037Z" transform="translate(-149.506 -99.671)"/>
        <path id="Trazado_209034" data-name="Trazado 209034" d="M318.258,29.16l-1.539,1.459a.074.074,0,0,1-.066-.012,1.7,1.7,0,0,0-1.958-.664,2.8,2.8,0,0,1-3.047-1.8,3.007,3.007,0,0,1,4.395-3.692,2.917,2.917,0,0,1,1.272,3.261c-.131.443-.112.757.276,1.015.21.14.423.275.668.433m-3.835-3.177a1,1,0,1,0,1,.987,1.008,1.008,0,0,0-1-.987" transform="translate(-259.157 -19.949)"/>
        <path id="Trazado_209035" data-name="Trazado 209035" d="M26.984,30a3.011,3.011,0,1,1,3.007-3.047A3.021,3.021,0,0,1,26.984,30m1-2.994a1,1,0,1,0-1,.983,1.009,1.009,0,0,0,1-.983" transform="translate(-19.948 -19.957)"/>
        <path id="Trazado_209036" data-name="Trazado 209036" d="M71.908,27.025a3.011,3.011,0,1,1-2.942-3.047,3.026,3.026,0,0,1,2.942,3.047m-2.009-.02a1,1,0,1,0-1,.983,1.009,1.009,0,0,0,1-.983" transform="translate(-54.832 -19.954)"/>
        <path id="Trazado_209037" data-name="Trazado 209037" d="M113.826,27.008a3.011,3.011,0,1,1-2.96-3.029,3.026,3.026,0,0,1,2.96,3.029m-2.985-1.019A1,1,0,1,0,111.817,27a1.01,1.01,0,0,0-.976-1.009" transform="translate(-89.716 -19.955)"/>
        <path id="Trazado_209038" data-name="Trazado 209038" d="M206.613,245.582a3.011,3.011,0,1,1,3.027-3.028,3.021,3.021,0,0,1-3.027,3.028m1.017-3.036a1,1,0,1,0-.961,1.025,1.008,1.008,0,0,0,.961-1.025" transform="translate(-169.453 -199.364)"/>
        <path id="Trazado_209039" data-name="Trazado 209039" d="M209.64,146.748a3.011,3.011,0,1,1-2.988-3,3.025,3.025,0,0,1,2.988,3m-2.009,0a1,1,0,1,0-.974,1.012,1.007,1.007,0,0,0,.974-1.012" transform="translate(-169.454 -119.627)"/>
        <path id="Trazado_209040" data-name="Trazado 209040" d="M209.64,194.652a3.011,3.011,0,1,1-2.991-3,3.024,3.024,0,0,1,2.991,3m-2.009.032a1,1,0,1,0-1,.98,1.009,1.009,0,0,0,1-.98" transform="translate(-169.453 -159.496)"/>
        <rect id="Rectángulo_55811" data-name="Rectángulo 55811" width="11.978" height="1.934" transform="translate(42.23 26.157)"/>
        <rect id="Rectángulo_55812" data-name="Rectángulo 55812" width="11.978" height="1.933" transform="translate(42.23 34.196)"/>
        <rect id="Rectángulo_55813" data-name="Rectángulo 55813" width="11.99" height="1.935" transform="translate(42.24 42.233)"/>
      </g>
    </g>
  </g>
</svg>
