<svg xmlns="http://www.w3.org/2000/svg" xmlns:xlink="http://www.w3.org/1999/xlink" width="52.35" height="76.189" viewBox="0 0 52.35 76.189">
  <defs>
    <clipPath id="clip-path">
      <rect id="Rectángulo_54157" data-name="Rectángulo 54157" width="52.35" height="76.189" fill="#9e9e9e"/>
    </clipPath>
  </defs>
  <g id="Grupo_165799" data-name="Grupo 165799" transform="translate(0 0)">
    <g id="Grupo_165798" data-name="Grupo 165798" transform="translate(0 0)" clip-path="url(#clip-path)">
      <path id="Trazado_205647" data-name="Trazado 205647" d="M16.181,70.213a3.933,3.933,0,0,1-1.01-.139,3.171,3.171,0,0,0,3.171,3.118h1.672v.61a2.375,2.375,0,0,0,2.37,2.387h7.562A2.378,2.378,0,0,0,32.332,73.8v-.61h1.673a3.182,3.182,0,0,0,3.171-3.118,3.933,3.933,0,0,1-1.01.139Zm-1.01-2.721h22V64.346h-22Zm0-6.276h22V58.069h-22Zm11.88-20.681-.886.529-4.159-2.506,4.159,14.165,4.176-14.165ZM44.678,7.67A26.131,26.131,0,0,0,26.166,0,24.687,24.687,0,0,0,23.2.171,26.168,26.168,0,0,0,10.875,47.4a21.536,21.536,0,0,1,6.682,7.927h5.829L16.279,31.143l9.887,5.95,9.9-5.95L28.961,55.331h5.881a22.769,22.769,0,0,1,6.868-8.1A26.16,26.16,0,0,0,44.678,7.67" transform="translate(0 -0.001)" fill="#9e9e9e"/>
    </g>
  </g>
</svg>
