<svg xmlns="http://www.w3.org/2000/svg" xmlns:xlink="http://www.w3.org/1999/xlink" width="84.466" height="75.333" viewBox="0 0 84.466 75.333">
  <defs>
    <clipPath id="clip-path">
      <rect id="Rectángulo_45167" data-name="Rectángulo 45167" width="84.466" height="75.333" fill="none"/>
    </clipPath>
    <clipPath id="clip-path-3">
      <rect id="Rectángulo_45163" data-name="Rectángulo 45163" width="59.509" height="67.528" fill="none"/>
    </clipPath>
  </defs>
  <g id="Grupo_178050" data-name="Grupo 178050" transform="translate(3348.466 9322)">
    <g id="Grupo_157466" data-name="Grupo 157466" transform="translate(-3348.466 -9322)">
      <g id="Grupo_144739" data-name="Grupo 144739" clip-path="url(#clip-path)">
        <g id="Grupo_144738" data-name="Grupo 144738">
          <g id="Grupo_144737" data-name="Grupo 144737" clip-path="url(#clip-path)">
            <g id="Grupo_144736" data-name="Grupo 144736" transform="translate(24.958 7.805)" style="mix-blend-mode: multiply;isolation: isolate">
              <g id="Grupo_144735" data-name="Grupo 144735">
                <g id="Grupo_144734" data-name="Grupo 144734" clip-path="url(#clip-path-3)">
                  <path id="Trazado_187000" data-name="Trazado 187000" d="M139.211,93.665H87.2a3.622,3.622,0,0,1-3.622-3.622V26.137h49.491a10.018,10.018,0,0,1,10.018,10.018V89.788a3.877,3.877,0,0,1-3.877,3.877" transform="translate(-83.58 -26.137)" fill="#1ad6d2"/>
                </g>
              </g>
            </g>
            <path id="Trazado_187001" data-name="Trazado 187001" d="M152.864,12.381V7.805c0-4.311-2.5-7.805-5.58-7.805h-.766c-3.082,0-8.138,3.494-8.138,7.805H114.065V50.987H149.4a3.464,3.464,0,0,0,3.464-3.464Z" transform="translate(-80.004)" fill="#a0ded3"/>
            <path id="Trazado_187002" data-name="Trazado 187002" d="M78.765,0H24.5a7.8,7.8,0,0,0-7.805,7.805V68.372H70.96V7.805A7.805,7.805,0,0,1,78.765,0" transform="translate(-11.709)" fill="#fff"/>
            <line id="Línea_296" data-name="Línea 296" x2="37.327" transform="translate(13.637 28.826)" fill="#fff"/>
            <line id="Línea_297" data-name="Línea 297" x2="37.327" transform="translate(13.637 28.826)" fill="none" stroke="#d9d9d9" stroke-linecap="round" stroke-miterlimit="10" stroke-width="6"/>
            <line id="Línea_298" data-name="Línea 298" x2="37.327" transform="translate(13.637 34.187)" fill="#fff"/>
            <line id="Línea_299" data-name="Línea 299" x2="37.327" transform="translate(13.637 34.187)" fill="none" stroke="#d9d9d9" stroke-linecap="round" stroke-miterlimit="10" stroke-width="6"/>
            <line id="Línea_300" data-name="Línea 300" x2="37.327" transform="translate(13.637 39.548)" fill="#fff"/>
            <line id="Línea_301" data-name="Línea 301" x2="37.327" transform="translate(13.637 39.548)" fill="none" stroke="#d9d9d9" stroke-linecap="round" stroke-miterlimit="10" stroke-width="6"/>
            <line id="Línea_302" data-name="Línea 302" x2="37.327" transform="translate(13.637 44.909)" fill="#fff"/>
            <line id="Línea_303" data-name="Línea 303" x2="37.327" transform="translate(13.637 44.909)" fill="none" stroke="#d9d9d9" stroke-linecap="round" stroke-miterlimit="10" stroke-width="6"/>
            <line id="Línea_304" data-name="Línea 304" x2="37.327" transform="translate(13.637 44.909)" fill="#fff"/>
            <line id="Línea_305" data-name="Línea 305" x2="37.327" transform="translate(13.637 44.909)" fill="none" stroke="#d9d9d9" stroke-linecap="round" stroke-miterlimit="10" stroke-width="6"/>
            <line id="Línea_306" data-name="Línea 306" x2="37.327" transform="translate(13.637 50.271)" fill="#fff"/>
            <line id="Línea_307" data-name="Línea 307" x2="37.327" transform="translate(13.637 50.271)" fill="none" stroke="#d9d9d9" stroke-linecap="round" stroke-miterlimit="10" stroke-width="6"/>
            <line id="Línea_308" data-name="Línea 308" x2="37.327" transform="translate(13.637 55.632)" fill="#fff"/>
            <line id="Línea_309" data-name="Línea 309" x2="37.327" transform="translate(13.637 55.632)" fill="none" stroke="#d9d9d9" stroke-linecap="round" stroke-miterlimit="10" stroke-width="6"/>
            <line id="Línea_310" data-name="Línea 310" x2="37.327" transform="translate(13.637 60.993)" fill="#fff"/>
            <line id="Línea_311" data-name="Línea 311" x2="37.327" transform="translate(13.637 60.993)" fill="none" stroke="#d9d9d9" stroke-linecap="round" stroke-miterlimit="10" stroke-width="6"/>
            <rect id="Rectángulo_45164" data-name="Rectángulo 45164" width="40.857" height="17.096" transform="translate(0 5.587)" fill="#ffd947"/>
            <path id="Trazado_187003" data-name="Trazado 187003" d="M4.985,79.517,0,75.963H4.985Z" transform="translate(0 -53.279)" fill="#887a42"/>
            <path id="Trazado_187004" data-name="Trazado 187004" d="M29.5,36.693v3.146H27.737V29.424h3.777c2.363,0,3.537,1.174,3.537,3.537s-1.174,3.732-3.537,3.732Zm2-1.7c1.189,0,1.746-.768,1.746-2.032s-.557-1.836-1.746-1.836h-2v3.868Z" transform="translate(-19.454 -20.638)" fill="#fff"/>
            <path id="Trazado_187005" data-name="Trazado 187005" d="M57.825,39.839V29.424h3.507c3.386,0,4.184,1.746,4.184,5.027,0,3.341-.707,5.388-4.184,5.388Zm3.507-8.729H59.571v7.043h1.761c2.062,0,2.363-1.55,2.363-3.7s-.3-3.341-2.363-3.341" transform="translate(-40.558 -20.638)" fill="#fff"/>
            <path id="Trazado_187006" data-name="Trazado 187006" d="M89.627,29.424h6.5V31.11H91.372v3.356h3.853v1.67H91.372v3.7H89.627Z" transform="translate(-62.863 -20.638)" fill="#fff"/>
            <path id="Trazado_187007" data-name="Trazado 187007" d="M72.045,131.205a14.55,14.55,0,1,1,14.55-14.55,14.566,14.566,0,0,1-14.55,14.55" transform="translate(-40.326 -71.616)" fill="#15bdd7"/>
            <path id="Trazado_187008" data-name="Trazado 187008" d="M70.578,101.264a13.925,13.925,0,1,1-13.925,13.925,13.925,13.925,0,0,1,13.925-13.925m0-1.25a15.174,15.174,0,1,0,15.174,15.174,15.191,15.191,0,0,0-15.174-15.174" transform="translate(-38.86 -70.149)" fill="#fff"/>
            <rect id="Rectángulo_45165" data-name="Rectángulo 45165" width="7.375" height="9.013" transform="translate(28.031 36.38)" fill="#fff"/>
            <path id="Trazado_187009" data-name="Trazado 187009" d="M79.695,152.014l7.921,9.013,7.921-9.013Z" transform="translate(-55.897 -106.621)" fill="#fff"/>
          </g>
        </g>
      </g>
    </g>
  </g>
</svg>
