<svg xmlns="http://www.w3.org/2000/svg" xmlns:xlink="http://www.w3.org/1999/xlink" width="52.931" height="52.899" viewBox="0 0 52.931 52.899">
  <defs>
    <clipPath id="clip-path">
      <rect id="Rectángulo_56761" data-name="Rectángulo 56761" width="52.931" height="52.899" fill="#7f0f98"/>
    </clipPath>
  </defs>
  <g id="Grupo_178075" data-name="Grupo 178075" transform="translate(-1224 -855)">
    <g id="Grupo_171474" data-name="Grupo 171474" transform="translate(1224 855)" opacity="0.67">
      <g id="Grupo_171474-2" data-name="Grupo 171474" clip-path="url(#clip-path)">
        <path id="Trazado_210973" data-name="Trazado 210973" d="M41.437,52.9H15.4a1.116,1.116,0,0,0-.188-.078,4.577,4.577,0,0,1-3.78-3.863,2.774,2.774,0,0,0-.093-.294c-3.1,0-6.18-.025-9.257.015A1.979,1.979,0,0,1,0,47.527V25c.869-1.519,1.7-3.061,2.616-4.553A7.615,7.615,0,0,1,9.3,16.638c.681-.017,1.363,0,2.071,0V16q0-5.553,0-11.105A4.652,4.652,0,0,1,16.267,0Q27.891,0,39.515,0a4.652,4.652,0,0,1,4.919,4.926q0,5.553,0,11.105v.607c1.2,0,2.35-.027,3.5.005A5.16,5.16,0,0,1,52.837,22.6a5.548,5.548,0,0,1-1.4,2.822,5.191,5.191,0,0,1,.014,7.209,5.294,5.294,0,0,1,.021,7.259.868.868,0,0,0,.075.126,4.96,4.96,0,0,1,.843,5.666,5.027,5.027,0,0,1-4.954,2.981c-.651,0-1.3,0-1.96,0-.04.173-.073.305-.1.439a4.568,4.568,0,0,1-2.91,3.485c-.331.135-.687.21-1.031.312M39.676,25.4c-.049-.062-.1-.128-.152-.192a5.122,5.122,0,0,1,1.489-7.964c.319-.175.323-.387.322-.666q0-5.836,0-11.673a1.6,1.6,0,0,0-1.814-1.8H16.272a1.6,1.6,0,0,0-1.805,1.809q0,5.6,0,11.208c0,.165.015.33.024.518,2.252,0,4.455-.009,6.657.008a.74.74,0,0,0,.784-.465,6.429,6.429,0,0,1,5.506-3.644,6.355,6.355,0,0,1,6.352,3.511,6.274,6.274,0,0,1-.507,7.141A6.511,6.511,0,0,1,26.5,25.8a1.415,1.415,0,0,0-.694.157,10.088,10.088,0,0,1-2.269.9,36.4,36.4,0,0,1-4.071.112c-.96.011-1.919,0-2.931,0,0,.233,0,.417,0,.6a6.539,6.539,0,0,1-1.747,4.407,1.167,1.167,0,0,0-.325.87q.015,7.541.007,15.082c0,1.3.576,1.873,1.9,1.873H40.437c.172,0,.345.007.516-.01a1.407,1.407,0,0,0,1.312-1.233A5.21,5.21,0,0,1,39.7,39.868a5.184,5.184,0,0,1-.013-7.2,5.289,5.289,0,0,1-.012-7.267M11.349,34.071c-.549.045-1.045.12-1.542.118a1.466,1.466,0,0,1-1.414-.947A1.548,1.548,0,0,1,9.874,31.1a3.619,3.619,0,0,0,3.559-3.675c.006-.585,0-1.171,0-1.756a1.594,1.594,0,0,1,1.813-1.8q3.642,0,7.284,0a2.074,2.074,0,1,0,.023-4.131q-6.561,0-13.121,0a4.627,4.627,0,0,0-4.25,2.448c-.632,1.085-1.258,2.174-1.859,3.275a1.791,1.791,0,0,0-.214.821Q3.091,35.654,3.1,45.028c0,.166.015.333.023.5h8.225ZM45.556,23.866c.739,0,1.479.015,2.217,0a2.062,2.062,0,0,0-.022-4.123c-1.444-.017-2.888-.014-4.332,0a2.064,2.064,0,1,0,.022,4.127c.7.01,1.41,0,2.114,0m.02,7.233c.722,0,1.444.012,2.166,0a2.063,2.063,0,1,0-.011-4.125q-2.166-.022-4.332,0A2.063,2.063,0,1,0,43.41,31.1c.722.013,1.444,0,2.166,0m.012,7.232c.7,0,1.41.009,2.114,0a2.064,2.064,0,1,0,.017-4.127q-2.14-.02-4.28,0a2.064,2.064,0,1,0-.017,4.127c.722.012,1.444,0,2.166,0m0,7.232c.7,0,1.41.009,2.114,0a2.064,2.064,0,1,0,.015-4.127q-2.14-.02-4.28,0a2.064,2.064,0,1,0-.015,4.127c.722.012,1.444,0,2.166,0M27.832,22.773a3.485,3.485,0,0,0,3.542-2.553,3.62,3.62,0,0,0-2.033-4.314,3.5,3.5,0,0,0-4.32,1.216c2.434,1.757,3.015,2.924,2.811,5.652" transform="translate(0 0)" fill="#7f0f98"/>
        <path id="Trazado_210974" data-name="Trazado 210974" d="M153.495,224.557a6.716,6.716,0,1,1,6.681,6.725,6.732,6.732,0,0,1-6.681-6.725m3.1-.008a3.615,3.615,0,1,0,3.632-3.6,3.627,3.627,0,0,0-3.632,3.6" transform="translate(-132.311 -187.786)" fill="#7f0f98"/>
        <path id="Trazado_210975" data-name="Trazado 210975" d="M149.11,46.492a1.548,1.548,0,1,1-1.522-1.562,1.566,1.566,0,0,1,1.522,1.562" transform="translate(-125.862 -38.729)" fill="#7f0f98"/>
        <path id="Trazado_210976" data-name="Trazado 210976" d="M190.938,46.4a1.549,1.549,0,1,1,1.459,1.622,1.567,1.567,0,0,1-1.459-1.622" transform="translate(-164.584 -38.728)" fill="#7f0f98"/>
        <path id="Trazado_210977" data-name="Trazado 210977" d="M238.962,46.461a1.548,1.548,0,1,1-1.556-1.528,1.566,1.566,0,0,1,1.556,1.528" transform="translate(-203.314 -38.732)" fill="#7f0f98"/>
      </g>
    </g>
  </g>
</svg>
