<svg xmlns="http://www.w3.org/2000/svg" xmlns:xlink="http://www.w3.org/1999/xlink" width="60" height="60" viewBox="0 0 60 60">
  <defs>
    <clipPath id="clip-path">
      <rect id="Rectángulo_56704" data-name="Rectángulo 56704" width="37.33" height="33.707" fill="#fff"/>
    </clipPath>
  </defs>
  <g id="Grupo_178062" data-name="Grupo 178062" transform="translate(-199 -1091)">
    <circle id="Elipse_5410" data-name="Elipse 5410" cx="30" cy="30" r="30" transform="translate(199 1091)" fill="#7f0f98"/>
    <g id="Grupo_171401" data-name="Grupo 171401" transform="translate(210 1104)">
      <g id="Grupo_171402" data-name="Grupo 171402" clip-path="url(#clip-path)">
        <path id="Trazado_210780" data-name="Trazado 210780" d="M34.919,30.1c.6,0,1.154,0,1.7,0a.614.614,0,0,1,.7.688q.01,1.109,0,2.219a.618.618,0,0,1-.688.7c-.088,0-.176,0-.263,0H.934c-.788,0-.933-.148-.933-.948,0-.639,0-1.279,0-1.918C0,30.3.215,30.1.761,30.1s1.072,0,1.648,0v-.472q0-10.137,0-20.273c0-.77.152-.922.92-.923h5.1V8.02q0-3.592,0-7.184C8.43.19,8.614,0,9.248,0H28.1c.609,0,.8.2.8.816q0,3.573,0,7.147v.463h5.194c.639,0,.827.188.827.829q0,10.174,0,20.349ZM9.66,24.648H27.674V1.221H9.66ZM5.437,28.262H31.89v-16.8H28.9v.467q0,6.545,0,13.09c0,.689-.176.865-.867.865H9.295c-.691,0-.865-.175-.865-.866q0-6.564,0-13.128v-.433H5.437ZM1.223,32.476H36.1V31.3h-.384q-5.813,0-11.626-.006a.693.693,0,0,0-.619.26.942.942,0,0,1-.824.353q-3.988-.015-7.976,0a.9.9,0,0,1-.8-.326.758.758,0,0,0-.684-.286q-5.775.013-11.551.006H1.223Zm2.4-2.381h.451c3.173,0,6.346,0,9.519-.006a.975.975,0,0,1,.858.362.656.656,0,0,0,.585.251c2.421-.009,4.841,0,7.262-.015a.852.852,0,0,0,.544-.228,1.166,1.166,0,0,1,.9-.37c3.173.011,6.346.006,9.52.006H33.7v-.58H3.626Zm.01-20.447V28.261h.579v-.476q0-8.346,0-16.693c0-.687.175-.859.87-.86H8.411V9.648Zm25.276.558a.833.833,0,0,0,.114.023l3.159,0c.772,0,.927.153.927.916q0,8.346,0,16.693v.43h.582V9.654H28.912Z" transform="translate(0 0)" fill="#fff"/>
        <path id="Trazado_210781" data-name="Trazado 210781" d="M140.79,31.737c0,.364,0,.727,0,1.091-.007.472-.224.7-.687.7-.539.007-1.079.006-1.618,0-.472-.005-.7-.223-.7-.687q-.01-1.109,0-2.219a.613.613,0,0,1,.686-.7c.539-.007,1.079-.006,1.618,0,.486.005.7.226.7.724,0,.364,0,.727,0,1.091m-1.232-.585h-.544v1.17h.544Z" transform="translate(-123.933 -26.912)" fill="#fff"/>
        <path id="Trazado_210782" data-name="Trazado 210782" d="M206.683,31.752c0,.376.009.752,0,1.128a.594.594,0,0,1-.637.636q-.865.017-1.73,0a.589.589,0,0,1-.635-.637q-.015-1.166,0-2.332a.588.588,0,0,1,.636-.636q.865-.016,1.73,0a.592.592,0,0,1,.637.636c.011.4,0,.8,0,1.2m-1.221-.618h-.56V32.3h.56Z" transform="translate(-183.204 -26.899)" fill="#fff"/>
        <path id="Trazado_210783" data-name="Trazado 210783" d="M104.834,79.631c0-.389-.009-.778,0-1.166a.591.591,0,0,1,.637-.635q.865-.016,1.73,0a.589.589,0,0,1,.636.637q.016,1.166,0,2.332a.59.59,0,0,1-.637.636q-.865.017-1.73,0a.592.592,0,0,1-.636-.637c-.011-.388,0-.777,0-1.166m1.232.576h.544v-1.17h-.544Z" transform="translate(-94.296 -70.001)" fill="#fff"/>
        <path id="Trazado_210784" data-name="Trazado 210784" d="M173.732,79.63c0,.389.009.778,0,1.166a.593.593,0,0,1-.635.638q-.865.017-1.73,0a.589.589,0,0,1-.637-.635q-.015-1.166,0-2.332a.588.588,0,0,1,.634-.637q.865-.017,1.73,0a.592.592,0,0,1,.638.634c.012.388,0,.777,0,1.166m-1.232-.573h-.544v1.17h.544Z" transform="translate(-153.564 -70.001)" fill="#fff"/>
        <path id="Trazado_210785" data-name="Trazado 210785" d="M236.639,79.632c0-.389-.009-.778,0-1.166a.591.591,0,0,1,.636-.636q.865-.016,1.73,0a.589.589,0,0,1,.637.635q.016,1.166,0,2.332a.59.59,0,0,1-.636.637q-.865.017-1.73,0a.592.592,0,0,1-.637-.636c-.011-.388,0-.777,0-1.166m1.23.584h.554V79.045h-.554Z" transform="translate(-212.856 -70.001)" fill="#fff"/>
        <path id="Trazado_210786" data-name="Trazado 210786" d="M137.785,193.439c0-.389-.008-.778,0-1.166a.591.591,0,0,1,.633-.639q.865-.017,1.73,0a.589.589,0,0,1,.64.633q.016,1.166,0,2.332a.59.59,0,0,1-.633.64q-.865.017-1.73,0a.6.6,0,0,1-.641-.671c-.008-.376,0-.752,0-1.128m1.223.575h.556v-1.164h-.556Z" transform="translate(-123.937 -172.37)" fill="#fff"/>
        <path id="Trazado_210787" data-name="Trazado 210787" d="M203.687,193.432c0-.389-.009-.778,0-1.166a.591.591,0,0,1,.64-.632q.865-.016,1.73,0a.589.589,0,0,1,.633.639q.015,1.166,0,2.332a.59.59,0,0,1-.64.633q-.865.016-1.73,0a.592.592,0,0,1-.633-.64c-.011-.388,0-.777,0-1.166m1.225.58h.551v-1.171h-.551Z" transform="translate(-183.216 -172.37)" fill="#fff"/>
        <path id="Trazado_210788" data-name="Trazado 210788" d="M109.683,132.861l.884.838-1.408,1.322,1.419,1.35-.9.872c-.584-.582-1.194-1.175-1.785-1.786a.54.54,0,0,1,0-.81c.592-.61,1.2-1.2,1.786-1.787" transform="translate(-96.889 -119.51)" fill="#fff"/>
        <path id="Trazado_210789" data-name="Trazado 210789" d="M189.024,135.561l-1.416-1.351.9-.835c.555.549,1.185,1.151,1.787,1.781a.528.528,0,0,1-.042.779c-.586.6-1.186,1.183-1.768,1.76l-.868-.852,1.409-1.282" transform="translate(-168.756 -119.972)" fill="#fff"/>
        <rect id="Rectángulo_56692" data-name="Rectángulo 56692" width="1.162" height="3.564" transform="translate(11.458 3.038)" fill="#fff"/>
        <rect id="Rectángulo_56693" data-name="Rectángulo 56693" width="1.157" height="3.569" transform="translate(18.089 3.034)" fill="#fff"/>
        <rect id="Rectángulo_56694" data-name="Rectángulo 56694" width="1.155" height="3.577" transform="translate(24.713 3.025)" fill="#fff"/>
        <rect id="Rectángulo_56695" data-name="Rectángulo 56695" width="1.157" height="3.564" transform="translate(14.771 7.855)" fill="#fff"/>
        <rect id="Rectángulo_56696" data-name="Rectángulo 56696" width="1.171" height="3.557" transform="translate(21.386 7.849)" fill="#fff"/>
        <rect id="Rectángulo_56697" data-name="Rectángulo 56697" width="1.158" height="3.564" transform="translate(11.46 19.291)" fill="#fff"/>
        <rect id="Rectángulo_56698" data-name="Rectángulo 56698" width="1.158" height="3.561" transform="translate(18.093 19.289)" fill="#fff"/>
        <rect id="Rectángulo_56699" data-name="Rectángulo 56699" width="1.158" height="3.564" transform="translate(24.711 19.278)" fill="#fff"/>
        <rect id="Rectángulo_56700" data-name="Rectángulo 56700" width="1.169" height="1.128" transform="translate(14.463 14.671)" fill="#fff"/>
        <rect id="Rectángulo_56701" data-name="Rectángulo 56701" width="1.158" height="1.169" transform="translate(16.876 14.652)" fill="#fff"/>
        <rect id="Rectángulo_56702" data-name="Rectángulo 56702" width="1.159" height="1.157" transform="translate(22.302 16.87)" fill="#fff"/>
        <rect id="Rectángulo_56703" data-name="Rectángulo 56703" width="1.153" height="1.16" transform="translate(24.713 16.879)" fill="#fff"/>
      </g>
    </g>
  </g>
</svg>
