<svg xmlns="http://www.w3.org/2000/svg" xmlns:xlink="http://www.w3.org/1999/xlink" width="95" height="95" viewBox="0 0 95 95">
  <defs>
    <clipPath id="clip-path">
      <rect id="Rectángulo_56708" data-name="Rectángulo 56708" width="63.878" height="55.332" fill="none"/>
    </clipPath>
  </defs>
  <g id="Grupo_178065" data-name="Grupo 178065" transform="translate(-757 -1909)">
    <circle id="Elipse_5411" data-name="Elipse 5411" cx="47.5" cy="47.5" r="47.5" transform="translate(757 1909)" fill="#e8e8e8"/>
    <g id="Grupo_171417" data-name="Grupo 171417" transform="translate(773 1929)">
      <g id="Grupo_171416" data-name="Grupo 171416" clip-path="url(#clip-path)">
        <path id="Trazado_210790" data-name="Trazado 210790" d="M63.879,25.511a21.569,21.569,0,0,1-.74,2.49,9.341,9.341,0,0,1-8.7,6c-.705.038-1.414.022-2.121.01-.761-.013-1.2-.412-1.2-1.056s.45-1.035,1.208-1.066a30.968,30.968,0,0,0,3.234-.136A7.4,7.4,0,0,0,56.79,17.462a2.045,2.045,0,0,1-1.6-1.831,7.365,7.365,0,0,0-10.881-5.142c-1.3.718-1.784.524-2.23-.9a10.611,10.611,0,0,0-15.4-6.108,10.344,10.344,0,0,0-4.811,5.831c-.06.177-.115.356-.175.533-.371,1.088-.936,1.312-1.949.745a7.188,7.188,0,0,0-7.263-.186,7.106,7.106,0,0,0-3.894,5.608,1.384,1.384,0,0,1-1.079,1.273A7.366,7.366,0,0,0,3.224,28.315a7.075,7.075,0,0,0,5.837,3.539c.786.063,1.58.022,2.37.036.848.015,1.315.411,1.3,1.092-.013.663-.455,1.025-1.285,1.033A14.289,14.289,0,0,1,6.16,33.4a9.521,9.521,0,0,1-6.1-9.852,9.3,9.3,0,0,1,5.881-7.939,1.065,1.065,0,0,0,.715-.819A9.524,9.524,0,0,1,19.385,8.063l.519.194C22.245,3.013,26.194-.01,31.957,0c5.738.011,9.662,3.041,11.989,8.26a10.181,10.181,0,0,1,4.246-.849,9.537,9.537,0,0,1,8.951,7.207,1.276,1.276,0,0,0,.834,1.013,9.352,9.352,0,0,1,5.788,7.415,2.367,2.367,0,0,0,.114.343Z" transform="translate(-0.001 -0.001)"/>
        <path id="Trazado_210791" data-name="Trazado 210791" d="M115.7,143.357a4.146,4.146,0,0,1-.48.807q-1.387,1.436-2.821,2.826a1.076,1.076,0,0,1-1.615.111q-1.356-.944-2.686-1.926a.657.657,0,0,0-.78-.092c-.673.321-1.387.554-2.057.881a1,1,0,0,0-.486.6c-.212,1.037-.361,2.087-.534,3.132-.145.874-.5,1.19-1.38,1.2q-1.872.014-3.743,0a1.176,1.176,0,0,1-1.342-1.168c-.177-1.045-.36-2.088-.511-3.137a.716.716,0,0,0-.535-.661,18.48,18.48,0,0,1-2.01-.832.691.691,0,0,0-.833.1c-.834.62-1.684,1.219-2.531,1.82-.787.558-1.184.532-1.857-.133q-1.309-1.294-2.6-2.6a1.154,1.154,0,0,1-.134-1.808c.612-.866,1.221-1.734,1.856-2.582a.7.7,0,0,0,.067-.836c-.311-.654-.534-1.351-.851-2a.987.987,0,0,0-.592-.485c-1.016-.21-2.046-.357-3.07-.528-.986-.164-1.262-.491-1.264-1.506,0-1.206-.006-2.413,0-3.619a1.153,1.153,0,0,1,1.146-1.346c1.045-.175,2.088-.359,3.136-.513a.769.769,0,0,0,.693-.586,18.987,18.987,0,0,1,.8-1.955.7.7,0,0,0-.081-.836c-.635-.849-1.244-1.717-1.855-2.583a1.162,1.162,0,0,1,.153-1.81q1.294-1.309,2.6-2.6a1.164,1.164,0,0,1,1.813-.143c.866.612,1.735,1.22,2.581,1.858a.706.706,0,0,0,.842.07c.655-.31,1.348-.541,2-.861a1,1,0,0,0,.5-.59c.213-1.037.362-2.087.535-3.132.146-.888.478-1.18,1.374-1.185q1.872-.01,3.744,0a1.157,1.157,0,0,1,1.347,1.147c.177,1.044.36,2.088.511,3.137a.709.709,0,0,0,.537.658,18.755,18.755,0,0,1,2.008.835.7.7,0,0,0,.84-.1c.85-.633,1.716-1.244,2.584-1.855a1.154,1.154,0,0,1,1.766.137q1.334,1.313,2.648,2.646a1.146,1.146,0,0,1,.152,1.763c-.622.884-1.249,1.765-1.893,2.633a.651.651,0,0,0-.082.781,17.769,17.769,0,0,1,.829,2.011.764.764,0,0,0,.711.564c1.047.158,2.092.335,3.136.512a1.14,1.14,0,0,1,1.119,1.308c.009,1.248.006,2.5,0,3.744,0,.9-.283,1.242-1.166,1.4-1.063.188-2.134.337-3.193.549a.909.909,0,0,0-.551.451,21.345,21.345,0,0,0-.878,2.125.908.908,0,0,0,.084.706c.6.9,1.253,1.761,1.868,2.65a7.026,7.026,0,0,1,.433.857m1.254-11.79c-1.161-.2-2.3-.418-3.45-.589a1.354,1.354,0,0,1-1.157-1.048,27.468,27.468,0,0,0-1.25-3.041,1.5,1.5,0,0,1,.1-1.779c.676-.888,1.3-1.814,1.948-2.719l-1.756-1.729c-.858.613-1.756,1.211-2.6,1.874a1.573,1.573,0,0,1-1.94.127,13.673,13.673,0,0,0-2.748-1.141,1.624,1.624,0,0,1-1.346-1.546c-.128-1.044-.337-2.078-.51-3.105H99.772c-.181,1.107-.377,2.17-.523,3.24a1.519,1.519,0,0,1-1.216,1.377,19.748,19.748,0,0,0-2.923,1.208,1.492,1.492,0,0,1-1.779-.1c-.886-.679-1.814-1.3-2.595-1.862l-1.817,1.724c.633.884,1.274,1.805,1.943,2.706a1.411,1.411,0,0,1,.109,1.617,34.12,34.12,0,0,0-1.3,3.153,1.361,1.361,0,0,1-1.166,1.038c-1.147.171-2.286.39-3.421.587v2.458c1.128.187,2.211.385,3.3.542a1.458,1.458,0,0,1,1.306,1.13,22.987,22.987,0,0,0,1.254,3.039,1.465,1.465,0,0,1-.111,1.724c-.674.894-1.306,1.818-1.907,2.661l1.764,1.759c.849-.607,1.761-1.226,2.635-1.894a1.464,1.464,0,0,1,1.773-.11,15.181,15.181,0,0,0,2.8,1.167,1.674,1.674,0,0,1,1.375,1.6c.122,1.042.339,2.073.513,3.1h2.456c.18-1.095.382-2.156.523-3.226a1.56,1.56,0,0,1,1.24-1.429,18.389,18.389,0,0,0,2.923-1.207,1.471,1.471,0,0,1,1.773.112c.887.677,1.812,1.3,2.689,1.931l1.754-1.733c-.646-.906-1.279-1.831-1.952-2.724a1.46,1.46,0,0,1-.11-1.724,20.331,20.331,0,0,0,1.237-2.979,1.516,1.516,0,0,1,1.389-1.2c1.084-.149,2.159-.357,3.252-.543Z" transform="translate(-69.084 -95.57)"/>
        <path id="Trazado_210792" data-name="Trazado 210792" d="M148.987,172.21a8.508,8.508,0,1,1-8.518,8.459,8.485,8.485,0,0,1,8.518-8.459m0,2.131a6.379,6.379,0,1,0,6.367,6.4,6.382,6.382,0,0,0-6.367-6.4" transform="translate(-117.047 -143.495)"/>
      </g>
    </g>
  </g>
</svg>
