<svg xmlns="http://www.w3.org/2000/svg" xmlns:xlink="http://www.w3.org/1999/xlink" width="95" height="95" viewBox="0 0 95 95">
  <defs>
    <clipPath id="clip-path">
      <rect id="Rectángulo_54397" data-name="Rectángulo 54397" width="37.882" height="55.911" fill="none"/>
    </clipPath>
  </defs>
  <g id="Grupo_178102" data-name="Grupo 178102" transform="translate(-174 -928)">
    <circle id="Elipse_5393" data-name="Elipse 5393" cx="47.5" cy="47.5" r="47.5" transform="translate(174 928)" fill="#e8e8e8"/>
    <g id="Grupo_166182" data-name="Grupo 166182" transform="translate(203 948)">
      <g id="Grupo_166181" data-name="Grupo 166181" clip-path="url(#clip-path)">
        <path id="Trazado_205892" data-name="Trazado 205892" d="M0,27.956q0-13.3,0-26.6C0,.24.24,0,1.352,0H36.528c1.113,0,1.355.241,1.355,1.352q0,26.6,0,53.2c0,1.111-.243,1.355-1.353,1.355H1.354C.242,55.911,0,55.67,0,54.559q0-13.3,0-26.6M36.029,1.844H1.853V54.086H36.029Z" transform="translate(0 0)"/>
        <path id="Trazado_205893" data-name="Trazado 205893" d="M197.445,66.83c0,5.24.006,10.48-.01,15.721a4.872,4.872,0,0,1-.228,1.427c-.49,1.556-1.032,3.1-1.538,4.646-.154.471-.393.825-.927.831s-.786-.335-.942-.81c-.548-1.675-1.118-3.344-1.665-5.019a2.526,2.526,0,0,1-.113-.771q-.008-16,0-32a2.717,2.717,0,1,1,5.424-.022q.006,8,0,16m-3.563,2.339q0,5.942,0,11.884c0,1.286-.192,1.108,1.132,1.145.455.013.573-.155.572-.589q-.015-12.447,0-24.894c0-.442-.134-.632-.58-.576a3.247,3.247,0,0,1-.394,0c-.733,0-.733,0-.734.749q0,6.139,0,12.278m-.018-17.648h1.746c-.019-.608.192-1.268-.477-1.589a1.074,1.074,0,0,0-.881.046c-.588.358-.384.978-.387,1.542m.022,2.7h1.68v-.79h-1.68ZM195.235,84.1h-1.019l.527,1.5.492-1.5" transform="translate(-163.163 -40.759)"/>
        <path id="Trazado_205894" data-name="Trazado 205894" d="M79.674,95.956h6.37a4.457,4.457,0,0,1,.451.007.9.9,0,0,1,.027,1.8,4.283,4.283,0,0,1-.507.009H73.162c-.748-.006-1.167-.341-1.158-.925.009-.565.415-.887,1.131-.894.169,0,.338,0,.507,0h6.032" transform="translate(-61.184 -81.534)"/>
        <path id="Trazado_205895" data-name="Trazado 205895" d="M79.649,49.752h-6.37a2.215,2.215,0,0,1-.505-.022.9.9,0,0,1,.027-1.778,2.82,2.82,0,0,1,.562-.018H86.046c.113,0,.226,0,.338,0a.913.913,0,1,1-.027,1.816c-.225.006-.451,0-.677,0H79.649" transform="translate(-61.215 -40.726)"/>
        <path id="Trazado_205896" data-name="Trazado 205896" d="M79.729,191.973h6.314a4.413,4.413,0,0,1,.451.007.9.9,0,0,1,.027,1.8,4.282,4.282,0,0,1-.507.009H73.161c-.748-.006-1.168-.341-1.158-.925.009-.565.415-.886,1.131-.894.15,0,.3,0,.451,0Z" transform="translate(-61.183 -163.123)"/>
        <path id="Trazado_205897" data-name="Trazado 205897" d="M79.706,289.795H73.28a2.215,2.215,0,0,1-.505-.022.9.9,0,0,1,.027-1.778,2.821,2.821,0,0,1,.562-.018H86.047c.113,0,.226,0,.338,0a.913.913,0,1,1-.027,1.816c-.244.007-.489,0-.733,0H79.706" transform="translate(-61.216 -244.697)"/>
        <path id="Trazado_205898" data-name="Trazado 205898" d="M79.554,241.8c-2.2,0-4.4.006-6.6,0-.829,0-1.342-.724-.916-1.33a1.243,1.243,0,0,1,.875-.465c4.434-.029,8.869-.022,13.3-.018a.914.914,0,1,1-.015,1.813c-2.217.006-4.435,0-6.652,0" transform="translate(-61.087 -203.921)"/>
        <path id="Trazado_205899" data-name="Trazado 205899" d="M79.728,143.964h6.314a4.507,4.507,0,0,1,.451.007.9.9,0,0,1-.023,1.806c-.149.013-.3.006-.451.006H73.335a4.315,4.315,0,0,1-.507-.009.9.9,0,0,1,.023-1.8,4.373,4.373,0,0,1,.451-.007h6.426" transform="translate(-61.184 -122.329)"/>
        <path id="Trazado_205900" data-name="Trazado 205900" d="M35.394,50.71a2.71,2.71,0,1,1-2.7-2.729,2.718,2.718,0,0,1,2.7,2.729m-2.685.853a.873.873,0,1,0-.9-.834.908.908,0,0,0,.9.834" transform="translate(-25.469 -40.771)"/>
        <path id="Trazado_205901" data-name="Trazado 205901" d="M32.651,245.435a2.71,2.71,0,1,1,2.743-2.693,2.716,2.716,0,0,1-2.743,2.693m.054-3.583a.872.872,0,1,0,.852.878.91.91,0,0,0-.852-.878" transform="translate(-25.469 -203.947)"/>
        <path id="Trazado_205902" data-name="Trazado 205902" d="M32.678,288.024a2.71,2.71,0,1,1-2.706,2.73,2.713,2.713,0,0,1,2.706-2.73m.878,2.732a.872.872,0,1,0-.88.85.908.908,0,0,0,.88-.85" transform="translate(-25.468 -244.742)"/>
        <path id="Trazado_205903" data-name="Trazado 205903" d="M32.671,101.41A2.71,2.71,0,1,1,35.393,98.7a2.716,2.716,0,0,1-2.722,2.714m.033-3.583a.872.872,0,1,0,.852.878.91.91,0,0,0-.852-.878" transform="translate(-25.468 -81.565)"/>
        <path id="Trazado_205904" data-name="Trazado 205904" d="M32.7,144a2.71,2.71,0,1,1-2.723,2.713A2.713,2.713,0,0,1,32.7,144m-.013,1.837a.873.873,0,1,0,.874.856.905.905,0,0,0-.874-.856" transform="translate(-25.469 -122.359)"/>
        <path id="Trazado_205905" data-name="Trazado 205905" d="M35.393,194.714a2.711,2.711,0,1,1-2.726-2.707,2.717,2.717,0,0,1,2.726,2.707m-2.711.875a.873.873,0,1,0-.871-.86.907.907,0,0,0,.871.86" transform="translate(-25.468 -163.154)"/>
        <path id="Trazado_205906" data-name="Trazado 205906" d="M76.076,113.96c1,0,1.992-.005,2.987,0,.661,0,1.061.354,1.062.905s-.4.907-1.059.909q-3.016.009-6.032,0a.914.914,0,1,1,0-1.813c1.014-.009,2.029,0,3.044,0" transform="translate(-61.182 -96.833)"/>
        <path id="Trazado_205907" data-name="Trazado 205907" d="M76.074,211.8c-1,0-1.992,0-2.988,0-.67,0-1.07-.337-1.085-.883-.016-.57.4-.931,1.091-.932q2.988-.007,5.975,0c.659,0,1.06.359,1.058.91s-.4.9-1.064.9c-1,.007-1.992,0-2.988,0" transform="translate(-61.181 -178.422)"/>
        <path id="Trazado_205908" data-name="Trazado 205908" d="M76.066,257.989c1,0,1.992,0,2.988,0,.665,0,1.066.345,1.074.893s-.395.919-1.047.921q-3.016.01-6.031,0c-.652,0-1.054-.37-1.045-.922s.407-.888,1.074-.892c1-.006,1.992,0,2.988,0" transform="translate(-61.184 -219.219)"/>
        <path id="Trazado_205909" data-name="Trazado 205909" d="M76.106,163.786c-1.015,0-2.029.006-3.044,0-.659,0-1.059-.358-1.059-.909s.4-.9,1.061-.905q3.016-.008,6.032,0a.914.914,0,1,1,0,1.813c-1,.009-1.992,0-2.988,0" transform="translate(-61.184 -137.626)"/>
        <path id="Trazado_205910" data-name="Trazado 205910" d="M76.076,65.951c1,0,1.992-.005,2.987,0,.661,0,1.061.354,1.062.905s-.4.907-1.059.909q-3.016.009-6.031,0a.914.914,0,1,1,0-1.813c1.014-.009,2.029,0,3.044,0" transform="translate(-61.182 -56.038)"/>
        <path id="Trazado_205911" data-name="Trazado 205911" d="M76.011,307.815c-.977,0-1.954,0-2.931,0-.666,0-1.067-.343-1.077-.891-.011-.57.4-.923,1.1-.924q2.959-.006,5.919,0c.7,0,1.113.351,1.106.918s-.417.9-1.128.9c-1,0-1.992,0-2.988,0" transform="translate(-61.183 -260.013)"/>
      </g>
    </g>
  </g>
</svg>
