<svg id="Grupo_178047" data-name="Grupo 178047" xmlns="http://www.w3.org/2000/svg" xmlns:xlink="http://www.w3.org/1999/xlink" width="148.883" height="148.803" viewBox="0 0 148.883 148.803">
  <defs>
    <clipPath id="clip-path">
      <rect id="Rectángulo_55528" data-name="Rectángulo 55528" width="148.883" height="148.803" fill="#12263f"/>
    </clipPath>
  </defs>
  <g id="Grupo_168945" data-name="Grupo 168945" clip-path="url(#clip-path)">
    <path id="Trazado_208618" data-name="Trazado 208618" d="M19.194,0h110.5V38.4c2.312,0,4.477-.018,6.642,0a12.408,12.408,0,0,1,9.444,4.017,14.94,14.94,0,0,1,3.105,6.427v75.022a25.676,25.676,0,0,1-1.216,3.7c-2.389,4.772-6.38,6.905-11.653,6.891-9.544-.027-19.087-.009-28.631,0-.556,0-1.113.049-1.621.074v9.576h9.406V148.8h-81.4v-4.784h9.392v-9.563h-1.8c-9.544,0-19.088-.076-28.631.023A12.2,12.2,0,0,1,0,122.1q.009-35.68.009-71.36a12.023,12.023,0,0,1,2.413-7.461,12.2,12.2,0,0,1,10.214-4.87c2.16-.016,4.32,0,6.557,0ZM48.008,86.391H19.17V43.319c-2.793,0-5.414-.13-8.017.031-3.743.231-6.32,3.409-6.324,7.7Q4.8,82.524,4.824,114c0,.37.071.74.112,1.14h139.13V113.33q0-30.82,0-61.639c0-.677-.027-1.357-.09-2.031a6.815,6.815,0,0,0-5.752-6.241c-2.77-.268-5.586-.057-8.561-.057V86.451H100.877a24.973,24.973,0,0,0,.019,2.695c.128,1.125-.309,1.627-1.394,1.911-1.509.4-2.967.984-4.512,1.513l2.671,5.405-9.289,9.293-5.426-2.687c-.557,1.673-1.113,3.216-1.577,4.788A1.326,1.326,0,0,1,79.85,110.5c-3.585-.055-7.172-.063-10.757,0a1.407,1.407,0,0,1-1.6-1.22c-.465-1.555-1.018-3.083-1.558-4.69l-5.6,2.746c-2.927-2.941-5.778-5.776-8.573-8.664a1.481,1.481,0,0,1-.215-1.319c.7-1.588,1.52-3.122,2.357-4.8-1.735-.586-3.395-1.088-5-1.731a1.723,1.723,0,0,1-.862-1.19,26.814,26.814,0,0,1-.04-3.246m76.756-62.262H24.145V81.584H48.007a19.583,19.583,0,0,0-.017-2.371,1.73,1.73,0,0,1,1.557-2.234,44.579,44.579,0,0,0,4.355-1.45l-2.678-5.411,9.3-9.288,5.422,2.677c.564-1.7,1.126-3.24,1.58-4.814a1.329,1.329,0,0,1,1.545-1.1q5.377.072,10.755,0a1.332,1.332,0,0,1,1.54,1.112c.468,1.594,1.041,3.157,1.6,4.8l5.411-2.676,9.294,9.29-2.686,5.425c1.349.45,2.56.958,3.82,1.249,1.6.368,2.446,1.106,2.1,2.867a10.128,10.128,0,0,0-.019,1.891h23.887Zm0-19.214H24.117v14.2h100.65ZM144.005,120.2H4.719a27.8,27.8,0,0,0,.4,4.147c.862,3.454,3.713,5.334,7.832,5.334q61.484,0,122.968,0c.484,0,.971,0,1.452-.04a7.2,7.2,0,0,0,5.206-2.82c1.523-1.936,1.585-4.188,1.426-6.621M61.377,66.62c-.331.306-.725.637-1.081,1-1.073,1.109-2.765,2.109-3.01,3.384C57.06,72.188,58.328,73.7,59.052,75a2.654,2.654,0,0,1,.058,2.294,3.307,3.307,0,0,1-2.781,2.533,15.944,15.944,0,0,0-2.743.928c-.291.12-.681.481-.685.737-.032,1.835-.4,3.838.225,5.44.336.86,2.431,1.034,3.734,1.513a5.683,5.683,0,0,1,.954.337,1.911,1.911,0,0,1,.69.666c.815,1.482,1.346,2.968.1,4.53-.384.48-.5,1.167-.873,1.664-.841,1.133-.545,1.935.478,2.774,1.115.915,2.011,2.6,3.188,2.791s2.6-1.026,3.873-1.708a2.786,2.786,0,0,1,2.429-.134,3.381,3.381,0,0,1,2.526,2.792,15.643,15.643,0,0,0,.929,2.743c.12.291.483.681.74.685,1.835.03,3.838.4,5.439-.229.861-.337,1.035-2.431,1.515-3.734a5.628,5.628,0,0,1,.337-.954,1.943,1.943,0,0,1,.668-.69c1.484-.832,2.964-1.324,4.531-.089a20.228,20.228,0,0,0,1.925,1,1.453,1.453,0,0,0,2.206-.309c1.017-1.218,2.83-2.195,3.081-3.508.233-1.221-1.156-2.738-1.788-4.144a2.152,2.152,0,0,1-.294-1.319c.5-1.549.961-3.188,3.053-3.348.515-.039,1-.391,1.517-.47,1.566-.239,2.172-1.054,1.972-2.659-.166-1.335.4-3.07-.261-3.949-.7-.934-2.478-1.044-3.766-1.561-.559-.224-1.324-.431-1.558-.876-.748-1.421-1.616-2.919-.246-4.518.337-.393.44-.978.749-1.4.954-1.311.872-2.353-.5-3.376-1.074-.8-1.887-2.413-2.987-2.587s-2.4,1.006-3.63,1.562c-.556.252-1.253.737-1.7.582-1.433-.5-3.2-.728-3.4-2.814-.054-.562-.426-1.088-.524-1.653-.285-1.631-1.081-2.381-2.843-2.116-1.279.192-2.959-.38-3.807.257-.9.678-1.066,2.37-1.5,3.637a3.414,3.414,0,0,1-5.041,2.119c-1.168-.584-2.338-1.164-3.665-1.824m39.431,67.965H48.114v9.373h52.694Z" fill="#12263f"/>
    <rect id="Rectángulo_55522" data-name="Rectángulo 55522" width="47.866" height="4.624" transform="translate(28.867 28.892)" fill="#12263f"/>
    <rect id="Rectángulo_55523" data-name="Rectángulo 55523" width="47.811" height="4.678" transform="translate(28.914 38.496)" fill="#12263f"/>
    <rect id="Rectángulo_55524" data-name="Rectángulo 55524" width="47.838" height="4.651" transform="translate(28.876 48.116)" fill="#12263f"/>
    <rect id="Rectángulo_55525" data-name="Rectángulo 55525" width="4.652" height="4.613" transform="translate(28.908 9.685)" fill="#12263f"/>
    <rect id="Rectángulo_55526" data-name="Rectángulo 55526" width="4.695" height="4.617" transform="translate(38.473 9.683)" fill="#12263f"/>
    <rect id="Rectángulo_55527" data-name="Rectángulo 55527" width="4.683" height="4.585" transform="translate(48.05 9.726)" fill="#12263f"/>
    <path id="Trazado_208619" data-name="Trazado 208619" d="M219.707,263.605a11.961,11.961,0,1,1,11.973-11.874,11.963,11.963,0,0,1-11.973,11.874m-.191-4.756a7.208,7.208,0,1,0-7-7.443,7.315,7.315,0,0,0,7,7.443" transform="translate(-145.277 -167.6)" fill="#12263f"/>
  </g>
</svg>
