<svg xmlns="http://www.w3.org/2000/svg" width="122.821" height="50.921" viewBox="0 0 122.821 50.921">
  <g id="Grupo_178056" data-name="Grupo 178056" transform="translate(-1297.179 -4457.6)">
    <g id="Grupo_171366" data-name="Grupo 171366" transform="translate(1297.179 4457.6)">
      <path id="Trazado_101140" data-name="Trazado 101140" d="M603.993,980.288c-4.831,0-7.215-3.856-9.13-6.956-1.941-3.136-3.256-5.059-5.729-5.059s-3.785,1.923-5.721,5.059c-1.915,3.1-4.3,6.956-9.128,6.956s-7.216-3.856-9.131-6.956c-1.938-3.136-3.253-5.059-5.723-5.059s-3.784,1.923-5.721,5.059c-1.916,3.1-4.3,6.956-9.129,6.956s-7.213-3.859-9.127-6.959c-1.938-3.134-3.25-5.057-5.72-5.057s-3.781,1.923-5.719,5.057c-1.915,3.1-4.3,6.959-9.126,6.959s-7.211-3.856-9.127-6.959c-1.938-3.134-3.251-5.057-5.72-5.057a2,2,0,1,1,0-4c4.827,0,7.211,3.856,9.127,6.956,1.936,3.136,3.25,5.058,5.72,5.058s3.781-1.922,5.719-5.058c1.916-3.1,4.3-6.956,9.127-6.956s7.211,3.856,9.125,6.956c1.938,3.136,3.25,5.058,5.721,5.058s3.783-1.922,5.721-5.058c1.915-3.1,4.3-6.956,9.129-6.956s7.213,3.856,9.13,6.956c1.936,3.136,3.251,5.058,5.724,5.058s3.783-1.922,5.721-5.058c1.914-3.1,4.3-6.956,9.128-6.956s7.218,3.856,9.134,6.956c1.94,3.136,3.255,5.058,5.725,5.058s3.788-1.922,5.729-5.058c1.915-3.1,4.3-6.956,9.133-6.956a2,2,0,1,1,0,4c-2.473,0-3.788,1.923-5.728,5.059C611.212,976.432,608.827,980.288,603.993,980.288Z" transform="translate(-498.037 -964.269)" fill="#7f0f98"/>
      <path id="Trazado_101141" data-name="Trazado 101141" d="M603.993,998.74c-4.831,0-7.215-3.858-9.13-6.956-1.941-3.138-3.256-5.061-5.729-5.061s-3.785,1.923-5.721,5.059c-1.915,3.1-4.3,6.958-9.128,6.958s-7.216-3.858-9.131-6.958c-1.938-3.136-3.253-5.059-5.723-5.059s-3.784,1.923-5.721,5.059c-1.916,3.1-4.3,6.958-9.129,6.958s-7.213-3.86-9.127-6.958c-1.938-3.136-3.25-5.059-5.72-5.059s-3.781,1.923-5.719,5.059c-1.915,3.1-4.3,6.958-9.126,6.958s-7.211-3.858-9.127-6.958c-1.938-3.136-3.251-5.059-5.72-5.059a2,2,0,1,1,0-4c4.827,0,7.211,3.858,9.127,6.959,1.936,3.134,3.25,5.056,5.72,5.056s3.781-1.922,5.719-5.056c1.916-3.1,4.3-6.959,9.127-6.959s7.211,3.858,9.125,6.959c1.938,3.134,3.25,5.056,5.721,5.056s3.783-1.922,5.721-5.056c1.915-3.1,4.3-6.959,9.129-6.959s7.213,3.858,9.13,6.959c1.936,3.134,3.251,5.056,5.724,5.056s3.783-1.922,5.721-5.056c1.914-3.1,4.3-6.959,9.128-6.959s7.218,3.858,9.134,6.959c1.94,3.134,3.255,5.056,5.725,5.056s3.788-1.922,5.729-5.056c1.915-3.1,4.3-6.959,9.133-6.959a2,2,0,1,1,0,4c-2.473,0-3.788,1.923-5.728,5.059C611.212,994.882,608.827,998.74,603.993,998.74Z" transform="translate(-498.037 -965.268)" fill="#7f0f98"/>
      <path id="Trazado_101142" data-name="Trazado 101142" d="M603.993,1017.188c-4.831,0-7.215-3.856-9.13-6.957-1.941-3.135-3.256-5.058-5.729-5.058s-3.785,1.923-5.721,5.058c-1.915,3.1-4.3,6.957-9.128,6.957s-7.216-3.856-9.131-6.957c-1.938-3.135-3.253-5.058-5.723-5.058s-3.784,1.923-5.721,5.058c-1.916,3.1-4.3,6.957-9.129,6.957s-7.213-3.856-9.127-6.957c-1.938-3.135-3.25-5.058-5.72-5.058s-3.781,1.923-5.719,5.058c-1.915,3.1-4.3,6.957-9.126,6.957s-7.211-3.856-9.127-6.957c-1.938-3.135-3.251-5.058-5.72-5.058a2,2,0,1,1,0-4c4.827,0,7.211,3.858,9.127,6.958,1.936,3.135,3.25,5.057,5.72,5.057s3.781-1.923,5.719-5.057c1.916-3.1,4.3-6.958,9.127-6.958s7.211,3.858,9.125,6.956c1.938,3.136,3.25,5.059,5.721,5.059s3.783-1.923,5.721-5.059c1.915-3.1,4.3-6.956,9.129-6.956s7.213,3.858,9.13,6.956c1.936,3.136,3.251,5.059,5.724,5.059s3.783-1.923,5.721-5.059c1.914-3.1,4.3-6.956,9.128-6.956s7.218,3.858,9.134,6.956c1.94,3.136,3.255,5.059,5.725,5.059s3.788-1.923,5.729-5.059c1.915-3.1,4.3-6.956,9.133-6.956a2,2,0,1,1,0,4c-2.473,0-3.788,1.923-5.728,5.058C611.212,1013.332,608.827,1017.188,603.993,1017.188Z" transform="translate(-498.037 -966.267)" fill="#7f0f98"/>
    </g>
  </g>
</svg>
