<svg id="Grupo_168959" data-name="Grupo 168959" xmlns="http://www.w3.org/2000/svg" xmlns:xlink="http://www.w3.org/1999/xlink" width="145.611" height="145.564" viewBox="0 0 145.611 145.564">
  <defs>
    <clipPath id="clip-path">
      <rect id="Rectángulo_55542" data-name="Rectángulo 55542" width="145.611" height="145.564" fill="#12263f"/>
    </clipPath>
  </defs>
  <g id="Grupo_168958" data-name="Grupo 168958" clip-path="url(#clip-path)">
    <path id="Trazado_208644" data-name="Trazado 208644" d="M131.086,145.564a36.259,36.259,0,0,1-2.936-2.387q-13.3-13.236-26.548-26.522c-2.348-2.348-2.485-3.78-.708-6.354L93.3,102.7A57.9,57.9,0,0,1,67.7,114.27c0,4.338,0,8.552,0,12.765,0,.474.019.949-.012,1.421a2.063,2.063,0,0,1-2.166,2.127,2.1,2.1,0,0,1-2.07-2.248c-.047-2.321-.016-4.643-.017-6.965,0-2.122,0-4.245,0-6.509l-4.07.3v1.561q0,10.377-.007,20.753a6.111,6.111,0,0,1-.172,1.681,1.918,1.918,0,0,1-2.158,1.461,1.942,1.942,0,0,1-1.886-1.806,11.543,11.543,0,0,1-.041-1.419q0-10.306,0-20.611v-1.651l-4.089-.35c-.027.6-.066,1.1-.067,1.59-.005,3.838,0,7.676-.006,11.514,0,1.8-.773,2.734-2.169,2.7-1.312-.032-2.082-.988-2.088-2.675-.014-4.075,0-8.15,0-12.225v-1.576a54.474,54.474,0,0,1-15.714-5.536C12.9,98.574,2.578,83.344.251,62.771.2,62.309.085,61.854,0,61.4V53.719c.479-2.982.809-6,1.462-8.939A57.422,57.422,0,0,1,47.974.832C65.915-2.052,81.83,2.581,95.654,14.379c.18.154.367.3.533.47a2.152,2.152,0,0,1,.277,3.049,2.128,2.128,0,0,1-3.056.162c-1.642-1.282-3.2-2.678-4.887-3.894C57.152-8.435,12.238,9.618,5.183,47.65a53.382,53.382,0,0,0,36.1,60.664c30.393,10.033,63.552-9.98,68.784-41.545a52.486,52.486,0,0,0-10.1-41.554,8.257,8.257,0,0,1-.727-1.048,2.1,2.1,0,0,1,3.277-2.533,9.114,9.114,0,0,1,1.08,1.314,56.032,56.032,0,0,1,10.685,24.634c.17,1,.579,1.2,1.483,1.2,3.98-.037,7.961-.016,11.941-.016.379,0,.76-.017,1.137.011a2.164,2.164,0,0,1,2.178,2.008,2.1,2.1,0,0,1-2.13,2.193c-2.888.079-5.78.044-8.67.051-1.69,0-3.38,0-5.047,0v4.095h1.65c7.2,0,14.406.009,21.608-.009a2.443,2.443,0,0,1,2.52,1.214c.763,1.534-.373,3.047-2.317,3.054-4.833.019-9.667.006-14.5.006h-9.061l-.424,4.013c.546.025,1.05.068,1.554.069q5.687.009,11.373,0a12.464,12.464,0,0,1,1.278.026,2.194,2.194,0,0,1,2.166,2.185,2.126,2.126,0,0,1-2.28,2.037c-2.416.038-4.834.014-7.25.016-2.18,0-4.36.014-6.539-.007-.678-.006-1.105.079-1.3.9A57,57,0,0,1,102.768,93.2l7.658,7.615a1.868,1.868,0,0,0,.28-.183,3.765,3.765,0,0,1,5.378.368q9.832,9.77,19.608,19.6c1.088,1.091,1.14,2.371.236,3.263-.936.923-2.12.859-3.252-.26-2.285-2.26-4.539-4.551-6.712-6.736L117,125.817l15.022,14.967,9.041-9.073a15.45,15.45,0,0,1-1.623-1.371,2.079,2.079,0,0,1-.054-3.046,2.173,2.173,0,0,1,3.066.067c.036.031.07.064.1.1,3.24,2.974,4.726,4.942.243,9.043-2.41,2.205-4.615,4.633-6.967,6.9a32.479,32.479,0,0,1-2.758,2.162ZM104.379,113.1l3.15,3.284,8.651-8.7-3.136-3.241-8.665,8.657m6.554,6.645,2.652,2.718,8.751-8.755-2.645-2.729-8.758,8.766M99.644,97l-2.626,2.577,7.3,7.342,2.643-2.613L99.644,97" transform="translate(0 0)" fill="#12263f"/>
    <path id="Trazado_208645" data-name="Trazado 208645" d="M22.448,71.857a49.474,49.474,0,0,1,39.394-48.6c26.635-5.517,53.227,12.565,57.9,39.368a48.9,48.9,0,0,1-38.473,56.762c-14.2,2.912-27.243-.294-39.031-8.674-1.377-.979-1.655-2.174-.856-3.263.786-1.071,2-1.156,3.371-.168A45.587,45.587,0,0,0,73.1,116.124c20.4-.432,38.68-16.277,42.4-36.277a45.093,45.093,0,0,0-34.642-52.31C60.138,22.956,38.042,34.419,30.18,54.5c-6.538,16.7-4.106,32.214,7.37,46.159,1.058,1.285,1.21,2.388.407,3.294-.953,1.075-2.3.984-3.428-.288A47.9,47.9,0,0,1,22.448,71.857" transform="translate(-13.92 -13.809)" fill="#12263f"/>
    <path id="Trazado_208646" data-name="Trazado 208646" d="M110.771,72.853h5.147c2.652,0,5.3-.011,7.957,0,2.806.015,3.935,1.15,3.953,3.993.019,3.22,0,6.441,0,9.661v1.709c1.063,0,1.954-.043,2.841.01a2.1,2.1,0,0,1,.123,4.189,12.478,12.478,0,0,1-1.56.052q-29.126,0-58.253,0a11.571,11.571,0,0,1-1.7-.074A1.956,1.956,0,0,1,67.43,90.27a1.933,1.933,0,0,1,1.958-2.024c.933-.071,1.875-.014,2.992-.014V67.625c0-4.993.576-5.577,5.5-5.577H89.441c0-1.92,0-3.7,0-5.484,0-.71-.024-1.423.032-2.13a3.077,3.077,0,0,1,3.167-3.157q7.458-.089,14.918,0c2.074.027,3.189,1.381,3.2,3.713.029,5.3.01,10.609.011,15.913v1.95m-4.4-17.223H93.816V88.109h12.553ZM76.739,88.125H89.32v-21.7H76.739Zm34.125,0h12.577v-10.9H110.864Z" transform="translate(-41.815 -31.77)" fill="#12263f"/>
    <path id="Trazado_208647" data-name="Trazado 208647" d="M110.9,191.248c.86-2.3,1.606-4.282,2.343-6.267,1.236-3.325,2.485-6.646,3.691-9.983.388-1.074.98-1.9,2.189-1.9s1.807.8,2.213,1.875c1.19,3.141,2.5,6.238,3.626,9.4a2.158,2.158,0,0,0,2.513,1.762c2.55-.149,5.116-.049,7.675-.039,1.684.007,2.639.766,2.669,2.083.031,1.381-.938,2.172-2.709,2.177-3.46.009-6.919-.026-10.378.017a2.521,2.521,0,0,1-2.684-1.835c-.867-2.329-1.813-4.63-2.863-7.288-1.482,3.977-2.829,7.589-4.174,11.2-.66,1.773-1.346,3.537-1.964,5.325-.376,1.086-.986,1.891-2.192,1.891s-1.811-.8-2.187-1.89c-1.295-3.757-2.633-7.5-3.959-11.244-.171-.485-.368-.96-.635-1.651-.81,1.439-1.544,2.684-2.218,3.96a2.67,2.67,0,0,1-2.644,1.529c-3.412-.041-6.824-.005-10.236-.018-1.652-.006-2.638-.828-2.631-2.137s1-2.113,2.655-2.12c2.8-.012,5.593-.034,8.388.016a1.6,1.6,0,0,0,1.664-.976c1.032-1.97,2.164-3.887,3.23-5.84.547-1,1.154-1.888,2.479-1.747,1.243.132,1.671,1.045,2.032,2.085,1.3,3.752,2.646,7.49,4.109,11.611" transform="translate(-53.543 -107.343)" fill="#12263f"/>
  </g>
</svg>
