<svg xmlns="http://www.w3.org/2000/svg" xmlns:xlink="http://www.w3.org/1999/xlink" width="1057.711" height="904" viewBox="0 0 1057.711 904">
  <defs>
    <clipPath id="clip-path">
      <rect id="Rectángulo_56691" data-name="Rectángulo 56691" width="23.881" height="23.855" fill="#707070"/>
    </clipPath>
    <clipPath id="clip-path-2">
      <rect id="Rectángulo_56708" data-name="Rectángulo 56708" width="33.534" height="29.047" fill="#4d4d4d"/>
    </clipPath>
    <clipPath id="clip-path-3">
      <rect id="Rectángulo_59423" data-name="Rectángulo 59423" width="20.068" height="25.426" fill="#4d4d4d"/>
    </clipPath>
    <clipPath id="clip-path-4">
      <rect id="Rectángulo_54408" data-name="Rectángulo 54408" width="21.544" height="27.426" fill="#4d4d4d"/>
    </clipPath>
  </defs>
  <g id="Grupo_595808" data-name="Grupo 595808" transform="translate(-332 -574)">
    <g id="Grupo_595745" data-name="Grupo 595745" transform="translate(-722.289 1630.241) rotate(-90)">
      <circle id="Elipse_5386" data-name="Elipse 5386" cx="5" cy="5" r="5" transform="translate(236 2102) rotate(90)" fill="#7f0f98"/>
      <circle id="Elipse_5387" data-name="Elipse 5387" cx="5" cy="5" r="5" transform="translate(236 2088) rotate(90)" fill="#7f0f98"/>
      <circle id="Elipse_5388" data-name="Elipse 5388" cx="5" cy="5" r="5" transform="translate(236 2074) rotate(90)" fill="#7f0f98"/>
      <circle id="Elipse_5389" data-name="Elipse 5389" cx="5" cy="5" r="5" transform="translate(236 2058) rotate(90)" fill="#7f0f98"/>
      <circle id="Elipse_5390" data-name="Elipse 5390" cx="5" cy="5" r="5" transform="translate(236 2028) rotate(90)" fill="#7f0f98"/>
    </g>
    <g id="Grupo_595746" data-name="Grupo 595746">
      <rect id="Rectángulo_59424" data-name="Rectángulo 59424" width="91" height="90" rx="9" transform="translate(621 574)" fill="#b87ac6"/>
      <rect id="Rectángulo_59425" data-name="Rectángulo 59425" width="85" height="84" rx="9" transform="translate(624 577)" fill="#fff"/>
    </g>
    <g id="Grupo_595747" data-name="Grupo 595747">
      <rect id="Rectángulo_59426" data-name="Rectángulo 59426" width="91" height="90" rx="9" transform="translate(844 574)" fill="#b87ac6"/>
      <rect id="Rectángulo_59427" data-name="Rectángulo 59427" width="85" height="84" rx="9" transform="translate(847 577)" fill="#fff"/>
    </g>
    <g id="Grupo_595748" data-name="Grupo 595748">
      <rect id="Rectángulo_59428" data-name="Rectángulo 59428" width="91" height="90" rx="9" transform="translate(733 687)" fill="#b87ac6"/>
      <rect id="Rectángulo_59429" data-name="Rectángulo 59429" width="85" height="84" rx="9" transform="translate(736 690)" fill="#fff"/>
    </g>
    <g id="Grupo_595749" data-name="Grupo 595749">
      <g id="Grupo_595754" data-name="Grupo 595754">
        <rect id="Rectángulo_59434" data-name="Rectángulo 59434" width="108" height="107" rx="9" transform="translate(469 886)" fill="#b87ac6"/>
        <rect id="Rectángulo_59435" data-name="Rectángulo 59435" width="100" height="99" rx="9" transform="translate(473 890)" fill="#fff"/>
      </g>
    </g>
    <g id="Grupo_595750" data-name="Grupo 595750">
      <g id="Grupo_595755" data-name="Grupo 595755">
        <rect id="Rectángulo_59436" data-name="Rectángulo 59436" width="108" height="107" rx="9" transform="translate(398 751)" fill="#b87ac6"/>
        <rect id="Rectángulo_59437" data-name="Rectángulo 59437" width="100" height="99" rx="9" transform="translate(402 755)" fill="#fff"/>
      </g>
    </g>
    <g id="Grupo_595751" data-name="Grupo 595751">
      <g id="Grupo_595753" data-name="Grupo 595753">
        <rect id="Rectángulo_59438" data-name="Rectángulo 59438" width="108" height="107" rx="9" transform="translate(332 954)" fill="#b87ac6"/>
        <rect id="Rectángulo_59439" data-name="Rectángulo 59439" width="100" height="99" rx="9" transform="translate(336 958)" fill="#fff"/>
      </g>
    </g>
    <g id="Grupo_595752" data-name="Grupo 595752" transform="translate(-1 1)">
      <path id="Trazado_215772" data-name="Trazado 215772" d="M9,0H118a9,9,0,0,1,9,9V117a9,9,0,0,1-9,9H9a9,9,0,0,1-9-9V9A9,9,0,0,1,9,0Z" transform="translate(946 873)" fill="#b87ac6"/>
      <rect id="Rectángulo_59431" data-name="Rectángulo 59431" width="119" height="117" rx="9" transform="translate(950 877)" fill="#fff"/>
    </g>
    <g id="Grupo_595753-2" data-name="Grupo 595753" transform="translate(-262 50)">
      <rect id="Rectángulo_59430" data-name="Rectángulo 59430" width="189" height="187" rx="9" transform="translate(946 873)" fill="#7f0f98"/>
      <rect id="Rectángulo_59431-2" data-name="Rectángulo 59431" width="177" height="174" rx="9" transform="translate(952 879)" fill="#fff"/>
    </g>
    <g id="Grupo_595754-2" data-name="Grupo 595754">
      <g id="Grupo_595752-2" data-name="Grupo 595752">
        <rect id="Rectángulo_59440" data-name="Rectángulo 59440" width="123" height="122" rx="9" transform="translate(570 1167)" fill="#b87ac6"/>
        <rect id="Rectángulo_59441" data-name="Rectángulo 59441" width="115" height="113" rx="9" transform="translate(574 1171)" fill="#fff"/>
      </g>
    </g>
    <g id="Grupo_595755-2" data-name="Grupo 595755">
      <g id="Grupo_595756" data-name="Grupo 595756" transform="translate(296 14)">
        <rect id="Rectángulo_59440-2" data-name="Rectángulo 59440" width="123" height="122" rx="9" transform="translate(570 1167)" fill="#b87ac6"/>
        <rect id="Rectángulo_59441-2" data-name="Rectángulo 59441" width="115" height="113" rx="9" transform="translate(574 1171)" fill="#fff"/>
      </g>
    </g>
    <g id="Grupo_595756-2" data-name="Grupo 595756" transform="translate(271 177)">
      <rect id="Rectángulo_59440-3" data-name="Rectángulo 59440" width="123" height="122" rx="9" transform="translate(570 1167)" fill="#b87ac6"/>
      <rect id="Rectángulo_59441-3" data-name="Rectángulo 59441" width="115" height="113" rx="9" transform="translate(574 1171)" fill="#fff"/>
    </g>
    <g id="Grupo_595757" data-name="Grupo 595757">
      <g id="Grupo_595757-2" data-name="Grupo 595757" transform="translate(459 39)">
        <rect id="Rectángulo_59440-4" data-name="Rectángulo 59440" width="123" height="122" rx="9" transform="translate(570 1167)" fill="#b87ac6"/>
        <rect id="Rectángulo_59441-4" data-name="Rectángulo 59441" width="115" height="113" rx="9" transform="translate(574 1171)" fill="#fff"/>
      </g>
    </g>
    <g id="Grupo_595758" data-name="Grupo 595758">
      <rect id="Rectángulo_59442" data-name="Rectángulo 59442" width="123" height="122" rx="9" transform="translate(431 1356)" fill="#b87ac6"/>
      <rect id="Rectángulo_59443" data-name="Rectángulo 59443" width="115" height="113" rx="9" transform="translate(435 1360)" fill="#fff"/>
    </g>
    <g id="Grupo_595759" data-name="Grupo 595759" transform="translate(1)">
      <rect id="Rectángulo_59432" data-name="Rectángulo 59432" width="127" height="126" rx="9" transform="translate(1133 814)" fill="#b87ac6"/>
      <rect id="Rectángulo_59433" data-name="Rectángulo 59433" width="119" height="117" rx="9" transform="translate(1137 818)" fill="#fff"/>
    </g>
    <text id="Métodos_estadísticos_" data-name="Métodos estadísticos " transform="translate(621 583)" fill="#12263f" font-size="14" font-family="ArialMT, Arial"><tspan x="18.652" y="13">Métodos </tspan><tspan x="8.538" y="37">estadísticos </tspan></text>
    <g id="Grupo_595760" data-name="Grupo 595760" transform="translate(-6739.484 11632.316)">
      <path id="Trazado_213433" data-name="Trazado 213433" d="M1196.6,198.308a4.612,4.612,0,1,1,4.612-4.612,4.617,4.617,0,0,1-4.612,4.612m0-8.249a3.637,3.637,0,1,0,3.637,3.637,3.642,3.642,0,0,0-3.637-3.637" transform="translate(6212.28 -11192.376)" fill="#4d4d4d"/>
      <path id="Trazado_213434" data-name="Trazado 213434" d="M1198.488,199.047a.487.487,0,0,1-.345-.143l-1.179-1.178a.488.488,0,1,1,.689-.69l.793.793,2.016-2.521a.488.488,0,0,1,.762.609l-2.357,2.946a.487.487,0,0,1-.353.182h-.027" transform="translate(6209.804 -11195.472)" fill="#4d4d4d"/>
      <path id="Trazado_213435" data-name="Trazado 213435" d="M1171.845,234.619a.488.488,0,0,1-.488-.488v-5.4h-2.56v5.4a.488.488,0,0,1-.975,0v-6.38h4.511v6.38a.488.488,0,0,1-.488.488" transform="translate(6224.662 -11212.188)" fill="#4d4d4d"/>
      <path id="Trazado_213436" data-name="Trazado 213436" d="M1186.345,231.523a.487.487,0,0,1-.487-.488v-8.351h-2.56v8.351a.488.488,0,0,1-.975,0v-9.326h4.511v9.326a.488.488,0,0,1-.488.488" transform="translate(6217.233 -11209.092)" fill="#4d4d4d"/>
      <path id="Trazado_213437" data-name="Trazado 213437" d="M1200.845,225.952a.488.488,0,0,1-.488-.488V211.81h-2.56v13.654a.488.488,0,1,1-.975,0V210.835h4.511v14.629a.488.488,0,0,1-.488.488" transform="translate(6209.804 -11203.521)" fill="#4d4d4d"/>
      <path id="Trazado_213438" data-name="Trazado 213438" d="M1215.345,229.666a.487.487,0,0,1-.488-.488V219.059h-2.56v10.119a.488.488,0,1,1-.975,0V218.084h4.511v11.094a.487.487,0,0,1-.488.488" transform="translate(6202.375 -11207.234)" fill="#4d4d4d"/>
    </g>
    <g id="Grupo_595761" data-name="Grupo 595761" transform="translate(0 -2)">
      <g id="Grupo_595774" data-name="Grupo 595774" transform="translate(0.574)">
        <path id="Trazado_215766" data-name="Trazado 215766" d="M1795.519,196.267a2.633,2.633,0,1,1,2.632-2.633,2.635,2.635,0,0,1-2.632,2.633m0-4.29a1.658,1.658,0,1,0,1.657,1.658,1.659,1.659,0,0,0-1.657-1.658" transform="translate(-906.592 441.642)" fill="#4d4d4d"/>
        <path id="Trazado_215767" data-name="Trazado 215767" d="M1771.346,222.693a1.918,1.918,0,1,1,1.918-1.918,1.92,1.92,0,0,1-1.918,1.918m0-2.861a.943.943,0,1,0,.943.942.944.944,0,0,0-.943-.942" transform="translate(-894.573 427.369)" fill="#4d4d4d"/>
        <path id="Trazado_215768" data-name="Trazado 215768" d="M1772.7,232.955a.488.488,0,0,1-.488-.488,2.372,2.372,0,1,0-4.744,0,.488.488,0,0,1-.975,0,3.348,3.348,0,1,1,6.7,0,.488.488,0,0,1-.488.488" transform="translate(-893.071 422.111)" fill="#4d4d4d"/>
        <path id="Trazado_215769" data-name="Trazado 215769" d="M1821.193,222.693a1.918,1.918,0,1,1,1.918-1.918,1.92,1.92,0,0,1-1.918,1.918m0-2.861a.943.943,0,1,0,.943.942.943.943,0,0,0-.943-.942" transform="translate(-920.113 427.369)" fill="#4d4d4d"/>
        <path id="Trazado_215770" data-name="Trazado 215770" d="M1822.551,232.955a.487.487,0,0,1-.488-.488,2.372,2.372,0,1,0-4.744,0,.488.488,0,0,1-.975,0,3.348,3.348,0,1,1,6.7,0,.488.488,0,0,1-.488.488" transform="translate(-918.61 422.111)" fill="#4d4d4d"/>
        <path id="Trazado_215771" data-name="Trazado 215771" d="M1790.937,218.312a2.273,2.273,0,0,0-3.575,0,2.278,2.278,0,0,1-2.275-2.275v-11.1h0a1.906,1.906,0,0,1-.529-.375l-3.539-3.539a1.917,1.917,0,0,1,.35-2.992,1.963,1.963,0,0,1,2.41.326l3.177,3.177a3.97,3.97,0,0,1,2.172-.635,4.057,4.057,0,0,1,2.21.642l3.183-3.183a1.963,1.963,0,0,1,2.409-.326,1.917,1.917,0,0,1,.35,2.992l-3.539,3.539a1.9,1.9,0,0,1-.529.375v11.1a2.278,2.278,0,0,1-2.275,2.275m-1.3-9.067v6.792a1.3,1.3,0,0,0,2.6,0V204.948a2.437,2.437,0,0,0-.018-.3l-.056-.453.448-.087a.856.856,0,0,0,.441-.245l3.539-3.539a.943.943,0,0,0,.279-.671.959.959,0,0,0-.46-.808.982.982,0,0,0-1.2.191l-3.791,3.791-.342-.281a3.086,3.086,0,0,0-3.866,0l-.341.277-3.782-3.782a.984.984,0,0,0-1.2-.191.959.959,0,0,0-.46.808.944.944,0,0,0,.278.671l3.539,3.539a.856.856,0,0,0,.441.245l.448.087-.057.453a2.276,2.276,0,0,0-.018.282v11.1a1.3,1.3,0,1,0,2.6,0v-6.792Z" transform="translate(-900.222 438.184)" fill="#4d4d4d"/>
      </g>
      <text id="Medidas_de_tendencia_" data-name="Medidas de tendencia " transform="translate(844 586)" fill="#12263f" font-size="14" font-family="ArialMT, Arial"><tspan x="9.311" y="13">Medidas de </tspan><tspan x="15.142" y="37">tendencia </tspan></text>
    </g>
    <g id="Grupo_595762" data-name="Grupo 595762" transform="translate(-6775 11747)">
      <text id="Estadística_descriptiva" data-name="Estadística descriptiva" transform="translate(7508 -11052)" fill="#12263f" font-size="14" font-family="ArialMT, Arial"><tspan x="11.262" y="13">Estadística </tspan><tspan x="12.042" y="37">descriptiva</tspan></text>
      <g id="Grupo_595748-2" data-name="Grupo 595748" transform="translate(7541 -11002.638)">
        <g id="Grupo_171399" data-name="Grupo 171399" clip-path="url(#clip-path)">
          <path id="Trazado_210775" data-name="Trazado 210775" d="M2.376,5.538V5.27q0-2.385,0-4.77c0-.359.138-.5.494-.5H20.987c.369,0,.5.139.5.515q0,3.751,0,7.5v.33h1.047A1.208,1.208,0,0,1,23.88,9.682q0,2.248,0,4.5A1.205,1.205,0,0,1,22.554,15.5H21.491v.289c0,1.441,0,2.882,0,4.323a.71.71,0,0,1-.224.55q-1.494,1.477-2.974,2.968a.689.689,0,0,1-.527.221q-7.428-.006-14.856,0c-.408,0-.536-.127-.536-.533q0-4.323,0-8.645a1.907,1.907,0,0,0-.069-.512Q1.187,10.225.061,6.291a1.2,1.2,0,0,1,.926-1.6,1.291,1.291,0,0,1,1.389.849M17.907,15.5c-.256,0-.486,0-.717,0a1.2,1.2,0,0,1-1.274-1.277q0-2.3,0-4.6A1.2,1.2,0,0,1,17.21,8.348q1.605,0,3.21,0h.262V.809H3.173v.307q0,3.552,0,7.1a2,2,0,0,0,.076.535q1.8,6.334,3.6,12.667a1.426,1.426,0,0,1,.022.559c-.046.351-.124.7-.192,1.058H17.509c0-.893,0-1.769,0-2.646,0-.388.133-.517.526-.518h2.65V15.448a1.618,1.618,0,0,0-.351.192c-.558.544-1.107,1.1-1.657,1.648-.149.149-.3.264-.526.167s-.247-.285-.245-.5c.005-.472,0-.943,0-1.455m.8.643a7.942,7.942,0,0,0,.7-.72,1.742,1.742,0,0,1,1.74-.729,12.006,12.006,0,0,0,1.441.01c.359,0,.5-.139.5-.492q0-2.3,0-4.592c0-.338-.146-.479-.488-.48q-2.7,0-5.4,0c-.342,0-.485.142-.486.482q0,2.3,0,4.592c0,.352.142.488.5.49.332,0,.663,0,.995,0,.354,0,.49.142.493.5,0,.286,0,.572,0,.937M5.957,22.585a2.787,2.787,0,0,0,.082-1.172q-1.8-6.231-3.565-12.471C2.318,8.4,2.161,7.852,2,7.289l-.756.22c.022.09.035.155.053.218Q3.263,14.62,5.22,21.514a2.566,2.566,0,0,0,.737,1.071M3.218,17.362l-.028.006v5.675H5.279c-.118-.131-.2-.241-.3-.333a1.628,1.628,0,0,1-.476-.848c-.161-.633-.354-1.257-.533-1.885l-.748-2.616m15.106,3.314v1.667L20,20.676ZM1.018,6.739l.765-.216-.188-.652c-.009-.032-.014-.065-.025-.1A.4.4,0,1,0,.807,6c.06.23.13.458.211.74" transform="translate(0 0)" fill="#707070"/>
          <path id="Trazado_210776" data-name="Trazado 210776" d="M78.006,67.038v-.772h.784v-.28q0-1.975,0-3.949c0-.423.123-.546.547-.547.448,0,.9,0,1.344,0,.358,0,.5.14.5.5q0,1.987,0,3.974v.285h.8v-.273q0-2.36,0-4.719c0-.439.119-.557.561-.557s.879,0,1.319,0c.373,0,.508.136.509.51q0,2.372,0,4.744v.291h.8v-.259q0-2.757,0-5.514c0-.454.115-.567.575-.568.44,0,.879,0,1.319,0,.355,0,.494.141.494.5q0,2.782,0,5.564v.287l.387.019v.769Zm7.964-.792h.768V60.714H85.97ZM83.551,61.5h-.765V66.25h.765Zm-3.189.8h-.757v3.953h.757Z" transform="translate(-72.83 -55.925)" fill="#707070"/>
          <path id="Trazado_210777" data-name="Trazado 210777" d="M110.491,189.473c.382,0,.746,0,1.11,0s.495.143.493.5a5.756,5.756,0,0,1-1.609,4.049c-.279.3-.468.3-.754.014-.263-.264-.52-.533-.787-.807a4.365,4.365,0,0,1-4.138.806,4.22,4.22,0,0,1-2.64-2.295,4.344,4.344,0,0,1,2.389-5.941,4.158,4.158,0,0,1,3.882.369,4.315,4.315,0,0,1,2.053,3.3m-5.72-2.894a.426.426,0,0,0,.027.091c.5.9.993,1.794,1.5,2.685a.317.317,0,0,0,.238.113c.995.008,1.989.005,2.984,0a1.052,1.052,0,0,0,.139-.018,3.544,3.544,0,0,0-4.889-2.875m.843,3.2-1.561-2.8a3.489,3.489,0,0,0-.722,5.078l2.283-2.277m2.7,2.9-2.174-2.159-2.183,2.181a3.513,3.513,0,0,0,4.357-.022m-1.132-2.4,2.95,2.949a4.955,4.955,0,0,0,1.162-2.949Z" transform="translate(-94.985 -173.174)" fill="#707070"/>
          <path id="Trazado_210778" data-name="Trazado 210778" d="M236.222,52.269h-.767V48.722h-.8v3.547h-.785c0-.07-.014-.141-.014-.212q0-1.813,0-3.627c0-.39.131-.521.522-.522.473,0,.946,0,1.418,0a.393.393,0,0,1,.446.42c0,1.292,0,2.583,0,3.875a.306.306,0,0,1-.019.064" transform="translate(-218.338 -44.728)" fill="#707070"/>
          <rect id="Rectángulo_56688" data-name="Rectángulo 56688" width="5.546" height="0.763" transform="translate(9.159 2.006)" fill="#707070"/>
          <path id="Trazado_210779" data-name="Trazado 210779" d="M279.149,146.649l.68.414-2.388,3.973-.68-.412,2.389-3.975" transform="translate(-258.396 -136.918)" fill="#707070"/>
          <rect id="Rectángulo_56689" data-name="Rectángulo 56689" width="0.757" height="0.773" transform="translate(18.724 9.944)" fill="#707070"/>
          <rect id="Rectángulo_56690" data-name="Rectángulo 56690" width="0.768" height="0.763" transform="translate(20.313 13.132)" fill="#707070"/>
        </g>
      </g>
    </g>
    <g id="Grupo_595763" data-name="Grupo 595763" transform="translate(-6806 11820)">
      <g id="Grupo_595778" data-name="Grupo 595778" transform="translate(-4.157 -1)">
        <path id="Trazado_213455" data-name="Trazado 213455" d="M908.92,215.136a6.38,6.38,0,1,1,6.38-6.38,6.388,6.388,0,0,1-6.38,6.38m0-11.785a5.4,5.4,0,1,0,5.4,5.4,5.411,5.411,0,0,0-5.4-5.4" transform="translate(6360.58 -11199.187)" fill="#4d4d4d"/>
        <path id="Trazado_213456" data-name="Trazado 213456" d="M915.111,218.97a.488.488,0,1,1,0-.975,3.051,3.051,0,0,0,3.047-3.048.488.488,0,1,1,.975,0,4.027,4.027,0,0,1-4.023,4.023" transform="translate(6354.39 -11205.377)" fill="#4d4d4d"/>
        <path id="Trazado_213457" data-name="Trazado 213457" d="M878.8,212.45h-1.179a1.668,1.668,0,0,1-1.666-1.666V190.75a1.668,1.668,0,0,1,1.666-1.666h12.963a1.668,1.668,0,0,1,1.666,1.666v1.179a.488.488,0,0,1-.975,0V190.75a.692.692,0,0,0-.691-.691H877.623a.691.691,0,0,0-.69.691v20.034a.691.691,0,0,0,.69.691H878.8a.488.488,0,1,1,0,.975" transform="translate(6374.2 -11192.376)" fill="#4d4d4d"/>
        <path id="Trazado_213458" data-name="Trazado 213458" d="M890.824,206.976H886.11a.488.488,0,0,1,0-.975h4.714a.488.488,0,1,1,0,.975" transform="translate(6369.248 -11201.044)" fill="#4d4d4d"/>
        <path id="Trazado_213459" data-name="Trazado 213459" d="M890.824,214.226H886.11a.488.488,0,0,1,0-.975h4.714a.488.488,0,1,1,0,.975" transform="translate(6369.248 -11204.759)" fill="#4d4d4d"/>
        <path id="Trazado_213460" data-name="Trazado 213460" d="M892.591,221.476H886.11a.488.488,0,0,1,0-.975h6.482a.488.488,0,1,1,0,.975" transform="translate(6369.248 -11208.473)" fill="#4d4d4d"/>
        <path id="Trazado_213461" data-name="Trazado 213461" d="M895.538,228.726h-9.428a.488.488,0,1,1,0-.975h9.428a.488.488,0,1,1,0,.975" transform="translate(6369.248 -11212.188)" fill="#4d4d4d"/>
        <path id="Trazado_213462" data-name="Trazado 213462" d="M894.241,217.284H882.456a1.668,1.668,0,0,1-1.666-1.666V195.584a1.668,1.668,0,0,1,1.666-1.666h12.964a1.668,1.668,0,0,1,1.666,1.666v.589a.488.488,0,0,1-.975,0v-.589a.691.691,0,0,0-.69-.691H882.456a.691.691,0,0,0-.69.691v20.034a.691.691,0,0,0,.69.691h11.785a.488.488,0,1,1,0,.975" transform="translate(6371.724 -11194.854)" fill="#4d4d4d"/>
        <path id="Trazado_213463" data-name="Trazado 213463" d="M913.872,234.3a1.668,1.668,0,0,1-1.666-1.666v-5.3a1.207,1.207,0,0,1,.013-.2l.962.162v5.34a.691.691,0,1,0,1.382,0v-5.3l.962-.2a1.219,1.219,0,0,1,.013.2v5.3a1.668,1.668,0,0,1-1.666,1.666" transform="translate(6355.628 -11211.871)" fill="#4d4d4d"/>
      </g>
      <text id="Proyección_mercado_" data-name="Proyección mercado " transform="translate(7213 -11052)" fill="#12263f" font-size="14" font-family="ArialMT, Arial"><tspan x="10.873" y="13">Proyección </tspan><tspan x="18.266" y="37">mercado </tspan></text>
    </g>
    <g id="Grupo_595764" data-name="Grupo 595764" transform="translate(-3 -0.285)">
      <g id="Grupo_595781" data-name="Grupo 595781" transform="translate(-6588.354 11954.285)">
        <path id="Trazado_213439" data-name="Trazado 213439" d="M585.723,214.807a12.861,12.861,0,1,1,12.862-12.862,12.876,12.876,0,0,1-12.862,12.862m0-24.748a11.886,11.886,0,1,0,11.886,11.886,11.9,11.9,0,0,0-11.886-11.886" transform="translate(6529.493 -11192.376)" fill="#4d4d4d"/>
        <path id="Trazado_213440" data-name="Trazado 213440" d="M598.724,192.417a.488.488,0,0,1-.488-.488v-2.357a.488.488,0,1,1,.975,0v2.357a.488.488,0,0,1-.488.488" transform="translate(6516.492 -11192.377)" fill="#4d4d4d"/>
        <path id="Trazado_213441" data-name="Trazado 213441" d="M585.194,196.813a.487.487,0,0,1-.395-.2l-1.385-1.907a.488.488,0,1,1,.789-.573l1.385,1.907a.488.488,0,0,1-.394.774" transform="translate(6524.133 -11194.859)" fill="#4d4d4d"/>
        <path id="Trazado_213442" data-name="Trazado 213442" d="M576.832,208.322a.491.491,0,0,1-.151-.024l-2.242-.729a.488.488,0,1,1,.3-.928l2.242.728a.488.488,0,0,1-.151.952" transform="translate(6528.856 -11201.36)" fill="#4d4d4d"/>
        <path id="Trazado_213443" data-name="Trazado 213443" d="M574.591,222.511a.488.488,0,0,1-.151-.952l2.242-.728a.488.488,0,0,1,.3.928l-2.242.729a.491.491,0,0,1-.151.024" transform="translate(6528.856 -11208.63)" fill="#4d4d4d"/>
        <path id="Trazado_213444" data-name="Trazado 213444" d="M583.808,233.96a.488.488,0,0,1-.394-.774l1.385-1.907a.488.488,0,0,1,.789.573l-1.385,1.907a.487.487,0,0,1-.395.2" transform="translate(6524.133 -11213.893)" fill="#4d4d4d"/>
        <path id="Trazado_213445" data-name="Trazado 213445" d="M598.724,238.333a.488.488,0,0,1-.488-.488v-2.357a.488.488,0,1,1,.975,0v2.357a.488.488,0,0,1-.488.488" transform="translate(6516.492 -11215.902)" fill="#4d4d4d"/>
        <path id="Trazado_213446" data-name="Trazado 213446" d="M612.183,233.96a.487.487,0,0,1-.395-.2l-1.385-1.907a.488.488,0,1,1,.789-.573l1.385,1.907a.488.488,0,0,1-.394.774" transform="translate(6510.306 -11213.893)" fill="#4d4d4d"/>
        <path id="Trazado_213447" data-name="Trazado 213447" d="M620.5,222.511a.492.492,0,0,1-.151-.024l-2.242-.729a.488.488,0,1,1,.3-.928l2.242.728a.488.488,0,0,1-.151.952" transform="translate(6506.482 -11208.63)" fill="#4d4d4d"/>
        <path id="Trazado_213448" data-name="Trazado 213448" d="M618.26,208.322a.488.488,0,0,1-.151-.952l2.242-.728a.488.488,0,1,1,.3.928l-2.242.729a.494.494,0,0,1-.151.024" transform="translate(6506.482 -11201.36)" fill="#4d4d4d"/>
        <path id="Trazado_213449" data-name="Trazado 213449" d="M610.8,196.813a.488.488,0,0,1-.394-.774l1.385-1.907a.488.488,0,1,1,.789.573l-1.385,1.907a.487.487,0,0,1-.4.2" transform="translate(6510.306 -11194.859)" fill="#4d4d4d"/>
        <path id="Trazado_213450" data-name="Trazado 213450" d="M592.533,215.135a6.38,6.38,0,1,1,6.2-7.887.487.487,0,0,1-.948.23,5.405,5.405,0,1,0-5.253,6.682.488.488,0,0,1,0,.975" transform="translate(6522.682 -11199.187)" fill="#4d4d4d"/>
        <path id="Trazado_213451" data-name="Trazado 213451" d="M608.863,212.032l1.2,1.532.729-1.8Z" transform="translate(6511.047 -11203.995)" fill="#4d4d4d"/>
        <path id="Trazado_213452" data-name="Trazado 213452" d="M597.485,215.374a1.666,1.666,0,1,1,1.666-1.666,1.668,1.668,0,0,1-1.666,1.666m0-2.357a.691.691,0,1,0,.691.691.692.692,0,0,0-.691-.691" transform="translate(6517.73 -11204.139)" fill="#4d4d4d"/>
        <path id="Trazado_213453" data-name="Trazado 213453" d="M598.724,206.827a.488.488,0,0,1-.488-.488v-5.892a.488.488,0,1,1,.975,0v5.892a.488.488,0,0,1-.488.488" transform="translate(6516.492 -11197.948)" fill="#4d4d4d"/>
        <path id="Trazado_213454" data-name="Trazado 213454" d="M593.89,220.208a.488.488,0,0,1-.39-.78l1.768-2.357a.488.488,0,0,1,.78.585l-1.768,2.357a.487.487,0,0,1-.391.2" transform="translate(6518.968 -11206.616)" fill="#4d4d4d"/>
      </g>
      <text id="Proceso_administrativo_" data-name="Proceso administrativo " transform="translate(481 902.285)" fill="#12263f" font-size="14" font-family="ArialMT, Arial"><tspan x="19.821" y="13">Proceso </tspan><tspan x="2.317" y="37">administrativo </tspan></text>
    </g>
    <g id="Grupo_595765" data-name="Grupo 595765" transform="translate(-6591 12025)">
      <g id="Grupo_595783" data-name="Grupo 595783" transform="translate(10.293 -1)">
        <path id="Trazado_213418" data-name="Trazado 213418" d="M287.8,196.86a.488.488,0,0,1-.488-.488v-3.205a.666.666,0,0,0-.2-.482.674.674,0,0,0-.491-.209.692.692,0,0,0-.69.691v2.946a.488.488,0,0,1-.975,0v-2.946a1.668,1.668,0,0,1,1.666-1.666,1.675,1.675,0,0,1,1.666,1.666v3.205a.488.488,0,0,1-.488.488" transform="translate(6677.003 -11193.615)" fill="#4d4d4d"/>
        <path id="Trazado_213419" data-name="Trazado 213419" d="M286.618,207.269a1.668,1.668,0,0,1-1.666-1.666v-.43a.488.488,0,1,1,.975,0v.43a.691.691,0,1,0,1.382,0v-.842a.488.488,0,0,1,.975,0v.842a1.668,1.668,0,0,1-1.666,1.666" transform="translate(6677.004 -11200.158)" fill="#4d4d4d"/>
        <path id="Trazado_213420" data-name="Trazado 213420" d="M298.7,200.726a1.668,1.668,0,0,1-1.666-1.666v-5.892a1.666,1.666,0,1,1,3.333,0v5.892a1.668,1.668,0,0,1-1.666,1.666m0-8.25a.692.692,0,0,0-.691.691v5.892a.691.691,0,1,0,1.382,0v-5.892a.692.692,0,0,0-.691-.691" transform="translate(6670.813 -11193.615)" fill="#4d4d4d"/>
        <path id="Trazado_213421" data-name="Trazado 213421" d="M304.743,201.933a1.668,1.668,0,0,1-1.666-1.666v-5.893a1.666,1.666,0,0,1,3.333,0v5.893a1.668,1.668,0,0,1-1.666,1.666m0-8.249a.692.692,0,0,0-.691.69v5.893a.691.691,0,0,0,1.382,0v-5.893a.692.692,0,0,0-.691-.69" transform="translate(6667.717 -11194.233)" fill="#4d4d4d"/>
        <path id="Trazado_213422" data-name="Trazado 213422" d="M292.66,198.9a1.668,1.668,0,0,1-1.666-1.666V190.75a1.666,1.666,0,0,1,3.333,0v6.482a1.668,1.668,0,0,1-1.666,1.666m0-8.839a.692.692,0,0,0-.691.691v6.482a.691.691,0,0,0,1.382,0V190.75a.692.692,0,0,0-.691-.691" transform="translate(6673.908 -11192.376)" fill="#4d4d4d"/>
        <path id="Trazado_213423" data-name="Trazado 213423" d="M289.045,213.9H283.9a4.989,4.989,0,0,1-4.983-4.984v-7.289a1.674,1.674,0,0,1,.768-1.4,1.6,1.6,0,0,1,.9-.265h3.347a1.7,1.7,0,0,1,1.59,1.025,1.669,1.669,0,0,1-1.537,2.308h-1.043a.692.692,0,0,0-.691.691v2.357a.488.488,0,1,1-.975,0v-2.357a1.668,1.668,0,0,1,1.666-1.666h1.043a.695.695,0,0,0,.632-.967.724.724,0,0,0-.686-.414h-3.347a.631.631,0,0,0-.363.1.7.7,0,0,0-.328.586v7.289a4.013,4.013,0,0,0,4.008,4.008h5.15a4.013,4.013,0,0,0,4.008-4.008v-4.932a.488.488,0,1,1,.975,0v4.932a4.989,4.989,0,0,1-4.983,4.984" transform="translate(6680.098 -11197.948)" fill="#4d4d4d"/>
        <path id="Trazado_213424" data-name="Trazado 213424" d="M293.66,236.475h-9.428a.488.488,0,0,1-.488-.488v-4.125a.488.488,0,0,1,.488-.488h9.428a.488.488,0,0,1,.488.488v4.125a.488.488,0,0,1-.488.488m-8.94-.975h8.452v-3.149h-8.452Z" transform="translate(6677.623 -11214.044)" fill="#4d4d4d"/>
        <path id="Trazado_213425" data-name="Trazado 213425" d="M287.857,229.874a.488.488,0,0,1-.488-.488V227.03a.488.488,0,1,1,.975,0v2.357a.488.488,0,0,1-.488.488" transform="translate(6675.766 -11211.568)" fill="#4d4d4d"/>
        <path id="Trazado_213426" data-name="Trazado 213426" d="M299.941,229.874a.488.488,0,0,1-.488-.488V227.03a.488.488,0,1,1,.975,0v2.357a.488.488,0,0,1-.488.488" transform="translate(6669.574 -11211.568)" fill="#4d4d4d"/>
        <path id="Trazado_213427" data-name="Trazado 213427" d="M288.357,235.975h-4.125a.488.488,0,0,1,0-.975h4.125a.488.488,0,1,1,0,.975" transform="translate(6677.622 -11215.901)" fill="#4d4d4d"/>
        <path id="Trazado_213428" data-name="Trazado 213428" d="M313.7,206.976h-5.3a.488.488,0,0,1,0-.975h5.3a.488.488,0,1,1,0,.975" transform="translate(6665.241 -11201.044)" fill="#4d4d4d"/>
        <path id="Trazado_213429" data-name="Trazado 213429" d="M278.161,206.976h-1.178a.488.488,0,0,1,0-.975h1.178a.488.488,0,0,1,0,.975" transform="translate(6681.337 -11201.044)" fill="#4d4d4d"/>
        <path id="Trazado_213430" data-name="Trazado 213430" d="M270.291,206.887a2.255,2.255,0,1,1,2.255-2.255,2.258,2.258,0,0,1-2.255,2.255m0-3.535a1.28,1.28,0,1,0,1.28,1.28,1.282,1.282,0,0,0-1.28-1.28" transform="translate(6685.671 -11199.187)" fill="#4d4d4d"/>
        <path id="Trazado_213431" data-name="Trazado 213431" d="M319.274,203.262a.488.488,0,0,1-.488-.488v-3.535a.488.488,0,0,1,.975,0v3.535a.488.488,0,0,1-.488.488" transform="translate(6659.669 -11197.329)" fill="#4d4d4d"/>
        <path id="Trazado_213432" data-name="Trazado 213432" d="M314.44,203.262a.488.488,0,0,1-.488-.488v-3.535a.488.488,0,1,1,.975,0v3.535a.488.488,0,0,1-.488.488" transform="translate(6662.146 -11197.329)" fill="#4d4d4d"/>
      </g>
      <text id="Planeación_estratégica_" data-name="Planeación estratégica " transform="translate(6941 -11052)" fill="#12263f" font-size="14" font-family="ArialMT, Arial"><tspan x="1.362" y="13">Planeación </tspan><tspan x="1.759" y="37">estratégica </tspan></text>
    </g>
    <g id="Grupo_595806" data-name="Grupo 595806" transform="translate(0 -2)">
      <text id="Metodología_datos_masivos" data-name="Metodología datos masivos" transform="translate(447 1380)" fill="#12263f" font-size="14" font-family="ArialMT, Arial"><tspan x="6.973" y="13">Metodología </tspan><tspan x="0.759" y="29">datos masivos</tspan></text>
      <g id="Grupo_595786" data-name="Grupo 595786" transform="translate(-7282 11883)">
        <g id="Grupo_595747-2" data-name="Grupo 595747" transform="translate(7757 -10454)">
          <g id="Grupo_171416" data-name="Grupo 171416" clip-path="url(#clip-path-2)">
            <path id="Trazado_210790" data-name="Trazado 210790" d="M33.535,13.393a11.323,11.323,0,0,1-.389,1.307,4.9,4.9,0,0,1-4.567,3.15c-.37.02-.742.011-1.114.005-.4-.007-.631-.216-.631-.554s.236-.544.634-.56a16.257,16.257,0,0,0,1.7-.071,3.886,3.886,0,0,0,.648-7.5,1.073,1.073,0,0,1-.839-.961,3.866,3.866,0,0,0-5.712-2.7c-.683.377-.937.275-1.171-.47a5.57,5.57,0,0,0-8.086-3.206A5.43,5.43,0,0,0,11.48,4.892c-.032.093-.06.187-.092.28-.195.571-.491.689-1.023.391a3.773,3.773,0,0,0-3.813-.1A3.73,3.73,0,0,0,4.508,8.409a.727.727,0,0,1-.566.668,3.867,3.867,0,0,0-2.249,5.787,3.714,3.714,0,0,0,3.064,1.858c.413.033.829.011,1.244.019.445.008.691.216.684.573s-.239.538-.675.542a7.5,7.5,0,0,1-2.776-.322,5,5,0,0,1-3.2-5.172A4.879,4.879,0,0,1,3.118,8.2a.559.559,0,0,0,.375-.43,5,5,0,0,1,6.683-3.532l.273.1A6.574,6.574,0,0,1,16.777,0a6.572,6.572,0,0,1,6.294,4.336A5.345,5.345,0,0,1,25.3,3.891,5.006,5.006,0,0,1,30,7.675a.67.67,0,0,0,.438.532A4.91,4.91,0,0,1,33.475,12.1a1.243,1.243,0,0,0,.06.18Z" transform="translate(-0.001 -0.001)" fill="#4d4d4d"/>
            <path id="Trazado_210791" data-name="Trazado 210791" d="M100.125,129.741a2.176,2.176,0,0,1-.252.424q-.728.754-1.481,1.483a.565.565,0,0,1-.848.058q-.712-.5-1.41-1.011a.345.345,0,0,0-.409-.048c-.353.168-.728.291-1.08.462a.523.523,0,0,0-.255.316c-.111.544-.19,1.1-.281,1.644-.076.459-.262.625-.724.628q-.983.007-1.965,0a.617.617,0,0,1-.7-.613c-.093-.548-.189-1.1-.268-1.647a.376.376,0,0,0-.281-.347,9.7,9.7,0,0,1-1.055-.437.363.363,0,0,0-.437.051c-.438.325-.884.64-1.329.955-.413.293-.622.279-.975-.07q-.687-.679-1.367-1.366a.606.606,0,0,1-.07-.949c.321-.454.641-.91.974-1.356a.368.368,0,0,0,.035-.439c-.164-.343-.28-.709-.447-1.051a.518.518,0,0,0-.311-.255c-.534-.11-1.074-.187-1.612-.277-.518-.086-.663-.258-.664-.791,0-.633,0-1.267,0-1.9a.605.605,0,0,1,.6-.707c.548-.092,1.1-.189,1.646-.269a.4.4,0,0,0,.364-.308,9.967,9.967,0,0,1,.421-1.026.368.368,0,0,0-.043-.439c-.333-.445-.653-.9-.974-1.356a.61.61,0,0,1,.08-.95q.679-.687,1.367-1.366a.611.611,0,0,1,.952-.075c.454.321.911.64,1.355.975a.371.371,0,0,0,.442.037c.344-.163.708-.284,1.049-.452a.524.524,0,0,0,.26-.31c.112-.544.19-1.1.281-1.644.077-.466.251-.62.722-.622q.983-.005,1.965,0a.607.607,0,0,1,.707.6c.093.548.189,1.1.268,1.647a.372.372,0,0,0,.282.345,9.847,9.847,0,0,1,1.054.438.369.369,0,0,0,.441-.052c.446-.332.9-.653,1.356-.974a.606.606,0,0,1,.927.072q.7.689,1.39,1.389a.6.6,0,0,1,.08.926c-.326.464-.655.927-.994,1.382a.342.342,0,0,0-.043.41,9.328,9.328,0,0,1,.435,1.056.4.4,0,0,0,.373.3c.55.083,1.1.176,1.646.269a.6.6,0,0,1,.587.687c0,.655,0,1.31,0,1.965,0,.472-.148.652-.612.734-.558.1-1.121.177-1.676.288a.477.477,0,0,0-.289.237,11.2,11.2,0,0,0-.461,1.115.477.477,0,0,0,.044.371c.315.471.658.924.981,1.391a3.687,3.687,0,0,1,.228.45m.658-6.189c-.61-.105-1.209-.219-1.811-.309a.711.711,0,0,1-.607-.55,14.419,14.419,0,0,0-.656-1.6.788.788,0,0,1,.051-.934c.355-.466.684-.952,1.022-1.427l-.922-.908c-.451.322-.922.636-1.367.984a.826.826,0,0,1-1.018.067,7.178,7.178,0,0,0-1.443-.6.853.853,0,0,1-.706-.812c-.067-.548-.177-1.091-.268-1.63h-1.3c-.1.581-.2,1.139-.274,1.7a.8.8,0,0,1-.638.723,10.366,10.366,0,0,0-1.534.634.783.783,0,0,1-.934-.05c-.465-.357-.952-.685-1.362-.977l-.954.9c.332.464.669.948,1.02,1.421a.741.741,0,0,1,.057.849c-.257.538-.483,1.094-.685,1.655a.715.715,0,0,1-.612.545c-.6.09-1.2.2-1.8.308v1.29c.592.1,1.161.2,1.732.284a.766.766,0,0,1,.686.593,12.067,12.067,0,0,0,.658,1.6.769.769,0,0,1-.058.905c-.354.469-.686.955-1,1.4l.926.923c.446-.319.925-.644,1.383-.994a.768.768,0,0,1,.931-.058,7.969,7.969,0,0,0,1.472.613.879.879,0,0,1,.722.837c.064.547.178,1.088.27,1.626h1.289c.095-.575.2-1.132.274-1.693a.819.819,0,0,1,.651-.75,9.654,9.654,0,0,0,1.534-.633.772.772,0,0,1,.931.059c.466.355.951.685,1.412,1.013l.921-.91c-.339-.476-.671-.961-1.025-1.43a.767.767,0,0,1-.058-.905,10.673,10.673,0,0,0,.649-1.564.8.8,0,0,1,.729-.628c.569-.078,1.134-.188,1.707-.285Z" transform="translate(-75.652 -104.655)" fill="#4d4d4d"/>
            <path id="Trazado_210792" data-name="Trazado 210792" d="M144.94,172.21a4.466,4.466,0,1,1-4.471,4.441,4.454,4.454,0,0,1,4.471-4.441m0,1.119a3.349,3.349,0,1,0,3.342,3.36,3.35,3.35,0,0,0-3.342-3.36" transform="translate(-128.173 -157.136)" fill="#4d4d4d"/>
          </g>
        </g>
      </g>
    </g>
    <g id="Grupo_595805" data-name="Grupo 595805" transform="translate(0 -4)">
      <g id="Grupo_595790" data-name="Grupo 595790" transform="translate(-6995 11703)">
        <path id="Trazado_213466" data-name="Trazado 213466" d="M1646.841,1317.568a.487.487,0,0,1-.488-.488v-4.366a.488.488,0,0,1,.975,0v4.366a.487.487,0,0,1-.488.488" transform="translate(5979.647 -11767.822)" fill="#4d4d4d"/>
        <path id="Trazado_213471" data-name="Trazado 213471" d="M1644.546,1332.6h-2.184a.488.488,0,0,1,0-.975h2.184a.488.488,0,1,1,0,.975" transform="translate(5983.125 -11777.763)" fill="#4d4d4d"/>
        <g id="Grupo_595789" data-name="Grupo 595789" transform="translate(0.447)">
          <path id="Trazado_213464" data-name="Trazado 213464" d="M1635.371,1339.513a11.4,11.4,0,1,1,11.4-11.4,11.418,11.418,0,0,1-11.4,11.4m0-21.833a10.429,10.429,0,1,0,10.429,10.429,10.441,10.441,0,0,0-10.429-10.429" transform="translate(5990.955 -11770.117)" fill="#4d4d4d"/>
          <path id="Trazado_213465" data-name="Trazado 213465" d="M1630.782,1339.291a15.771,15.771,0,1,1,15.771-15.771,15.789,15.789,0,0,1-15.771,15.771m0-30.567a14.8,14.8,0,1,0,14.8,14.8,14.813,14.813,0,0,0-14.8-14.8" transform="translate(5995.543 -11765.528)" fill="#4d4d4d"/>
          <path id="Trazado_213467" data-name="Trazado 213467" d="M1624.344,1340.064h-4.367a.488.488,0,0,1,0-.975h4.367a.488.488,0,0,1,0,.975" transform="translate(5993.249 -11781.586)" fill="#4d4d4d"/>
          <path id="Trazado_213468" data-name="Trazado 213468" d="M1646.841,1362.341a.487.487,0,0,1-.488-.487v-4.366a.488.488,0,1,1,.975,0v4.366a.487.487,0,0,1-.488.487" transform="translate(5979.485 -11790.762)" fill="#4d4d4d"/>
          <path id="Trazado_213469" data-name="Trazado 213469" d="M1669.116,1340.064h-4.367a.488.488,0,0,1,0-.975h4.367a.488.488,0,1,1,0,.975" transform="translate(5970.31 -11781.586)" fill="#4d4d4d"/>
          <path id="Trazado_213470" data-name="Trazado 213470" d="M1646.129,1339.733h-9.281a.942.942,0,0,1-.942-.941V1326.6a.942.942,0,0,1,.942-.941h9.281a.943.943,0,0,1,.942.941v12.193a.942.942,0,0,1-.942.941m-.034-13.134-9.247.034.034,12.158,9.214-.034Z" transform="translate(5984.837 -11774.704)" fill="#4d4d4d"/>
          <path id="Trazado_213472" data-name="Trazado 213472" d="M1646.73,1340.064h-4.366a.488.488,0,1,1,0-.975h4.366a.488.488,0,0,1,0,.975" transform="translate(5981.779 -11781.586)" fill="#4d4d4d"/>
          <path id="Trazado_213473" data-name="Trazado 213473" d="M1646.73,1347.526h-4.366a.488.488,0,1,1,0-.975h4.366a.488.488,0,0,1,0,.975" transform="translate(5981.779 -11785.409)" fill="#4d4d4d"/>
        </g>
      </g>
      <text id="Técnicas_de_análisis_de_datos_" data-name="Técnicas de análisis de datos " transform="translate(594 1187)" fill="#12263f" font-size="14" font-family="ArialMT, Arial"><tspan x="0.259" y="13">Técnicas de </tspan><tspan x="4.924" y="29">análisis de </tspan><tspan x="20.876" y="45">datos </tspan></text>
    </g>
    <g id="Grupo_595768" data-name="Grupo 595768" transform="translate(-6580 11872)">
      <g id="Grupo_595793" data-name="Grupo 595793" transform="translate(1.942 -7)">
        <path id="Trazado_213393" data-name="Trazado 213393" d="M1328.725,1329a2.493,2.493,0,1,1,2.493-2.493,2.5,2.5,0,0,1-2.493,2.493m0-4.011a1.518,1.518,0,1,0,1.518,1.517,1.519,1.519,0,0,0-1.518-1.517" transform="translate(6143.5 -11773.86)" fill="#4d4d4d"/>
        <path id="Trazado_213394" data-name="Trazado 213394" d="M1330.6,1344.008a.487.487,0,0,1-.488-.488v-2a4.192,4.192,0,1,0-8.383-.02v2.015a.488.488,0,1,1-.975,0v-2.015a5.167,5.167,0,1,1,10.334.02v2a.487.487,0,0,1-.488.488" transform="translate(6146.309 -11780.182)" fill="#4d4d4d"/>
        <path id="Trazado_213395" data-name="Trazado 213395" d="M1326.72,1348.925a.487.487,0,0,1-.488-.488v-2.005a.488.488,0,0,1,.975,0v2.005a.487.487,0,0,1-.488.488" transform="translate(6143.5 -11785.098)" fill="#4d4d4d"/>
        <path id="Trazado_213396" data-name="Trazado 213396" d="M1334.945,1348.925a.487.487,0,0,1-.488-.488v-2.005a.488.488,0,0,1,.975,0v2.005a.487.487,0,0,1-.488.488" transform="translate(6139.286 -11785.098)" fill="#4d4d4d"/>
        <path id="Trazado_213397" data-name="Trazado 213397" d="M1364.368,1364.639a2.493,2.493,0,1,1,2.493-2.494,2.5,2.5,0,0,1-2.493,2.494m0-4.011a1.518,1.518,0,1,0,1.518,1.518,1.519,1.519,0,0,0-1.518-1.518" transform="translate(6125.238 -11792.122)" fill="#4d4d4d"/>
        <path id="Trazado_213398" data-name="Trazado 213398" d="M1364.368,1348.189a2.493,2.493,0,1,1,2.493-2.493,2.5,2.5,0,0,1-2.493,2.493m0-4.011a1.518,1.518,0,1,0,1.518,1.518,1.519,1.519,0,0,0-1.518-1.518" transform="translate(6125.238 -11783.693)" fill="#4d4d4d"/>
        <path id="Trazado_213399" data-name="Trazado 213399" d="M1364.368,1331.738a2.493,2.493,0,1,1,2.493-2.494,2.5,2.5,0,0,1-2.493,2.494m0-4.011a1.518,1.518,0,1,0,1.518,1.518,1.519,1.519,0,0,0-1.518-1.518" transform="translate(6125.238 -11775.265)" fill="#4d4d4d"/>
        <path id="Trazado_213400" data-name="Trazado 213400" d="M1364.368,1315.288a2.493,2.493,0,1,1,2.493-2.494,2.5,2.5,0,0,1-2.493,2.494m0-4.011a1.518,1.518,0,1,0,1.518,1.518,1.519,1.519,0,0,0-1.518-1.518" transform="translate(6125.238 -11766.836)" fill="#4d4d4d"/>
        <path id="Trazado_213401" data-name="Trazado 213401" d="M1352.766,1339.455a.487.487,0,0,1-.488-.488V1314.9a.488.488,0,0,1,.975,0v24.066a.487.487,0,0,1-.488.488" transform="translate(6130.155 -11768.943)" fill="#4d4d4d"/>
        <path id="Trazado_213402" data-name="Trazado 213402" d="M1355.439,1364.74h-2.674a.488.488,0,0,1,0-.975h2.674a.488.488,0,1,1,0,.975" transform="translate(6130.155 -11794.229)" fill="#4d4d4d"/>
        <path id="Trazado_213403" data-name="Trazado 213403" d="M1355.439,1348.29h-2.674a.488.488,0,1,1,0-.975h2.674a.488.488,0,1,1,0,.975" transform="translate(6130.155 -11785.801)" fill="#4d4d4d"/>
        <path id="Trazado_213404" data-name="Trazado 213404" d="M1355.439,1331.84h-2.674a.488.488,0,1,1,0-.975h2.674a.488.488,0,1,1,0,.975" transform="translate(6130.155 -11777.372)" fill="#4d4d4d"/>
        <path id="Trazado_213405" data-name="Trazado 213405" d="M1349.288,1340.064h-2.006a.488.488,0,0,1,0-.975h2.006a.488.488,0,0,1,0,.975" transform="translate(6132.965 -11781.586)" fill="#4d4d4d"/>
        <path id="Trazado_213406" data-name="Trazado 213406" d="M1355.439,1315.389h-2.674a.488.488,0,1,1,0-.975h2.674a.488.488,0,1,1,0,.975" transform="translate(6130.155 -11768.943)" fill="#4d4d4d"/>
      </g>
      <text id="Habeas_Data" data-name="Habeas Data" transform="translate(7437 -10500)" fill="#12263f" font-size="14" font-family="ArialMT, Arial"><tspan x="4.642" y="13">Habeas Data</tspan></text>
    </g>
    <g id="Grupo_595769" data-name="Grupo 595769" transform="translate(5)">
      <g id="Grupo_595798" data-name="Grupo 595798" transform="translate(-6264.155 11708)">
        <path id="Trazado_213407" data-name="Trazado 213407" d="M742.266,1317.24a3.042,3.042,0,1,1,3.042-3.042,3.045,3.045,0,0,1-3.042,3.042m0-5.109a2.067,2.067,0,1,0,2.067,2.066,2.068,2.068,0,0,0-2.067-2.066" transform="translate(6444.255 -11767.274)" fill="#4d4d4d"/>
        <path id="Trazado_213408" data-name="Trazado 213408" d="M713.48,1348.708a2.19,2.19,0,1,1,2.191-2.19,2.193,2.193,0,0,1-2.191,2.19m0-3.405a1.215,1.215,0,1,0,1.215,1.215,1.217,1.217,0,0,0-1.215-1.215" transform="translate(6458.568 -11784.27)" fill="#4d4d4d"/>
        <path id="Trazado_213409" data-name="Trazado 213409" d="M715.1,1360.93a.488.488,0,0,1-.488-.488,2.918,2.918,0,0,0-5.836,0,.488.488,0,1,1-.975,0,3.893,3.893,0,0,1,7.786,0,.488.488,0,0,1-.488.488" transform="translate(6460.356 -11790.531)" fill="#4d4d4d"/>
        <path id="Trazado_213410" data-name="Trazado 213410" d="M772.84,1348.708a2.19,2.19,0,1,1,2.19-2.19,2.193,2.193,0,0,1-2.19,2.19m0-3.405a1.215,1.215,0,1,0,1.215,1.215,1.217,1.217,0,0,0-1.215-1.215" transform="translate(6428.155 -11784.27)" fill="#4d4d4d"/>
        <path id="Trazado_213411" data-name="Trazado 213411" d="M774.457,1360.93a.488.488,0,0,1-.488-.488,2.918,2.918,0,0,0-5.836,0,.488.488,0,1,1-.975,0,3.893,3.893,0,0,1,7.786,0,.488.488,0,0,1-.488.488" transform="translate(6429.944 -11790.531)" fill="#4d4d4d"/>
        <path id="Trazado_213412" data-name="Trazado 213412" d="M736.809,1343.491a2.614,2.614,0,0,0-4.257,0,2.618,2.618,0,0,1-2.616-2.616v-13.222c0-.02,0-.041,0-.061a2.164,2.164,0,0,1-.658-.454l-4.214-4.214a2.189,2.189,0,0,1,.4-3.418,2.241,2.241,0,0,1,2.754.375l3.836,3.836a4.638,4.638,0,0,1,2.6-.783,4.73,4.73,0,0,1,2.643.79l3.844-3.844a2.241,2.241,0,0,1,2.754-.375,2.188,2.188,0,0,1,.4,3.418l-4.214,4.214a2.167,2.167,0,0,1-.658.454c0,.026,0,.052,0,.078v13.2a2.619,2.619,0,0,1-2.616,2.616m-1.641-10.7v8.088a1.641,1.641,0,0,0,3.281,0v-13.2a3.09,3.09,0,0,0-.021-.366l-.057-.452.447-.087a1.106,1.106,0,0,0,.574-.317l4.214-4.214a1.215,1.215,0,0,0,.359-.864,1.236,1.236,0,0,0-.591-1.041,1.264,1.264,0,0,0-1.543.241l-4.454,4.454-.342-.281a3.77,3.77,0,0,0-4.721-.007l-.341.278-4.443-4.444a1.264,1.264,0,0,0-1.543-.241,1.235,1.235,0,0,0-.591,1.041,1.215,1.215,0,0,0,.359.864l4.214,4.214a1.106,1.106,0,0,0,.575.317l.447.087-.056.452a2.89,2.89,0,0,0-.021.349v13.222a1.641,1.641,0,0,0,3.281,0v-8.088Z" transform="translate(6451.841 -11771.391)" fill="#4d4d4d"/>
      </g>
      <text id="Confidencialidad_de_la_Información_" data-name="Confidencialidad de la Información  " transform="translate(869 1204)" fill="#12263f" font-size="14" font-family="ArialMT, Arial"><tspan x="1.742" y="13">Confidencialidad </tspan><tspan x="38.321" y="28">de la </tspan><tspan x="16.928" y="43" xml:space="preserve">Información  </tspan></text>
    </g>
    <g id="Grupo_595770" data-name="Grupo 595770" transform="translate(-6253 11721)">
      <g id="Grupo_595800" data-name="Grupo 595800" transform="translate(13.068)">
        <path id="Trazado_213374" data-name="Trazado 213374" d="M1032.353,1323.717a7.576,7.576,0,1,1,7.576-7.576,7.585,7.585,0,0,1-7.576,7.576m0-14.176a6.6,6.6,0,1,0,6.6,6.6,6.608,6.608,0,0,0-6.6-6.6" transform="translate(6297.952 -11765.946)" fill="#4d4d4d"/>
        <path id="Trazado_213375" data-name="Trazado 213375" d="M1039.8,1328.329a.488.488,0,0,1,0-.975,3.77,3.77,0,0,0,3.765-3.766.488.488,0,1,1,.975,0,4.746,4.746,0,0,1-4.741,4.741" transform="translate(6290.504 -11773.394)" fill="#4d4d4d"/>
        <path id="Trazado_213376" data-name="Trazado 213376" d="M1038.311,1346.687a1.908,1.908,0,0,1-1.905-1.905V1338.4a1.4,1.4,0,0,1,.014-.223l.962.162c0,.015,0,.038,0,.061v6.379a.93.93,0,0,0,1.86,0V1338.4c0-.023,0-.046,0-.067l.963-.156a1.4,1.4,0,0,1,.014.223v6.379a1.908,1.908,0,0,1-1.905,1.905" transform="translate(6291.994 -11781.119)" fill="#4d4d4d"/>
        <path id="Trazado_213377" data-name="Trazado 213377" d="M1023.94,1363.143h-14.664a.488.488,0,1,1,0-.975h13.671a6.609,6.609,0,0,0-6.583-6.113h-7.088a.488.488,0,0,1,0-.975h7.088a7.585,7.585,0,0,1,7.576,7.576Z" transform="translate(6306.144 -11789.778)" fill="#4d4d4d"/>
        <path id="Trazado_213378" data-name="Trazado 213378" d="M1055.431,1363.143h-14.664v-.488a7.584,7.584,0,0,1,7.576-7.576h7.088a.488.488,0,1,1,0,.975h-7.088a6.61,6.61,0,0,0-6.583,6.113h13.671a.488.488,0,1,1,0,.975" transform="translate(6289.759 -11789.778)" fill="#4d4d4d"/>
        <path id="Trazado_213379" data-name="Trazado 213379" d="M1024.269,1363.321h-10.632a.488.488,0,1,1,0-.975h10.632a.488.488,0,1,1,0,.975" transform="translate(6303.909 -11793.502)" fill="#4d4d4d"/>
        <path id="Trazado_213380" data-name="Trazado 213380" d="M1054.084,1363.321h-9.924a.488.488,0,1,1,0-.975h9.924a.488.488,0,0,1,0,.975" transform="translate(6288.271 -11793.502)" fill="#4d4d4d"/>
      </g>
      <text id="Normativa" transform="translate(7309 -10482)" fill="#12263f" font-size="14" font-family="ArialMT, Arial"><tspan x="3.104" y="13">Normativa</tspan></text>
    </g>
    <g id="Grupo_595771" data-name="Grupo 595771" transform="translate(-5841 11346)">
      <text id="Tipos_de_instrumentos_de_validación_" data-name="Tipos de instrumentos de validación  " transform="translate(6987 -10511)" fill="#12263f" font-size="14" font-family="ArialMT, Arial"><tspan x="24.912" y="13">Tipos de </tspan><tspan x="1.697" y="31">instrumentos de </tspan><tspan x="20.369" y="49" xml:space="preserve">validación  </tspan></text>
      <g id="Grupo_595804" data-name="Grupo 595804" transform="translate(-1.581)">
        <g id="Grupo_595749-2" data-name="Grupo 595749" transform="translate(7029.581 -10453.076)" clip-path="url(#clip-path-3)">
          <path id="Trazado_215746" data-name="Trazado 215746" d="M0,12.713Q0,6.664,0,.616C0,.109.127,0,.716,0H19.351c.59,0,.718.11.718.615q0,12.1,0,24.2c0,.505-.129.616-.717.616H.717c-.589,0-.717-.11-.717-.615q0-6.049,0-12.1M19.087.839H.982V24.6h18.1Z" transform="translate(0 0)" fill="#4d4d4d"/>
          <path id="Trazado_215747" data-name="Trazado 215747" d="M194.893,56.545c0,2.383,0,4.766-.005,7.149a1.931,1.931,0,0,1-.121.649c-.26.707-.547,1.408-.815,2.113a.5.5,0,0,1-.491.378.49.49,0,0,1-.5-.368c-.29-.762-.592-1.52-.882-2.282a1,1,0,0,1-.06-.351q0-7.277,0-14.554a1.443,1.443,0,0,1,2.873-.01q0,3.639,0,7.277m-1.888,1.064q0,2.7,0,5.4c0,.585-.1.5.6.521.241.006.3-.07.3-.268q-.008-5.66,0-11.321c0-.2-.071-.287-.307-.262a2.006,2.006,0,0,1-.209,0c-.388,0-.389,0-.389.341q0,2.792,0,5.583M193,49.583h.925c-.01-.276.1-.577-.253-.723a.654.654,0,0,0-.467.021c-.312.163-.2.445-.205.7m.012,1.23h.89v-.359h-.89Zm.715,13.584h-.54l.279.681.261-.681" transform="translate(-176.732 -44.689)" fill="#4d4d4d"/>
          <path id="Trazado_215748" data-name="Trazado 215748" d="M76.067,95.954h3.374c.08,0,.16,0,.239,0a.411.411,0,1,1,.014.819,2.64,2.64,0,0,1-.269,0H72.617c-.4,0-.618-.155-.613-.42s.22-.4.6-.406h3.464" transform="translate(-66.272 -89.396)" fill="#4d4d4d"/>
          <path id="Trazado_215749" data-name="Trazado 215749" d="M76.071,48.758H72.7a1.365,1.365,0,0,1-.268-.01c-.239-.049-.386-.182-.388-.4s.147-.366.4-.412a1.739,1.739,0,0,1,.3-.008H79.46c.06,0,.119,0,.179,0,.322.011.529.177.525.419s-.211.4-.539.407c-.119,0-.239,0-.358,0h-3.2" transform="translate(-66.306 -44.653)" fill="#4d4d4d"/>
          <path id="Trazado_215750" data-name="Trazado 215750" d="M76.1,191.972h3.345c.08,0,.16,0,.239,0a.411.411,0,1,1,.014.819,2.645,2.645,0,0,1-.269,0H72.616c-.4,0-.619-.155-.613-.421s.22-.4.6-.406H76.1Z" transform="translate(-66.271 -178.852)" fill="#4d4d4d"/>
          <path id="Trazado_215751" data-name="Trazado 215751" d="M76.1,288.8H72.7a1.363,1.363,0,0,1-.268-.01c-.239-.049-.386-.182-.388-.4s.146-.366.4-.412a1.74,1.74,0,0,1,.3-.008h6.719c.06,0,.119,0,.179,0,.322.011.529.177.525.419s-.211.4-.539.407c-.129,0-.259,0-.388,0H76.1" transform="translate(-66.307 -268.293)" fill="#4d4d4d"/>
          <path id="Trazado_215752" data-name="Trazado 215752" d="M75.95,240.812c-1.165,0-2.329,0-3.494,0-.439,0-.711-.329-.485-.6a.7.7,0,0,1,.464-.212c2.349-.013,4.7-.01,7.048-.008.329,0,.537.162.543.4s-.208.421-.551.422c-1.175,0-2.349,0-3.524,0" transform="translate(-66.167 -223.584)" fill="#4d4d4d"/>
          <path id="Trazado_215753" data-name="Trazado 215753" d="M76.1,143.963H79.44c.08,0,.16,0,.239,0a.413.413,0,1,1-.012.821c-.079.006-.159,0-.239,0H72.709a2.663,2.663,0,0,1-.269,0,.411.411,0,1,1,.012-.819c.079-.007.159,0,.239,0h3.4" transform="translate(-66.272 -134.125)" fill="#4d4d4d"/>
          <path id="Trazado_215754" data-name="Trazado 215754" d="M32.845,49.222a1.452,1.452,0,1,1-1.433-1.241,1.354,1.354,0,0,1,1.433,1.241m-1.423.388a.4.4,0,1,0-.475-.379.459.459,0,0,0,.475.379" transform="translate(-27.587 -44.702)" fill="#4d4d4d"/>
          <path id="Trazado_215755" data-name="Trazado 215755" d="M31.391,242.48a1.248,1.248,0,1,1,1.453-1.224,1.347,1.347,0,0,1-1.453,1.224m.029-1.629a.458.458,0,0,0-.473.381.469.469,0,1,0,.473-.381" transform="translate(-27.587 -223.613)" fill="#4d4d4d"/>
          <path id="Trazado_215756" data-name="Trazado 215756" d="M31.405,288.024a1.246,1.246,0,1,1-1.433,1.241,1.347,1.347,0,0,1,1.433-1.241m.465,1.242a.445.445,0,0,0-.443-.407.4.4,0,1,0,.443.407" transform="translate(-27.586 -268.341)" fill="#4d4d4d"/>
          <path id="Trazado_215757" data-name="Trazado 215757" d="M31.4,98.455a1.248,1.248,0,1,1,1.442-1.234A1.351,1.351,0,0,1,31.4,98.455m.017-1.629a.458.458,0,0,0-.473.381.469.469,0,1,0,.473-.381" transform="translate(-27.586 -89.43)" fill="#4d4d4d"/>
          <path id="Trazado_215758" data-name="Trazado 215758" d="M31.415,144a1.246,1.246,0,1,1-1.442,1.234A1.344,1.344,0,0,1,31.415,144m-.007.836a.4.4,0,1,0,.463.389.451.451,0,0,0-.463-.389" transform="translate(-27.587 -134.158)" fill="#4d4d4d"/>
          <path id="Trazado_215759" data-name="Trazado 215759" d="M32.844,193.238a1.452,1.452,0,1,1-1.444-1.231,1.35,1.35,0,0,1,1.444,1.231m-1.436.4a.452.452,0,0,0,.463-.39.446.446,0,0,0-.446-.4.4.4,0,1,0-.016.793" transform="translate(-27.586 -178.886)" fill="#4d4d4d"/>
          <path id="Trazado_215760" data-name="Trazado 215760" d="M74.16,113.958c.527,0,1.055,0,1.583,0,.35,0,.562.161.563.412s-.213.413-.561.413q-1.6,0-3.2,0c-.342,0-.556-.174-.547-.425s.215-.4.546-.4c.537,0,1.075,0,1.613,0" transform="translate(-66.27 -106.17)" fill="#4d4d4d"/>
          <path id="Trazado_215761" data-name="Trazado 215761" d="M74.159,210.8c-.528,0-1.055,0-1.583,0-.355,0-.567-.153-.575-.4s.21-.423.578-.424q1.583,0,3.165,0c.349,0,.561.163.56.414s-.214.409-.564.411c-.528,0-1.055,0-1.583,0" transform="translate(-66.269 -195.626)" fill="#4d4d4d"/>
          <path id="Trazado_215762" data-name="Trazado 215762" d="M74.156,257.988c.528,0,1.055,0,1.583,0,.352,0,.565.157.569.406s-.209.418-.555.419q-1.6,0-3.2,0c-.346,0-.559-.168-.554-.419s.216-.4.569-.406c.528,0,1.055,0,1.583,0" transform="translate(-66.272 -240.357)" fill="#4d4d4d"/>
          <path id="Trazado_215763" data-name="Trazado 215763" d="M74.177,162.793c-.537,0-1.075,0-1.613,0-.349,0-.561-.163-.561-.413s.212-.411.562-.412q1.6,0,3.2,0c.33,0,.538.159.546.4s-.206.422-.548.425c-.527,0-1.055,0-1.583,0" transform="translate(-66.272 -150.897)" fill="#4d4d4d"/>
          <path id="Trazado_215764" data-name="Trazado 215764" d="M74.16,65.949c.527,0,1.055,0,1.583,0,.35,0,.562.161.563.412s-.213.413-.561.413q-1.6,0-3.2,0c-.342,0-.556-.174-.547-.425s.215-.4.546-.4c.537,0,1.075,0,1.613,0" transform="translate(-66.27 -61.442)" fill="#4d4d4d"/>
          <path id="Trazado_215765" data-name="Trazado 215765" d="M74.126,306.823c-.518,0-1.035,0-1.553,0-.353,0-.565-.156-.571-.405s.212-.42.582-.42q1.568,0,3.136,0c.372,0,.59.159.586.418s-.221.407-.6.408c-.528,0-1.055,0-1.583,0" transform="translate(-66.271 -285.085)" fill="#4d4d4d"/>
        </g>
      </g>
    </g>
    <g id="Grupo_595772" data-name="Grupo 595772" transform="translate(-5884 11400)">
      <text id="Instrumentos_de_Validación_" data-name="Instrumentos de Validación " transform="translate(6842 -10499)" fill="#12263f" font-size="14" font-family="ArialMT, Arial"><tspan x="0.307" y="13">Instrumentos de </tspan><tspan x="18.72" y="37">Validación </tspan></text>
      <g id="Grupo_595750-2" data-name="Grupo 595750" transform="translate(6879 -10460.075)">
        <g id="Grupo_166185" data-name="Grupo 166185" transform="translate(3 4.999)" clip-path="url(#clip-path-4)">
          <path id="Trazado_205921" data-name="Trazado 205921" d="M11.193,0c.119.032.237.067.357.1a2.843,2.843,0,0,1,1.983,1.65.329.329,0,0,0,.356.235c.544-.012,1.089-.005,1.634,0,.467,0,.839.125.784.781-.022.265,0,.533,0,.841.128,0,.23,0,.333,0,.847.014,1.7-.028,2.541.055A2.687,2.687,0,0,1,21.526,6.3c.01,1.223,0,2.447,0,3.67,0,4.911-.025,9.823.014,14.733a2.665,2.665,0,0,1-2.61,2.72c-.089,0-.179.005-.268.005H2.86a2.934,2.934,0,0,1-2.182-.85A2.223,2.223,0,0,1,0,24.966Q0,15.63,0,6.294A2.752,2.752,0,0,1,2.779,3.6c.705-.013,1.411,0,2.116,0h.331c0-.34,0-.658,0-.977,0-.426.183-.625.614-.636.589-.015,1.179,0,1.768-.015a.353.353,0,0,0,.27-.138A2.973,2.973,0,0,1,10.215.042c.024,0,.045-.027.067-.041Zm5.118,4.906c0,.512,0,1,0,1.491a.7.7,0,0,1-.78.78q-4.781,0-9.562,0a.678.678,0,0,1-.748-.748c-.006-.428-.011-.857,0-1.286.006-.2-.067-.26-.263-.258-.687.009-1.375,0-2.062,0A1.489,1.489,0,0,0,1.283,6.513q0,7.178,0,14.357c0,1.33,0,2.661,0,3.991a1.062,1.062,0,0,0,.641,1.056,2.537,2.537,0,0,0,.978.214q7.861.019,15.723.009c.062,0,.125,0,.187,0a1.334,1.334,0,0,0,1.435-1.486q0-9.08,0-18.16a1.485,1.485,0,0,0-1.581-1.6c-.687-.006-1.375,0-2.062,0-.087,0-.174.009-.291.016M14.977,3.28c-.594,0-1.155,0-1.716,0a.732.732,0,0,1-.782-.592c-.022-.077-.039-.156-.066-.231a1.776,1.776,0,0,0-2.56-.982,1.862,1.862,0,0,0-.9,1.209.693.693,0,0,1-.767.6c-.447,0-.893,0-1.34,0-.094,0-.189.009-.306.015,0,.768.01,1.508-.006,2.248-.005.253.062.335.324.334,2.607-.009,5.215-.005,7.822-.006.1,0,.191-.012.3-.019Z" transform="translate(0.001 -0.001)" fill="#4d4d4d"/>
          <path id="Trazado_205922" data-name="Trazado 205922" d="M117.884,254.23q1.767,0,3.534,0a1.456,1.456,0,0,1,.37.039.635.635,0,0,1-.064,1.235,1.876,1.876,0,0,1-.32.023q-3.547,0-7.094,0a2.035,2.035,0,0,1-.32-.021.636.636,0,0,1-.063-1.241,1.532,1.532,0,0,1,.371-.036q1.794,0,3.587,0" transform="translate(-103.983 -232.999)" fill="#4d4d4d"/>
          <path id="Trazado_205923" data-name="Trazado 205923" d="M117.843,130.41c-1.222,0-2.445,0-3.667,0a.637.637,0,0,1-.717-.566.626.626,0,0,1,.515-.7,1.64,1.64,0,0,1,.319-.02q3.56,0,7.12,0a1.425,1.425,0,0,1,.4.045.635.635,0,0,1-.112,1.231,2.5,2.5,0,0,1-.32.013h-3.533" transform="translate(-103.98 -118.336)" fill="#4d4d4d"/>
          <path id="Trazado_205924" data-name="Trazado 205924" d="M117.852,191.75c1.2,0,2.409-.009,3.614.009a1.049,1.049,0,0,1,.579.2.539.539,0,0,1,.144.636.629.629,0,0,1-.5.429.811.811,0,0,1-.16.01q-3.694,0-7.388,0a.647.647,0,0,1-.7-.535.626.626,0,0,1,.636-.747c.615-.011,1.231,0,1.847,0h1.927" transform="translate(-103.96 -175.735)" fill="#4d4d4d"/>
          <path id="Trazado_205925" data-name="Trazado 205925" d="M41.155,237.362c.647-.616,1.3-1.253,1.971-1.862a1.02,1.02,0,0,1,.586-.245.633.633,0,0,1,.4,1.088c-.851.813-1.7,1.625-2.563,2.428a.6.6,0,0,1-.9-.036q-.642-.644-1.271-1.3a.646.646,0,1,1,.925-.881c.273.266.556.524.858.808" transform="translate(-35.868 -215.609)" fill="#4d4d4d"/>
          <path id="Trazado_205926" data-name="Trazado 205926" d="M41.16,174.616c.641-.611,1.3-1.247,1.971-1.877a.658.658,0,0,1,.894-.1.622.622,0,0,1,.033,1.012c-.7.673-1.409,1.339-2.114,2.008-.136.129-.267.263-.41.383a.607.607,0,0,1-.888-.028q-.664-.661-1.308-1.34a.665.665,0,0,1-.015-.96.649.649,0,0,1,.933.071c.291.274.589.541.905.829" transform="translate(-35.857 -158.101)" fill="#4d4d4d"/>
          <path id="Trazado_205927" data-name="Trazado 205927" d="M41.124,112.027l1.653-1.572c.129-.123.253-.252.388-.368a.639.639,0,0,1,.931.057.6.6,0,0,1-.038.883q-1.263,1.214-2.543,2.411a.6.6,0,0,1-.885,0q-.682-.679-1.345-1.378a.64.64,0,0,1-.1-.79.547.547,0,0,1,.631-.291,1.075,1.075,0,0,1,.428.244c.292.248.568.515.882.8" transform="translate(-35.826 -100.733)" fill="#4d4d4d"/>
        </g>
      </g>
    </g>
    <text id="Administración_y_normativa_de_registros_de_información" data-name="Administración y normativa de registros de información" transform="translate(699 970)" fill="#12263f" font-size="18" font-family="Arial-BoldMT, Arial" font-weight="700"><tspan x="6.985" y="16">Administración y </tspan><tspan x="23.983" y="40">normativa de </tspan><tspan x="28.483" y="64">registros de </tspan><tspan x="28.496" y="88">información</tspan></text>
    <line id="Línea_734" data-name="Línea 734" x1="1" y2="135" transform="translate(778.5 781.5)" fill="none" stroke="#7f0f98" stroke-width="6"/>
    <line id="Línea_735" data-name="Línea 735" x1="63" y2="23" transform="translate(878.5 958.5)" fill="none" stroke="#7f0f98" stroke-width="6"/>
    <line id="Línea_736" data-name="Línea 736" x1="97" y1="29" transform="translate(581.5 957.5)" fill="none" stroke="#7f0f98" stroke-width="6"/>
    <line id="Línea_737" data-name="Línea 737" x1="37" y1="55" transform="translate(844.5 1117.5)" fill="none" stroke="#7f0f98" stroke-width="6"/>
    <line id="Línea_738" data-name="Línea 738" y1="42" x2="32" transform="translate(676.5 1117.5)" fill="none" stroke="#7f0f98" stroke-width="6"/>
    <line id="Línea_739" data-name="Línea 739" y1="47" x2="36" transform="translate(542 1300)" fill="none" stroke="#7f0f98" stroke-width="6"/>
    <line id="Línea_740" data-name="Línea 740" x1="50" y2="17" transform="translate(1078.5 896.5)" fill="none" stroke="#7f0f98" stroke-width="6"/>
    <line id="Línea_741" data-name="Línea 741" x1="17" y2="16" transform="translate(826 666)" fill="none" stroke="#7f0f98" stroke-width="6"/>
    <line id="Línea_742" data-name="Línea 742" x2="17" y2="16" transform="translate(714 666)" fill="none" stroke="#7f0f98" stroke-width="6"/>
    <line id="Línea_743" data-name="Línea 743" x2="11" y2="20" transform="translate(483 863)" fill="none" stroke="#7f0f98" stroke-width="6"/>
    <line id="Línea_744" data-name="Línea 744" x2="27" y2="3" transform="translate(995 1251)" fill="none" stroke="#7f0f98" stroke-width="6"/>
    <line id="Línea_745" data-name="Línea 745" x1="2" y2="31" transform="translate(914 1308)" fill="none" stroke="#7f0f98" stroke-width="6"/>
    <line id="Línea_746" data-name="Línea 746" y1="10" x2="19" transform="translate(447 969)" fill="none" stroke="#7f0f98" stroke-width="6"/>
  </g>
</svg>
